B612-Bold.sfdir
StartChar: exclam
Encoding: 257 33 257
GlifName: exclam
Width: 700
VWidth: 0
Flags: W
LayerCount: 2
Fore
SplineSet
400 1500 m 257
 400 444 l 257
 100 409 l 257
 100 1500 l 257
 400 1500 l 257
103 137 m 257
 103 167 103 167 114.5 194 c 128
 126 221 126 221 146 241.5 c 128
 166 262 166 262 193 273.5 c 128
 220 285 220 285 250 285 c 257
 280 285 280 285 307.5 273.5 c 128
 335 262 335 262 355 241.5 c 128
 375 221 375 221 386.5 194 c 128
 398 167 398 167 398 137 c 257
 398 106 398 106 386.5 78.5 c 128
 375 51 375 51 355.5 30.5 c 128
 336 10 336 10 309 -2 c 128
 282 -14 282 -14 252 -14 c 257
 221 -14 221 -14 193.5 -2 c 128
 166 10 166 10 146 30.5 c 128
 126 51 126 51 114.5 78.5 c 128
 103 106 103 106 103 137 c 257
EndSplineSet
EndChar
StartChar: quotedbl
Encoding: 439 34 439
GlifName: quotedbl
Width: 800
VWidth: 0
Flags: W
LayerCount: 2
Fore
SplineSet
674 1500 m 257
 674 1367 l 257
 674 1349 674 1349 673.5 1324.5 c 128
 673 1300 673 1300 672 1273 c 128
 671 1246 671 1246 669 1218.5 c 128
 667 1191 667 1191 664 1168 c 257
 641 1013 l 257
 461 1013 l 257
 438 1168 l 257
 435 1191 435 1191 433 1218.5 c 128
 431 1246 431 1246 430 1273 c 128
 429 1300 429 1300 428.5 1324.5 c 128
 428 1349 428 1349 428 1367 c 257
 428 1500 l 257
 674 1500 l 257
374 1500 m 257
 374 1367 l 257
 374 1349 374 1349 373.5 1324.5 c 128
 373 1300 373 1300 372 1273 c 128
 371 1246 371 1246 369 1218.5 c 128
 367 1191 367 1191 364 1168 c 257
 341 1013 l 257
 161 1013 l 257
 138 1168 l 257
 135 1191 135 1191 133 1218.5 c 128
 131 1246 131 1246 130 1273 c 128
 129 1300 129 1300 128.5 1324.5 c 128
 128 1349 128 1349 128 1367 c 257
 128 1500 l 257
 374 1500 l 257
EndSplineSet
EndChar
StartChar: quotesingle
Encoding: 446 39 446
GlifName: quotesingle
Width: 400
VWidth: 0
Flags: W
LayerCount: 2
Fore
SplineSet
100 1500 m 257
 370 1500 l 257
 370 1367 l 257
 370 1331 370 1331 363 1298.5 c 128
 356 1266 356 1266 339.5 1231.5 c 128
 323 1197 323 1197 296 1157.5 c 128
 269 1118 269 1118 229 1068 c 257
 90 1068 l 257
 92 1148 92 1148 96 1224.5 c 128
 100 1301 100 1301 100 1367 c 257
 100 1500 l 257
EndSplineSet
EndChar
StartChar: period
Encoding: 412 46 412
GlifName: period
Width: 600
VWidth: 0
Flags: W
LayerCount: 2
Fore
SplineSet
66 171 m 257
 66 209 66 209 80.5 242.5 c 128
 95 276 95 276 120 301.5 c 128
 145 327 145 327 178.5 341.5 c 128
 212 356 212 356 250 356 c 257
 288 356 288 356 322 341.5 c 128
 356 327 356 327 381 301.5 c 128
 406 276 406 276 420.5 242.5 c 128
 435 209 435 209 435 171 c 257
 435 132 435 132 420.5 98 c 128
 406 64 406 64 381.5 38.5 c 128
 357 13 357 13 323.5 -2 c 128
 290 -17 290 -17 252 -17 c 257
 214 -17 214 -17 179.5 -2 c 128
 145 13 145 13 120 38.5 c 128
 95 64 95 64 80.5 98 c 128
 66 132 66 132 66 171 c 257
EndSplineSet
EndChar
StartChar: one
Encoding: 383 49 383
GlifName: one
Width: 1300
VWidth: 0
Flags: W
LayerCount: 2
Fore
SplineSet
530 880 m 257
 604 1243 l 257
 377 972 l 257
 293 898 l 257
 138 1083 l 257
 618 1525 l 257
 861 1492 l 257
 861 200 l 257
 1104 200 l 257
 1104 0 l 257
 287 0 l 257
 287 200 l 257
 530 200 l 257
 530 880 l 257
EndSplineSet
EndChar
StartChar: four
Encoding: 281 52 281
GlifName: four
Width: 1300
VWidth: 0
Flags: W
LayerCount: 2
Fore
SplineSet
1139 300 m 257
 961 300 l 257
 961 0 l 257
 640 0 l 257
 640 300 l 257
 40 300 l 257
 40 500 l 257
 535 1525 l 257
 850 1492 l 257
 523 763 l 257
 349 500 l 257
 640 500 l 257
 640 799 l 257
 961 772 l 257
 961 500 l 257
 1160 500 l 257
 1139 300 l 257
EndSplineSet
EndChar
StartChar: five
Encoding: 270 53 270
GlifName: five
Width: 1300
VWidth: 0
Flags: W
LayerCount: 2
Fore
SplineSet
491 1046 m 257
 515 1052 515 1052 543.5 1055.5 c 128
 572 1059 572 1059 607 1059 c 257
 723 1059 723 1059 814.5 1025 c 128
 906 991 906 991 969.5 932 c 128
 1033 873 1033 873 1066.5 794.5 c 128
 1100 716 1100 716 1100 626 c 257
 1100 523 1100 523 1059 437 c 128
 1018 351 1018 351 947.5 281.5 c 128
 877 212 877 212 783 159.5 c 128
 689 107 689 107 582.5 71.5 c 128
 476 36 476 36 363 18 c 128
 250 0 250 0 142 0 c 257
 142 226 l 257
 213 228 213 228 287.5 242 c 128
 362 256 362 256 432 280 c 128
 502 304 502 304 564 338 c 128
 626 372 626 372 672.5 413.5 c 128
 719 455 719 455 746 503.5 c 128
 773 552 773 552 773 606 c 257
 773 647 773 647 759 686 c 128
 745 725 745 725 719.5 755 c 128
 694 785 694 785 659 803.5 c 128
 624 822 624 822 581 822 c 257
 543 822 543 822 510 816 c 128
 477 810 477 810 450 800.5 c 128
 423 791 423 791 402.5 780 c 128
 382 769 382 769 367 759 c 257
 142 759 l 257
 142 1500 l 257
 1008 1500 l 257
 1008 1300 l 257
 491 1300 l 257
 491 1046 l 257
EndSplineSet
EndChar
StartChar: seven
Encoding: 471 55 471
GlifName: seven
Width: 1300
VWidth: 0
Flags: W
LayerCount: 2
Fore
SplineSet
140 1500 m 257
 1147 1500 l 257
 1147 1339 l 257
 1147 1312 1147 1312 1132.5 1274 c 128
 1118 1236 1118 1236 1093.5 1189.5 c 128
 1069 1143 1069 1143 1037 1088.5 c 128
 1005 1034 1005 1034 969 976 c 257
 927 906 927 906 881 827 c 128
 835 748 835 748 795 666 c 128
 755 584 755 584 726 502.5 c 128
 697 421 697 421 688 346 c 257
 684 310 684 310 681.5 266 c 128
 679 222 679 222 678 175.5 c 128
 677 129 677 129 677 84 c 128
 677 39 677 39 677 0 c 257
 340 0 l 257
 340 32 340 32 340.5 86 c 128
 341 140 341 140 343.5 200 c 128
 346 260 346 260 350.5 318.5 c 128
 355 377 355 377 364 418 c 257
 383 507 383 507 417.5 597.5 c 128
 452 688 452 688 494.5 774 c 128
 537 860 537 860 583.5 939 c 128
 630 1018 630 1018 672 1086 c 257
 707 1143 707 1143 735.5 1191 c 128
 764 1239 764 1239 776 1272 c 257
 140 1272 l 257
 140 1500 l 257
EndSplineSet
EndChar
StartChar: eight
Encoding: 236 56 236
GlifName: eight
Width: 1300
VWidth: 0
Flags: W
LayerCount: 2
Fore
SplineSet
616 1517 m 257
 719 1517 719 1517 806.5 1490.5 c 128
 894 1464 894 1464 958 1414.5 c 128
 1022 1365 1022 1365 1058 1294 c 128
 1094 1223 1094 1223 1094 1134 c 257
 1094 1083 1094 1083 1074 1040 c 128
 1054 997 1054 997 1022.5 961 c 128
 991 925 991 925 950.5 896 c 128
 910 867 910 867 870 844 c 257
 936 812 936 812 994 769.5 c 128
 1052 727 1052 727 1095 674.5 c 128
 1138 622 1138 622 1162.5 560 c 128
 1187 498 1187 498 1187 427 c 257
 1187 312 1187 312 1138.5 228 c 128
 1090 144 1090 144 1011 89.5 c 128
 932 35 932 35 830 9 c 128
 728 -17 728 -17 622 -17 c 257
 518 -17 518 -17 420.5 12.5 c 128
 323 42 323 42 248 100 c 128
 173 158 173 158 127.5 243.5 c 128
 82 329 82 329 82 441 c 257
 82 512 82 512 103.5 573.5 c 128
 125 635 125 635 163.5 686 c 128
 202 737 202 737 254.5 777.5 c 128
 307 818 307 818 370 848 c 257
 324 875 324 875 285 905.5 c 128
 246 936 246 936 217 970 c 128
 188 1004 188 1004 171.5 1042 c 128
 155 1080 155 1080 155 1124 c 257
 155 1226 155 1226 199 1300.5 c 128
 243 1375 243 1375 310.5 1423 c 128
 378 1471 378 1471 459.5 1494 c 128
 541 1517 541 1517 616 1517 c 257
862 422 m 257
 862 476 862 476 839 520 c 128
 816 564 816 564 779.5 599.5 c 128
 743 635 743 635 697.5 662.5 c 128
 652 690 652 690 607 711 c 257
 564 690 564 690 527.5 662.5 c 128
 491 635 491 635 464 599 c 128
 437 563 437 563 421.5 519 c 128
 406 475 406 475 406 421 c 257
 406 373 406 373 425.5 332 c 128
 445 291 445 291 475.5 262 c 128
 506 233 506 233 545 216.5 c 128
 584 200 584 200 623 200 c 257
 668 200 668 200 711 215 c 128
 754 230 754 230 787.5 258.5 c 128
 821 287 821 287 841.5 328 c 128
 862 369 862 369 862 422 c 257
475 1156 m 257
 475 1122 475 1122 489 1093.5 c 128
 503 1065 503 1065 526.5 1041 c 128
 550 1017 550 1017 580.5 998 c 128
 611 979 611 979 643 964 c 257
 670 979 670 979 694 998.5 c 128
 718 1018 718 1018 735.5 1041.5 c 128
 753 1065 753 1065 763.5 1093 c 128
 774 1121 774 1121 774 1152 c 257
 774 1190 774 1190 759.5 1218 c 128
 745 1246 745 1246 724 1264 c 128
 703 1282 703 1282 678.5 1291 c 128
 654 1300 654 1300 634 1300 c 257
 606 1300 606 1300 577.5 1289 c 128
 549 1278 549 1278 526.5 1258.5 c 128
 504 1239 504 1239 489.5 1212.5 c 128
 475 1186 475 1186 475 1156 c 257
EndSplineSet
EndChar
StartChar: nine
Encoding: 361 57 361
GlifName: nine
Width: 1300
VWidth: 0
Flags: W
LayerCount: 2
Fore
SplineSet
288 199 m 257
 357 201 357 201 424 222.5 c 128
 491 244 491 244 551 279 c 128
 611 314 611 314 662 361 c 128
 713 408 713 408 750.5 463 c 128
 788 518 788 518 810 578.5 c 128
 832 639 832 639 833 700 c 257
 655 548 l 257
 639 546 639 546 622.5 545 c 128
 606 544 606 544 589 544 c 257
 480 544 480 544 385 577.5 c 128
 290 611 290 611 220 673 c 128
 150 735 150 735 110 822.5 c 128
 70 910 70 910 70 1017 c 257
 70 1128 70 1128 108 1220 c 128
 146 1312 146 1312 216.5 1378 c 128
 287 1444 287 1444 387 1480.5 c 128
 487 1517 487 1517 611 1517 c 257
 721 1517 721 1517 805 1486 c 128
 889 1455 889 1455 950.5 1403.5 c 128
 1012 1352 1012 1352 1053.5 1285 c 128
 1095 1218 1095 1218 1119.5 1146.5 c 128
 1144 1075 1144 1075 1154.5 1004 c 128
 1165 933 1165 933 1165 873 c 257
 1165 696 1165 696 1109 540.5 c 128
 1053 385 1053 385 946 266.5 c 128
 839 148 839 148 684 73.5 c 128
 529 -1 529 -1 331 -17 c 257
 288 199 l 257
598 761 m 257
 632 761 632 761 668 777 c 128
 704 793 704 793 736 819 c 128
 768 845 768 845 794.5 878 c 128
 821 911 821 911 837 945 c 257
 834 1008 834 1008 818 1071.5 c 128
 802 1135 802 1135 773.5 1186 c 128
 745 1237 745 1237 705.5 1268.5 c 128
 666 1300 666 1300 618 1300 c 257
 571 1300 571 1300 531.5 1278.5 c 128
 492 1257 492 1257 462.5 1221 c 128
 433 1185 433 1185 416.5 1136.5 c 128
 400 1088 400 1088 400 1034 c 257
 400 980 400 980 413.5 931 c 128
 427 882 427 882 452.5 844 c 128
 478 806 478 806 514.5 783.5 c 128
 551 761 551 761 598 761 c 257
EndSplineSet
EndChar
StartChar: less
Encoding: 335 60 335
GlifName: less
Width: 1300
VWidth: 0
Flags: W
LayerCount: 2
Fore
SplineSet
1137 1277 m 257
 1137 1009 l 257
 470 654 l 257
 1137 302 l 257
 1137 34 l 257
 130 545 l 257
 130 770 l 257
 1137 1277 l 257
EndSplineSet
EndChar
StartChar: greater
Encoding: 294 62 294
GlifName: greater
Width: 1300
VWidth: 0
Flags: W
LayerCount: 2
Fore
SplineSet
1137 770 m 257
 1137 545 l 257
 130 34 l 257
 130 302 l 257
 797 654 l 257
 130 1009 l 257
 130 1278 l 257
 1137 770 l 257
EndSplineSet
EndChar
StartChar: question
Encoding: 436 63 436
GlifName: question
Width: 1100
VWidth: 0
Flags: W
LayerCount: 2
Fore
SplineSet
1038 1124 m 257
 1038 1064 1038 1064 1018 1014.5 c 128
 998 965 998 965 966 922 c 128
 934 879 934 879 892 841 c 128
 850 803 850 803 807 765 c 257
 778 740 778 740 748.5 708.5 c 128
 719 677 719 677 695.5 637 c 128
 672 597 672 597 657.5 547 c 128
 643 497 643 497 643 434 c 257
 332 399 l 257
 333 486 333 486 345.5 562 c 128
 358 638 358 638 387 705 c 128
 416 772 416 772 463 830.5 c 128
 510 889 510 889 581 942 c 257
 603 961 603 961 624 981 c 128
 645 1001 645 1001 661 1023.5 c 128
 677 1046 677 1046 687 1072.5 c 128
 697 1099 697 1099 697 1132 c 257
 697 1172 697 1172 682.5 1200.5 c 128
 668 1229 668 1229 643.5 1247.5 c 128
 619 1266 619 1266 587 1274.5 c 128
 555 1283 555 1283 521 1283 c 257
 495 1283 495 1283 457.5 1274.5 c 128
 420 1266 420 1266 377.5 1246.5 c 128
 335 1227 335 1227 292.5 1195 c 128
 250 1163 250 1163 216 1117 c 257
 34 1268 l 257
 91 1344 91 1344 155.5 1392.5 c 128
 220 1441 220 1441 287 1468.5 c 128
 354 1496 354 1496 420 1506.5 c 128
 486 1517 486 1517 545 1517 c 257
 640 1517 640 1517 729 1493.5 c 128
 818 1470 818 1470 886.5 1421.5 c 128
 955 1373 955 1373 996.5 1299 c 128
 1038 1225 1038 1225 1038 1124 c 257
352 137 m 257
 352 167 352 167 363.5 194 c 128
 375 221 375 221 395 241.5 c 128
 415 262 415 262 442 273.5 c 128
 469 285 469 285 499 285 c 257
 529 285 529 285 556.5 273.5 c 128
 584 262 584 262 604 241.5 c 128
 624 221 624 221 635.5 194 c 128
 647 167 647 167 647 137 c 257
 647 106 647 106 635.5 78.5 c 128
 624 51 624 51 604.5 30.5 c 128
 585 10 585 10 558 -2 c 128
 531 -14 531 -14 501 -14 c 257
 470 -14 470 -14 442.5 -2 c 128
 415 10 415 10 395 30.5 c 128
 375 51 375 51 363.5 78.5 c 128
 352 106 352 106 352 137 c 257
EndSplineSet
EndChar
StartChar: B
Encoding: 10 66 10
GlifName: B_
Width: 1300
VWidth: 0
Flags: W
LayerCount: 2
Fore
SplineSet
471 1130 m 257
 471 900 l 257
 500 900 l 257
 547 900 547 900 594.5 913 c 128
 642 926 642 926 680 953.5 c 128
 718 981 718 981 742 1024 c 128
 766 1067 766 1067 766 1128 c 257
 766 1183 766 1183 743 1218 c 128
 720 1253 720 1253 684 1272 c 128
 648 1291 648 1291 604.5 1298 c 128
 561 1305 561 1305 520 1305 c 257
 506 1305 506 1305 488 1304 c 128
 470 1303 470 1303 455 1301 c 257
 471 1130 l 257
120 0 m 257
 120 1262 l 257
 88 1481 l 257
 131 1487 131 1487 182 1492 c 128
 233 1497 233 1497 283.5 1501 c 128
 334 1505 334 1505 380 1507 c 128
 426 1509 426 1509 459 1509 c 257
 579 1509 579 1509 691 1493.5 c 128
 803 1478 803 1478 889.5 1438 c 128
 976 1398 976 1398 1028 1327.5 c 128
 1080 1257 1080 1257 1080 1148 c 257
 1080 1094 1080 1094 1064.5 1046 c 128
 1049 998 1049 998 1021.5 957.5 c 128
 994 917 994 917 954.5 883.5 c 128
 915 850 915 850 867 826 c 257
 931 804 931 804 987.5 773 c 128
 1044 742 1044 742 1086 699 c 128
 1128 656 1128 656 1152 600.5 c 128
 1176 545 1176 545 1176 475 c 257
 1176 387 1176 387 1151 317.5 c 128
 1126 248 1126 248 1083.5 195.5 c 128
 1041 143 1041 143 983 105.5 c 128
 925 68 925 68 859.5 44.5 c 128
 794 21 794 21 723.5 10.5 c 128
 653 0 653 0 585 0 c 257
 120 0 l 257
471 228 m 257
 528 228 l 257
 603 228 603 228 661.5 239.5 c 128
 720 251 720 251 760.5 279 c 128
 801 307 801 307 822.5 352 c 128
 844 397 844 397 844 465 c 257
 844 530 844 530 823 573.5 c 128
 802 617 802 617 765 643.5 c 128
 728 670 728 670 677 681.5 c 128
 626 693 626 693 566 693 c 257
 471 693 l 257
 471 228 l 257
EndSplineSet
EndChar
StartChar: E
Encoding: 17 69 17
GlifName: E_
Width: 1200
VWidth: 0
Flags: W
LayerCount: 2
Fore
SplineSet
1086 228 m 257
 1059 0 l 257
 102 0 l 257
 119 231 l 257
 119 1263 l 257
 84 1500 l 257
 1049 1500 l 257
 1049 1272 l 257
 455 1272 l 257
 470 1134 l 257
 470 916 l 257
 983 916 l 257
 983 703 l 257
 470 703 l 257
 470 360 l 257
 462 228 l 257
 1086 228 l 257
EndSplineSet
EndChar
StartChar: J
Encoding: 41 74 41
GlifName: J_
Width: 900
VWidth: 0
Flags: W
LayerCount: 2
Fore
SplineSet
185 1493 m 257
 749 1523 l 257
 749 446 l 257
 749 261 749 261 633 121 c 257
 579 55 579 55 494.5 19 c 128
 410 -17 410 -17 292 -17 c 257
 189 -17 189 -17 104 23.5 c 128
 19 64 19 64 -60 145 c 257
 88 338 l 257
 104 322 104 322 123 305 c 128
 142 288 142 288 164 274.5 c 128
 186 261 186 261 210 252.5 c 128
 234 244 234 244 261 244 c 257
 291 244 291 244 316 253.5 c 128
 341 263 341 263 359.5 286 c 128
 378 309 378 309 388 347.5 c 128
 398 386 398 386 398 444 c 257
 398 1132 l 257
 412 1266 l 257
 214 1254 l 257
 185 1493 l 257
EndSplineSet
EndChar
StartChar: K
Encoding: 42 75 42
GlifName: K_
Width: 1200
VWidth: 0
Flags: W
LayerCount: 2
Fore
SplineSet
121 0 m 257
 121 1263 l 257
 88 1494 l 257
 472 1525 l 257
 472 1035 l 257
 863 1500 l 257
 1231 1500 l 257
 732 900 l 257
 462 802 l 257
 722 716 l 257
 1252 0 l 257
 872 0 l 257
 472 540 l 257
 472 0 l 257
 121 0 l 257
EndSplineSet
EndChar
StartChar: L
Encoding: 44 76 44
GlifName: L_
Width: 1100
VWidth: 0
Flags: W
LayerCount: 2
Fore
SplineSet
463 228 m 257
 1082 228 l 257
 1055 0 l 257
 97 0 l 257
 120 232 l 257
 120 1263 l 257
 86 1494 l 257
 471 1525 l 257
 471 360 l 257
 463 228 l 257
EndSplineSet
EndChar
StartChar: M
Encoding: 46 77 46
GlifName: M_
Width: 1800
VWidth: 0
Flags: W
LayerCount: 2
Fore
SplineSet
922 799 m 257
 1250 1495 l 257
 1600 1526 l 257
 1600 0 l 257
 1269 0 l 257
 1269 551 l 257
 1314 1060 l 257
 1309 1061 l 257
 1145 581 l 257
 928 123 l 257
 745 123 l 257
 546 536 l 257
 377 1060 l 257
 371 1059 l 257
 422 498 l 257
 422 0 l 257
 100 0 l 257
 100 1263 l 257
 70 1494 l 257
 429 1524 l 257
 773 801 l 257
 848 498 l 257
 922 799 l 257
EndSplineSet
EndChar
StartChar: O
Encoding: 53 79 53
GlifName: O_
Width: 1600
VWidth: 0
Flags: W
LayerCount: 2
Fore
SplineSet
780 -17 m 257
 613 -17 613 -17 480 41 c 128
 347 99 347 99 254 201.5 c 128
 161 304 161 304 111.5 444.5 c 128
 62 585 62 585 62 750 c 257
 62 915 62 915 110 1055.5 c 128
 158 1196 158 1196 249.5 1298.5 c 128
 341 1401 341 1401 475 1459 c 128
 609 1517 609 1517 780 1517 c 257
 947 1517 947 1517 1080 1459 c 128
 1213 1401 1213 1401 1305.5 1298.5 c 128
 1398 1196 1398 1196 1447.5 1055.5 c 128
 1497 915 1497 915 1497 750 c 257
 1497 585 1497 585 1449 444.5 c 128
 1401 304 1401 304 1309.5 201.5 c 128
 1218 99 1218 99 1084.5 41 c 128
 951 -17 951 -17 780 -17 c 257
1148 721 m 257
 1148 827 1148 827 1128 926 c 128
 1108 1025 1108 1025 1063 1101 c 128
 1018 1177 1018 1177 947 1223 c 128
 876 1269 876 1269 774 1269 c 257
 678 1269 678 1269 609 1228.5 c 128
 540 1188 540 1188 496 1120.5 c 128
 452 1053 452 1053 431.5 965 c 128
 411 877 411 877 411 783 c 257
 411 675 411 675 431.5 575.5 c 128
 452 476 452 476 497 399.5 c 128
 542 323 542 323 613 277 c 128
 684 231 684 231 785 231 c 257
 881 231 881 231 949.5 272.5 c 128
 1018 314 1018 314 1062.5 382.5 c 128
 1107 451 1107 451 1127.5 539 c 128
 1148 627 1148 627 1148 721 c 257
EndSplineSet
EndChar
StartChar: P
Encoding: 65 80 65
GlifName: P_
Width: 1200
VWidth: 0
Flags: W
LayerCount: 2
Fore
SplineSet
471 0 m 257
 120 0 l 257
 120 1262 l 257
 82 1478 l 257
 127 1485 127 1485 183 1491.5 c 128
 239 1498 239 1498 296 1502 c 128
 353 1506 353 1506 405.5 1508.5 c 128
 458 1511 458 1511 497 1511 c 257
 621 1511 621 1511 735 1489.5 c 128
 849 1468 849 1468 936 1418.5 c 128
 1023 1369 1023 1369 1075 1287.5 c 128
 1127 1206 1127 1206 1127 1086 c 257
 1127 951 1127 951 1080 859 c 128
 1033 767 1033 767 946.5 709.5 c 128
 860 652 860 652 739 625 c 128
 618 598 618 598 471 593 c 257
 471 0 l 257
471 1130 m 257
 471 804 l 257
 548 808 548 808 608 823.5 c 128
 668 839 668 839 709.5 870.5 c 128
 751 902 751 902 772.5 952.5 c 128
 794 1003 794 1003 794 1078 c 257
 794 1139 794 1139 771 1182 c 128
 748 1225 748 1225 711.5 1252.5 c 128
 675 1280 675 1280 630 1292.5 c 128
 585 1305 585 1305 540 1305 c 257
 523 1305 523 1305 500.5 1304 c 128
 478 1303 478 1303 455 1300 c 257
 471 1130 l 257
EndSplineSet
EndChar
StartChar: Q
Encoding: 68 81 68
GlifName: Q_
Width: 1600
VWidth: 0
Flags: W
LayerCount: 2
Fore
SplineSet
957 2 m 257
 915 -7 915 -7 871 -12 c 128
 827 -17 827 -17 780 -17 c 257
 613 -17 613 -17 480 41 c 128
 347 99 347 99 254 201.5 c 128
 161 304 161 304 111.5 444.5 c 128
 62 585 62 585 62 750 c 257
 62 915 62 915 110 1055.5 c 128
 158 1196 158 1196 249.5 1298.5 c 128
 341 1401 341 1401 475 1459 c 128
 609 1517 609 1517 780 1517 c 257
 947 1517 947 1517 1080 1459 c 128
 1213 1401 1213 1401 1305.5 1298.5 c 128
 1398 1196 1398 1196 1447.5 1055.5 c 128
 1497 915 1497 915 1497 750 c 257
 1497 562 1497 562 1436.5 408.5 c 128
 1376 255 1376 255 1259 152 c 257
 1281 135 1281 135 1304 120.5 c 128
 1327 106 1327 106 1355 96 c 128
 1383 86 1383 86 1418 80.5 c 128
 1453 75 1453 75 1498 75 c 257
 1410 -145 l 257
 1378 -145 l 257
 1311 -145 1311 -145 1259.5 -132.5 c 128
 1208 -120 1208 -120 1168.5 -98.5 c 128
 1129 -77 1129 -77 1099.5 -49 c 128
 1070 -21 1070 -21 1047 10.5 c 128
 1024 42 1024 42 1005 74 c 128
 986 106 986 106 967 135 c 257
 957 2 l 257
1119 506 m 257
 1134 557 1134 557 1141 611 c 128
 1148 665 1148 665 1148 721 c 257
 1148 827 1148 827 1128 926 c 128
 1108 1025 1108 1025 1063 1101 c 128
 1018 1177 1018 1177 947 1223 c 128
 876 1269 876 1269 774 1269 c 257
 678 1269 678 1269 609 1228.5 c 128
 540 1188 540 1188 496 1120.5 c 128
 452 1053 452 1053 431.5 965 c 128
 411 877 411 877 411 783 c 257
 411 675 411 675 431.5 575.5 c 128
 452 476 452 476 497 399.5 c 128
 542 323 542 323 613 277 c 128
 684 231 684 231 785 231 c 257
 894 231 l 257
 860 260 860 260 808.5 280 c 128
 757 300 757 300 687 300 c 257
 761 500 l 257
 837 500 837 500 892 484 c 128
 947 468 947 468 988.5 442 c 128
 1030 416 1030 416 1060.5 382 c 128
 1091 348 1091 348 1119 311 c 257
 1119 506 l 257
EndSplineSet
EndChar
StartChar: S
Encoding: 72 83 72
GlifName: S_
Width: 1100
VWidth: 0
Flags: W
LayerCount: 2
Fore
SplineSet
853 1178 m 257
 807 1205 807 1205 769.5 1224.5 c 128
 732 1244 732 1244 700 1257.5 c 128
 668 1271 668 1271 639.5 1277.5 c 128
 611 1284 611 1284 583 1284 c 257
 546 1284 546 1284 511 1275.5 c 128
 476 1267 476 1267 449 1248.5 c 128
 422 1230 422 1230 405.5 1199.5 c 128
 389 1169 389 1169 389 1125 c 257
 389 1084 389 1084 408 1053 c 128
 427 1022 427 1022 458.5 997 c 128
 490 972 490 972 531 951.5 c 128
 572 931 572 931 616 911 c 257
 666 888 666 888 717.5 863.5 c 128
 769 839 769 839 817 809.5 c 128
 865 780 865 780 907 745 c 128
 949 710 949 710 980.5 666 c 128
 1012 622 1012 622 1030 568 c 128
 1048 514 1048 514 1048 448 c 257
 1048 332 1048 332 1000 245 c 128
 952 158 952 158 872.5 100 c 128
 793 42 793 42 689.5 12.5 c 128
 586 -17 586 -17 476 -17 c 257
 350 -17 350 -17 243.5 18.5 c 128
 137 54 137 54 30 121 c 257
 168 348 l 257
 195 330 195 330 232 308.5 c 128
 269 287 269 287 310.5 269 c 128
 352 251 352 251 394 238.5 c 128
 436 226 436 226 474 226 c 257
 518 226 518 226 561 237 c 128
 604 248 604 248 637.5 272.5 c 128
 671 297 671 297 691.5 335.5 c 128
 712 374 712 374 712 430 c 257
 712 484 712 484 687.5 524.5 c 128
 663 565 663 565 623.5 596.5 c 128
 584 628 584 628 534 653.5 c 128
 484 679 484 679 433 703 c 257
 361 737 361 737 291.5 773.5 c 128
 222 810 222 810 166.5 856 c 128
 111 902 111 902 77 960.5 c 128
 43 1019 43 1019 43 1097 c 257
 43 1198 43 1198 87.5 1276.5 c 128
 132 1355 132 1355 205 1408.5 c 128
 278 1462 278 1462 370.5 1489.5 c 128
 463 1517 463 1517 559 1517 c 257
 676 1517 676 1517 784 1480 c 128
 892 1443 892 1443 1003 1369 c 257
 853 1178 l 257
EndSplineSet
EndChar
StartChar: W
Encoding: 93 87 93
GlifName: W_
Width: 1900
VWidth: 0
Flags: W
LayerCount: 2
Fore
SplineSet
978 500 m 257
 933 970 l 257
 852 500 l 257
 730 0 l 257
 375 0 l 257
 4 1492 l 257
 334 1526 l 257
 500 860 l 257
 581 379 l 257
 585 379 l 257
 626 865 l 257
 784 1500 l 257
 1068 1500 l 257
 1226 864 l 257
 1308 369 l 257
 1312 369 l 257
 1353 862 l 257
 1512 1500 l 257
 1831 1500 l 257
 1458 0 l 257
 1103 0 l 257
 978 500 l 257
EndSplineSet
EndChar
StartChar: bracketright
Encoding: 171 93 171
GlifName: bracketright
Width: 1000
VWidth: 0
Flags: W
LayerCount: 2
Fore
SplineSet
740 -167 m 257
 766 -399 l 257
 66 -399 l 257
 66 -180 l 257
 415 -180 l 257
 400 -32 l 257
 400 1153 l 257
 415 1301 l 257
 66 1301 l 257
 66 1519 l 257
 766 1519 l 257
 740 1287 l 257
 740 -167 l 257
EndSplineSet
EndChar
StartChar: asciicircum
Encoding: 135 94 135
GlifName: asciicircum
Width: 1500
VWidth: 0
Flags: W
LayerCount: 2
Fore
SplineSet
1457 866 m 257
 1114 866 l 257
 749 1180 l 257
 400 868 l 257
 38 868 l 257
 633 1495 l 257
 842 1522 l 257
 1457 866 l 257
EndSplineSet
EndChar
StartChar: underscore
Encoding: 548 95 548
GlifName: underscore
Width: 1100
VWidth: 0
Flags: W
LayerCount: 2
Fore
SplineSet
0 -200 m 257
 1100 -200 l 257
 1100 -455 l 257
 0 -455 l 257
 0 -200 l 257
EndSplineSet
EndChar
StartChar: a
Encoding: 101 97 101
GlifName: a
Width: 1050
VWidth: 0
Flags: W
LayerCount: 2
Fore
SplineSet
973 0 m 257
 634 0 l 257
 634 162 l 257
 514 -12 l 257
 506 -14 506 -14 495 -15.5 c 128
 484 -17 484 -17 463 -17 c 257
 377 -17 377 -17 300 7.5 c 128
 223 32 223 32 165 79.5 c 128
 107 127 107 127 72.5 197 c 128
 38 267 38 267 38 358 c 257
 38 422 38 422 57 474 c 128
 76 526 76 526 109.5 567 c 128
 143 608 143 608 187 638 c 128
 231 668 231 668 281.5 687.5 c 128
 332 707 332 707 385.5 716.5 c 128
 439 726 439 726 490 726 c 257
 535 726 535 726 570.5 723 c 128
 606 720 606 720 633 715 c 257
 632 755 632 755 627 788.5 c 128
 622 822 622 822 609 847 c 128
 596 872 596 872 574 886 c 128
 552 900 552 900 518 900 c 257
 433 900 433 900 355 880.5 c 128
 277 861 277 861 214 838 c 257
 110 1023 l 257
 188 1058 188 1058 263 1079 c 257
 311 1093 311 1093 376.5 1105 c 128
 442 1117 442 1117 527 1117 c 257
 657 1117 657 1117 739.5 1085.5 c 128
 822 1054 822 1054 868.5 996.5 c 128
 915 939 915 939 932.5 858.5 c 128
 950 778 950 778 950 681 c 257
 950 205 l 257
 973 0 l 257
634 515 m 257
 610 518 610 518 581.5 520.5 c 128
 553 523 553 523 527 523 c 257
 491 523 491 523 456.5 513 c 128
 422 503 422 503 395 483 c 128
 368 463 368 463 351 432 c 128
 334 401 334 401 334 359 c 257
 334 325 334 325 345 296 c 128
 356 267 356 267 374 245.5 c 128
 392 224 392 224 414.5 212 c 128
 437 200 437 200 460 200 c 257
 489 200 489 200 515.5 209 c 128
 542 218 542 218 564.5 231.5 c 128
 587 245 587 245 604.5 261 c 128
 622 277 622 277 634 290 c 257
 634 515 l 257
EndSplineSet
EndChar
StartChar: d
Encoding: 214 100 214
GlifName: d
Width: 1200
VWidth: 0
Flags: W
LayerCount: 2
Fore
SplineSet
734 900 m 257
 665 900 l 257
 599 900 599 900 550 869 c 128
 501 838 501 838 469.5 785 c 128
 438 732 438 732 422.5 662 c 128
 407 592 407 592 407 515 c 257
 407 441 407 441 419 383 c 128
 431 325 431 325 452 284 c 128
 473 243 473 243 502.5 221.5 c 128
 532 200 532 200 567 200 c 257
 603 200 603 200 630 210.5 c 128
 657 221 657 221 677 237.5 c 128
 697 254 697 254 711 275 c 128
 725 296 725 296 734 316 c 257
 734 900 l 257
734 0 m 257
 734 162 l 257
 609 -10 l 257
 601 -12 601 -12 594 -13 c 128
 587 -14 587 -14 577.5 -15 c 128
 568 -16 568 -16 554.5 -16.5 c 128
 541 -17 541 -17 520 -17 c 257
 428 -17 428 -17 348 23.5 c 128
 268 64 268 64 209 137 c 128
 150 210 150 210 116 309.5 c 128
 82 409 82 409 82 528 c 257
 82 647 82 647 123 751.5 c 128
 164 856 164 856 240 933.5 c 128
 316 1011 316 1011 423.5 1055.5 c 128
 531 1100 531 1100 664 1100 c 257
 734 1100 l 257
 734 1632 l 257
 1060 1600 l 257
 1060 209 l 257
 1082 0 l 257
 734 0 l 257
EndSplineSet
EndChar
StartChar: e
Encoding: 231 101 231
GlifName: e
Width: 1100
VWidth: 0
Flags: W
LayerCount: 2
Fore
SplineSet
1002 158 m 257
 965 120 965 120 922 88 c 128
 879 56 879 56 827 33 c 128
 775 10 775 10 713 -3 c 128
 651 -16 651 -16 576 -16 c 257
 432 -16 432 -16 330 31 c 128
 228 78 228 78 163.5 156.5 c 128
 99 235 99 235 69.5 337 c 128
 40 439 40 439 40 550 c 257
 40 621 40 621 54 690.5 c 128
 68 760 68 760 96.5 822.5 c 128
 125 885 125 885 167.5 939 c 128
 210 993 210 993 267 1032 c 128
 324 1071 324 1071 395.5 1093.5 c 128
 467 1116 467 1116 553 1116 c 257
 673 1116 673 1116 761 1080.5 c 128
 849 1045 849 1045 906 981.5 c 128
 963 918 963 918 991 829 c 128
 1019 740 1019 740 1019 632 c 257
 1019 605 1019 605 1015.5 561 c 128
 1012 517 1012 517 1007 466 c 257
 337 466 l 257
 339 412 339 412 360 363.5 c 128
 381 315 381 315 415.5 279 c 128
 450 243 450 243 496 221.5 c 128
 542 200 542 200 596 200 c 257
 640 200 640 200 679.5 210 c 128
 719 220 719 220 751.5 234.5 c 128
 784 249 784 249 809 264.5 c 128
 834 280 834 280 848 292 c 257
 1002 158 l 257
735 672 m 257
 735 718 735 718 728 759 c 128
 721 800 721 800 702 831.5 c 128
 683 863 683 863 650.5 881.5 c 128
 618 900 618 900 567 900 c 257
 524 900 524 900 491.5 885 c 128
 459 870 459 870 435.5 847.5 c 128
 412 825 412 825 397 800 c 128
 382 775 382 775 374 756 c 257
 283 653 l 257
 456 671 l 257
 735 672 l 257
EndSplineSet
EndChar
StartChar: f
Encoding: 261 102 261
GlifName: f
Width: 800
VWidth: 0
Flags: W
LayerCount: 2
Fore
SplineSet
10 1100 m 257
 150 1100 l 257
 150 1242 l 257
 150 1330 150 1330 171.5 1399.5 c 128
 193 1469 193 1469 239 1517.5 c 128
 285 1566 285 1566 357.5 1591.5 c 128
 430 1617 430 1617 532 1617 c 257
 584 1617 584 1617 630 1607.5 c 128
 676 1598 676 1598 715.5 1582 c 128
 755 1566 755 1566 788.5 1545 c 128
 822 1524 822 1524 850 1501 c 257
 714 1341 l 257
 676 1368 676 1368 642 1380.5 c 128
 608 1393 608 1393 564 1393 c 257
 520 1393 520 1393 491 1356 c 128
 462 1319 462 1319 462 1233 c 257
 462 1100 l 257
 746 1100 l 257
 719 876 l 257
 476 876 l 257
 476 0 l 257
 150 0 l 257
 150 876 l 257
 10 876 l 257
 10 1100 l 257
EndSplineSet
EndChar
StartChar: g
Encoding: 289 103 289
GlifName: g
Width: 1200
VWidth: 0
Flags: W
LayerCount: 2
Fore
SplineSet
727 16 m 257
 695 2 695 2 646.5 -7.5 c 128
 598 -17 598 -17 540 -17 c 257
 439 -17 439 -17 352 27.5 c 128
 265 72 265 72 201 148.5 c 128
 137 225 137 225 100.5 327.5 c 128
 64 430 64 430 64 545 c 257
 64 662 64 662 97 766 c 128
 130 870 130 870 195 948 c 128
 260 1026 260 1026 357 1071.5 c 128
 454 1117 454 1117 583 1117 c 257
 601 1117 601 1117 613 1116.5 c 128
 625 1116 625 1116 635 1114 c 257
 726 958 l 257
 726 1126 l 257
 1052 1093 l 257
 1052 -41 l 257
 1052 -140 1052 -140 1015.5 -226.5 c 128
 979 -313 979 -313 911 -377.5 c 128
 843 -442 843 -442 745 -479.5 c 128
 647 -517 647 -517 523 -517 c 257
 457 -517 457 -517 404.5 -506.5 c 128
 352 -496 352 -496 307 -476 c 128
 262 -456 262 -456 222.5 -426.5 c 128
 183 -397 183 -397 144 -359 c 257
 288 -192 l 257
 304 -206 304 -206 330 -223 c 128
 356 -240 356 -240 387.5 -256 c 128
 419 -272 419 -272 454.5 -282.5 c 128
 490 -293 490 -293 524 -293 c 257
 566 -293 566 -293 603 -272.5 c 128
 640 -252 640 -252 667.5 -216 c 128
 695 -180 695 -180 711 -131.5 c 128
 727 -83 727 -83 727 -27 c 257
 727 16 l 257
726 820 m 257
 698 852 698 852 660.5 876 c 128
 623 900 623 900 578 900 c 257
 518 900 518 900 481.5 864 c 128
 445 828 445 828 424.5 773.5 c 128
 404 719 404 719 397.5 655 c 128
 391 591 391 591 391 534 c 257
 391 463 391 463 403 402 c 128
 415 341 415 341 436.5 296 c 128
 458 251 458 251 488 225.5 c 128
 518 200 518 200 555 200 c 257
 614 200 614 200 654 225 c 128
 694 250 694 250 726 287 c 257
 726 820 l 257
EndSplineSet
EndChar
StartChar: h
Encoding: 300 104 300
GlifName: h
Width: 1200
VWidth: 0
Flags: W
LayerCount: 2
Fore
SplineSet
446 0 m 257
 120 0 l 257
 120 1379 l 257
 98 1600 l 257
 446 1631 l 257
 446 952 l 257
 566 1107 l 257
 593 1112 593 1112 620.5 1114.5 c 128
 648 1117 648 1117 673 1117 c 257
 761 1117 761 1117 830.5 1090.5 c 128
 900 1064 900 1064 948 1013.5 c 128
 996 963 996 963 1021 888.5 c 128
 1046 814 1046 814 1046 718 c 257
 1046 0 l 257
 720 0 l 257
 720 726 l 257
 720 778 720 778 711.5 812 c 128
 703 846 703 846 689 865.5 c 128
 675 885 675 885 657 892.5 c 128
 639 900 639 900 620 900 c 257
 598 900 598 900 574.5 894 c 128
 551 888 551 888 527.5 877.5 c 128
 504 867 504 867 483 851.5 c 128
 462 836 462 836 446 818 c 257
 446 0 l 257
EndSplineSet
EndChar
StartChar: l
Encoding: 328 108 328
GlifName: l
Width: 700
VWidth: 0
Flags: W
LayerCount: 2
Fore
SplineSet
129 1379 m 257
 108 1600 l 257
 456 1631 l 257
 456 403 l 257
 456 360 456 360 459 324 c 128
 462 288 462 288 471.5 262.5 c 128
 481 237 481 237 499 223 c 128
 517 209 517 209 547 209 c 257
 561 209 561 209 575.5 211.5 c 128
 590 214 590 214 603.5 218 c 128
 617 222 617 222 628 225.5 c 128
 639 229 639 229 646 232 c 257
 702 35 l 257
 691 29 691 29 671 20.5 c 128
 651 12 651 12 624 3.5 c 128
 597 -5 597 -5 563.5 -11 c 128
 530 -17 530 -17 493 -17 c 257
 382 -17 382 -17 311 15.5 c 128
 240 48 240 48 199.5 105.5 c 128
 159 163 159 163 144 241.5 c 128
 129 320 129 320 129 411 c 257
 129 1379 l 257
EndSplineSet
EndChar
StartChar: n
Encoding: 357 110 357
GlifName: n
Width: 1200
VWidth: 0
Flags: W
LayerCount: 2
Fore
SplineSet
456 1126 m 257
 456 937 l 257
 546 1088 l 257
 578 1099 578 1099 611.5 1108 c 128
 645 1117 645 1117 680 1117 c 257
 723 1117 723 1117 763.5 1114.5 c 128
 804 1112 804 1112 841 1102.5 c 128
 878 1093 878 1093 911 1074.5 c 128
 944 1056 944 1056 973 1024 c 257
 1004 990 1004 990 1021 950 c 128
 1038 910 1038 910 1045.5 870.5 c 128
 1053 831 1053 831 1054.5 793.5 c 128
 1056 756 1056 756 1056 727 c 257
 1056 0 l 257
 730 0 l 257
 730 757 l 257
 730 798 730 798 722.5 825.5 c 128
 715 853 715 853 702 869.5 c 128
 689 886 689 886 670.5 893 c 128
 652 900 652 900 630 900 c 257
 613 900 613 900 591.5 894 c 128
 570 888 570 888 547 877.5 c 128
 524 867 524 867 500.5 851 c 128
 477 835 477 835 456 816 c 257
 456 0 l 257
 130 0 l 257
 130 1093 l 257
 456 1126 l 257
EndSplineSet
EndChar
StartChar: p
Encoding: 397 112 397
GlifName: p
Width: 1200
VWidth: 0
Flags: W
LayerCount: 2
Fore
SplineSet
476 200 m 257
 554 200 l 257
 621 200 621 200 674 229.5 c 128
 727 259 727 259 764 310 c 128
 801 361 801 361 820.5 429.5 c 128
 840 498 840 498 840 576 c 257
 840 657 840 657 823.5 718 c 128
 807 779 807 779 781.5 819.5 c 128
 756 860 756 860 724.5 880 c 128
 693 900 693 900 663 900 c 257
 636 900 636 900 609.5 892 c 128
 583 884 583 884 559 871.5 c 128
 535 859 535 859 514 843 c 128
 493 827 493 827 476 811 c 257
 476 200 l 257
150 -500 m 257
 150 1093 l 257
 476 1126 l 257
 476 944 l 257
 600 1110 l 257
 621 1113 621 1113 643.5 1115 c 128
 666 1117 666 1117 690 1117 c 257
 783 1117 783 1117 864.5 1078 c 128
 946 1039 946 1039 1006.5 966.5 c 128
 1067 894 1067 894 1102.5 792 c 128
 1138 690 1138 690 1138 564 c 257
 1138 441 1138 441 1095.5 337.5 c 128
 1053 234 1053 234 974.5 159 c 128
 896 84 896 84 785 42 c 128
 674 0 674 0 537 0 c 257
 476 0 l 257
 476 -500 l 257
 150 -500 l 257
EndSplineSet
EndChar
StartChar: q
Encoding: 435 113 435
GlifName: q
Width: 1200
VWidth: 0
Flags: W
LayerCount: 2
Fore
SplineSet
718 891 m 257
 688 895 688 895 655.5 897.5 c 128
 623 900 623 900 593 900 c 257
 551 900 551 900 519 884 c 128
 487 868 487 868 463 841 c 128
 439 814 439 814 422.5 777.5 c 128
 406 741 406 741 396 699.5 c 128
 386 658 386 658 381.5 613.5 c 128
 377 569 377 569 377 526 c 257
 377 442 377 442 390 381 c 128
 403 320 403 320 424 279.5 c 128
 445 239 445 239 472 219.5 c 128
 499 200 499 200 527 200 c 257
 548 200 548 200 572 207.5 c 128
 596 215 596 215 621 227 c 128
 646 239 646 239 670.5 255 c 128
 695 271 695 271 718 288 c 257
 718 891 l 257
718 136 m 257
 601 -8 l 257
 553 -17 553 -17 509 -17 c 257
 417 -17 417 -17 335 20.5 c 128
 253 58 253 58 191 128 c 128
 129 198 129 198 92.5 299 c 128
 56 400 56 400 56 526 c 257
 56 663 56 663 96 772.5 c 128
 136 882 136 882 207.5 958.5 c 128
 279 1035 279 1035 378.5 1076 c 128
 478 1117 478 1117 597 1117 c 257
 661 1117 661 1117 729 1108 c 128
 797 1099 797 1099 858.5 1086.5 c 128
 920 1074 920 1074 969 1060.5 c 128
 1018 1047 1018 1047 1044 1038 c 257
 1044 -500 l 257
 718 -500 l 257
 718 136 l 257
EndSplineSet
EndChar
StartChar: t
Encoding: 511 116 511
GlifName: t
Width: 800
VWidth: 0
Flags: W
LayerCount: 2
Fore
SplineSet
466 388 m 257
 466 337 466 337 469 302.5 c 128
 472 268 472 268 479.5 247 c 128
 487 226 487 226 499 217 c 128
 511 208 511 208 529 208 c 257
 550 208 550 208 569 212 c 128
 588 216 588 216 603 221 c 257
 621 227 621 227 636 235 c 257
 731 72 l 257
 719 60 719 60 694.5 44.5 c 128
 670 29 670 29 637 15.5 c 128
 604 2 604 2 563.5 -7 c 128
 523 -16 523 -16 480 -16 c 257
 372 -16 372 -16 307 18 c 128
 242 52 242 52 207 110 c 128
 172 168 172 168 161 245.5 c 128
 150 323 150 323 150 410 c 257
 150 876 l 257
 0 876 l 257
 0 1100 l 257
 150 1100 l 257
 150 1279 l 257
 462 1463 l 257
 462 1100 l 257
 752 1100 l 257
 725 876 l 257
 466 876 l 257
 466 388 l 257
EndSplineSet
EndChar
StartChar: u
Encoding: 542 117 542
GlifName: u
Width: 1200
VWidth: 0
Flags: W
LayerCount: 2
Fore
SplineSet
729 1093 m 257
 1055 1126 l 257
 1055 0 l 257
 729 0 l 257
 729 163 l 257
 618 11 l 257
 598 2 598 2 559 -7.5 c 128
 520 -17 520 -17 479 -17 c 257
 385 -17 385 -17 319 13 c 128
 253 43 253 43 211 96.5 c 128
 169 150 169 150 149.5 223.5 c 128
 130 297 130 297 130 384 c 257
 130 1093 l 257
 456 1126 l 257
 456 384 l 257
 456 301 456 301 480 250.5 c 128
 504 200 504 200 560 200 c 257
 579 200 579 200 601.5 206.5 c 128
 624 213 624 213 646 224 c 128
 668 235 668 235 689.5 248.5 c 128
 711 262 711 262 729 276 c 257
 729 1093 l 257
EndSplineSet
EndChar
StartChar: v
Encoding: 555 118 555
GlifName: v
Width: 1100
VWidth: 0
Flags: W
LayerCount: 2
Fore
SplineSet
462 700 m 257
 536 300 l 257
 608 700 l 257
 737 1093 l 257
 1054 1129 l 257
 679 -24 l 257
 362 5 l 257
 10 1093 l 257
 325 1125 l 257
 462 700 l 257
EndSplineSet
EndChar
StartChar: bar
Encoding: 145 124 145
GlifName: bar
Width: 400
VWidth: 0
Flags: W
LayerCount: 2
Fore
SplineSet
366 1527 m 257
 366 -380 l 257
 24 -380 l 257
 24 1493 l 257
 366 1527 l 257
EndSplineSet
EndChar
StartChar: braceright
Encoding: 169 125 169
GlifName: braceright
Width: 1200
VWidth: 0
Flags: W
LayerCount: 2
Fore
SplineSet
200 1445 m 257
 233 1461 233 1461 263.5 1474 c 128
 294 1487 294 1487 328 1496.5 c 128
 362 1506 362 1506 402.5 1511.5 c 128
 443 1517 443 1517 495 1517 c 257
 608 1517 608 1517 683 1485 c 128
 758 1453 758 1453 802.5 1397 c 128
 847 1341 847 1341 865.5 1264.5 c 128
 884 1188 884 1188 884 1099 c 257
 884 864 l 257
 884 776 884 776 899.5 723.5 c 128
 915 671 915 671 961 660 c 257
 1099 640 l 257
 1099 462 l 257
 961 442 l 257
 915 432 915 432 899.5 379.5 c 128
 884 327 884 327 884 238 c 257
 884 -2 l 257
 884 -91 884 -91 865.5 -167.5 c 128
 847 -244 847 -244 802.5 -300 c 128
 758 -356 758 -356 683 -388 c 128
 608 -420 608 -420 495 -420 c 257
 443 -420 443 -420 402.5 -414.5 c 128
 362 -409 362 -409 328 -399.5 c 128
 294 -390 294 -390 263.5 -376.5 c 128
 233 -363 233 -363 200 -348 c 257
 296 -163 l 257
 330 -183 330 -183 373.5 -195.5 c 128
 417 -208 417 -208 452 -208 c 257
 482 -208 482 -208 500 -194 c 128
 518 -180 518 -180 527 -153 c 128
 536 -126 536 -126 539 -88 c 128
 542 -50 542 -50 542 -2 c 257
 542 238 l 257
 542 293 542 293 557.5 341.5 c 128
 573 390 573 390 597 430 c 128
 621 470 621 470 650 500 c 128
 679 530 679 530 706 550 c 257
 679 570 679 570 650 600.5 c 128
 621 631 621 631 597 670.5 c 128
 573 710 573 710 557.5 759 c 128
 542 808 542 808 542 864 c 257
 542 1099 l 257
 542 1147 542 1147 539 1184.5 c 128
 536 1222 536 1222 527 1248 c 128
 518 1274 518 1274 500 1288.5 c 128
 482 1303 482 1303 452 1305 c 257
 417 1305 417 1305 373.5 1292.5 c 128
 330 1280 330 1280 296 1260 c 257
 200 1445 l 257
EndSplineSet
EndChar
StartChar: cent
Encoding: 182 162 182
GlifName: cent
Width: 1000
VWidth: 0
Flags: W
LayerCount: 2
Fore
SplineSet
788 814 m 257
 764 837 764 837 742 852 c 128
 720 867 720 867 700 877 c 257
 700 223 l 257
 766 249 766 249 822 288 c 257
 934 93 l 257
 883 58 883 58 824.5 32.5 c 128
 766 7 766 7 700 -5 c 257
 700 -190 l 257
 410 -190 l 257
 410 6 l 257
 317 34 317 34 247 90.5 c 128
 177 147 177 147 130 222.5 c 128
 83 298 83 298 59.5 388.5 c 128
 36 479 36 479 36 575 c 257
 36 662 36 662 58.5 744.5 c 128
 81 827 81 827 127.5 896.5 c 128
 174 966 174 966 244 1017.5 c 128
 314 1069 314 1069 410 1095 c 257
 410 1302 l 257
 700 1340 l 257
 700 1105 l 257
 767 1090 767 1090 825.5 1055.5 c 128
 884 1021 884 1021 939 961 c 257
 788 814 l 257
320 563 m 257
 320 436 320 436 355.5 353.5 c 128
 391 271 391 271 458 232 c 257
 458 873 l 257
 393 840 393 840 356.5 764.5 c 128
 320 689 320 689 320 563 c 257
EndSplineSet
EndChar
StartChar: section
Encoding: 468 167 468
GlifName: section
Width: 1000
VWidth: 0
Flags: W
LayerCount: 2
Fore
SplineSet
778 1249 m 257
 736 1272 736 1272 703 1285.5 c 128
 670 1299 670 1299 642 1306.5 c 128
 614 1314 614 1314 591 1316 c 128
 568 1318 568 1318 547 1318 c 257
 516 1318 516 1318 488 1310.5 c 128
 460 1303 460 1303 438.5 1286 c 128
 417 1269 417 1269 404.5 1241.5 c 128
 392 1214 392 1214 392 1174 c 257
 392 1135 392 1135 407.5 1105 c 128
 423 1075 423 1075 448.5 1050 c 128
 474 1025 474 1025 507.5 1002.5 c 128
 541 980 541 980 577 958 c 257
 637 921 637 921 697 880 c 128
 757 839 757 839 805.5 788 c 128
 854 737 854 737 884.5 673.5 c 128
 915 610 915 610 915 527 c 257
 915 479 915 479 900.5 433.5 c 128
 886 388 886 388 860 350 c 128
 834 312 834 312 799 282 c 128
 764 252 764 252 723 234 c 257
 760 205 760 205 791.5 173 c 128
 823 141 823 141 846 106 c 128
 869 71 869 71 882.5 33 c 128
 896 -5 896 -5 896 -46 c 257
 896 -128 896 -128 865.5 -193.5 c 128
 835 -259 835 -259 776.5 -305 c 128
 718 -351 718 -351 633.5 -375.5 c 128
 549 -400 549 -400 441 -400 c 257
 394 -400 394 -400 350 -395 c 128
 306 -390 306 -390 262.5 -378 c 128
 219 -366 219 -366 176 -347 c 128
 133 -328 133 -328 87 -299 c 257
 193 -129 l 257
 235 -152 235 -152 268 -166 c 128
 301 -180 301 -180 329 -187.5 c 128
 357 -195 357 -195 380 -197.5 c 128
 403 -200 403 -200 424 -200 c 257
 455 -200 455 -200 483 -192 c 128
 511 -184 511 -184 532 -166.5 c 128
 553 -149 553 -149 565.5 -121 c 128
 578 -93 578 -93 578 -54 c 257
 578 -15 578 -15 563 15 c 128
 548 45 548 45 522.5 70.5 c 128
 497 96 497 96 463.5 118 c 128
 430 140 430 140 394 163 c 257
 334 200 334 200 274 240.5 c 128
 214 281 214 281 165.5 332 c 128
 117 383 117 383 86.5 446.5 c 128
 56 510 56 510 56 593 c 257
 56 645 56 645 71 689 c 128
 86 733 86 733 112 769 c 128
 138 805 138 805 172.5 833.5 c 128
 207 862 207 862 247 885 c 257
 210 915 210 915 178.5 947 c 128
 147 979 147 979 124 1014 c 128
 101 1049 101 1049 88 1087 c 128
 75 1125 75 1125 75 1166 c 257
 75 1248 75 1248 105.5 1313 c 128
 136 1378 136 1378 194.5 1423.5 c 128
 253 1469 253 1469 337.5 1493 c 128
 422 1517 422 1517 530 1517 c 257
 576 1517 576 1517 620 1512.5 c 128
 664 1508 664 1508 707 1496.5 c 128
 750 1485 750 1485 793.5 1466 c 128
 837 1447 837 1447 883 1419 c 257
 778 1249 l 257
438 747 m 257
 426 737 l 257
 415 728 415 728 403 714.5 c 128
 391 701 391 701 381.5 683.5 c 128
 372 666 372 666 365.5 644 c 128
 359 622 359 622 359 595 c 257
 359 561 359 561 372.5 532 c 128
 386 503 386 503 407.5 477.5 c 128
 429 452 429 452 456 429.5 c 128
 483 407 483 407 511 387 c 257
 533 372 l 257
 545 383 l 257
 556 392 556 392 568 405.5 c 128
 580 419 580 419 589.5 437 c 128
 599 455 599 455 605.5 477 c 128
 612 499 612 499 612 525 c 257
 612 558 612 558 598.5 587 c 128
 585 616 585 616 563.5 641.5 c 128
 542 667 542 667 515 689 c 128
 488 711 488 711 461 731 c 257
 438 747 l 257
EndSplineSet
EndChar
StartChar: copyright
Encoding: 210 169 210
GlifName: copyright
Width: 1100
VWidth: 0
Flags: W
LayerCount: 2
Fore
SplineSet
550 1517 m 257
 647 1517 647 1517 732.5 1480 c 128
 818 1443 818 1443 882 1379 c 128
 946 1315 946 1315 983 1229.5 c 128
 1020 1144 1020 1144 1020 1047 c 257
 1020 949 1020 949 983 863.5 c 128
 946 778 946 778 882 714.5 c 128
 818 651 818 651 732.5 614 c 128
 647 577 647 577 550 577 c 257
 453 577 453 577 367.5 614 c 128
 282 651 282 651 218 714.5 c 128
 154 778 154 778 117 863.5 c 128
 80 949 80 949 80 1047 c 257
 80 1144 80 1144 117 1229.5 c 128
 154 1315 154 1315 218 1379 c 128
 282 1443 282 1443 367.5 1480 c 128
 453 1517 453 1517 550 1517 c 257
550 701 m 257
 620 701 620 701 682.5 728.5 c 128
 745 756 745 756 792.5 803 c 128
 840 850 840 850 868 913 c 128
 896 976 896 976 896 1047 c 257
 896 1119 896 1119 869 1182 c 128
 842 1245 842 1245 795 1292 c 128
 748 1339 748 1339 685 1366 c 128
 622 1393 622 1393 550 1393 c 257
 478 1393 478 1393 415 1366 c 128
 352 1339 352 1339 305 1292 c 128
 258 1245 258 1245 231 1182 c 128
 204 1119 204 1119 204 1047 c 257
 204 977 204 977 231.5 914.5 c 128
 259 852 259 852 306 804.5 c 128
 353 757 353 757 416 729 c 128
 479 701 479 701 550 701 c 257
651 1165 m 257
 636 1178 636 1178 622 1186 c 128
 608 1194 608 1194 595.5 1198 c 128
 583 1202 583 1202 571 1203 c 128
 559 1204 559 1204 547 1204 c 257
 518 1204 518 1204 497.5 1191.5 c 128
 477 1179 477 1179 464.5 1158 c 128
 452 1137 452 1137 446 1109.5 c 128
 440 1082 440 1082 440 1052 c 257
 440 1021 440 1021 445.5 991.5 c 128
 451 962 451 962 464 939 c 128
 477 916 477 916 498.5 902.5 c 128
 520 889 520 889 552 889 c 257
 565 889 565 889 580 892 c 128
 595 895 595 895 610 900.5 c 128
 625 906 625 906 640 913 c 128
 655 920 655 920 668 929 c 257
 724 841 l 257
 687 818 687 818 642.5 804.5 c 128
 598 791 598 791 545 791 c 257
 478 791 478 791 427.5 813.5 c 128
 377 836 377 836 343 873 c 128
 309 910 309 910 292 958 c 128
 275 1006 275 1006 275 1058 c 257
 275 1105 275 1105 291.5 1149 c 128
 308 1193 308 1193 341.5 1227 c 128
 375 1261 375 1261 426.5 1281.5 c 128
 478 1302 478 1302 548 1302 c 257
 602 1302 602 1302 645 1286 c 128
 688 1270 688 1270 726 1231 c 257
 651 1165 l 257
EndSplineSet
EndChar
StartChar: ordfeminine
Encoding: 393 170 393
GlifName: ordfeminine
Width: 800
VWidth: 0
Flags: W
LayerCount: 2
Fore
SplineSet
70 800 m 257
 530 800 l 257
 530 650 l 257
 70 650 l 257
 70 800 l 257
538 931 m 257
 369 931 l 257
 369 1012 l 257
 309 925 l 257
 305 924 305 924 299.5 923 c 128
 294 922 294 922 283 922 c 257
 240 922 240 922 201.5 934.5 c 128
 163 947 163 947 134 970.5 c 128
 105 994 105 994 88 1029 c 128
 71 1064 71 1064 71 1110 c 257
 71 1142 71 1142 80.5 1168 c 128
 90 1194 90 1194 106.5 1214.5 c 128
 123 1235 123 1235 145 1250 c 128
 167 1265 167 1265 192.5 1274.5 c 128
 218 1284 218 1284 244.5 1289 c 128
 271 1294 271 1294 297 1294 c 257
 319 1294 319 1294 337 1292.5 c 128
 355 1291 355 1291 368 1288 c 257
 368 1308 368 1308 365.5 1325 c 128
 363 1342 363 1342 356.5 1354.5 c 128
 350 1367 350 1367 339 1374 c 128
 328 1381 328 1381 311 1381 c 257
 268 1381 268 1381 229 1371 c 128
 190 1361 190 1361 159 1350 c 257
 107 1442 l 257
 146 1460 146 1460 183 1470 c 257
 207 1477 207 1477 240 1483 c 128
 273 1489 273 1489 315 1489 c 257
 380 1489 380 1489 421.5 1473.5 c 128
 463 1458 463 1458 486 1429 c 128
 509 1400 509 1400 518 1360 c 128
 527 1320 527 1320 527 1271 c 257
 527 1033 l 257
 538 931 l 257
369 1188 m 257
 357 1190 357 1190 342.5 1191 c 128
 328 1192 328 1192 315 1192 c 257
 297 1192 297 1192 280 1187 c 128
 263 1182 263 1182 249.5 1172 c 128
 236 1162 236 1162 227.5 1146.5 c 128
 219 1131 219 1131 219 1110 c 257
 219 1093 219 1093 224.5 1078.5 c 128
 230 1064 230 1064 239 1053.5 c 128
 248 1043 248 1043 259 1037 c 128
 270 1031 270 1031 282 1031 c 257
 296 1031 296 1031 309.5 1035.5 c 128
 323 1040 323 1040 334 1046.5 c 128
 345 1053 345 1053 354 1061 c 128
 363 1069 363 1069 369 1076 c 257
 369 1188 l 257
EndSplineSet
EndChar
StartChar: logicalnot
Encoding: 341 172 341
GlifName: logicalnot
Width: 1700
VWidth: 0
Flags: W
LayerCount: 2
Fore
SplineSet
1461 827 m 257
 1442 586 l 257
 1442 258 l 257
 1100 258 l 257
 1100 459 l 257
 1112 600 l 257
 162 600 l 257
 162 827 l 257
 1461 827 l 257
EndSplineSet
EndChar
StartChar: threesuperior
Encoding: 526 179 526
GlifName: threesuperior
Width: 600
VWidth: 0
Flags: W
LayerCount: 2
Fore
SplineSet
130 1189 m 257
 145 1199 145 1199 165.5 1214 c 128
 186 1229 186 1229 209 1247 c 128
 232 1265 232 1265 256.5 1285 c 128
 281 1305 281 1305 303 1325.5 c 128
 325 1346 325 1346 343.5 1367 c 128
 362 1388 362 1388 374 1407 c 257
 244 1370 l 257
 79 1370 l 257
 89 1470 l 257
 510 1470 l 257
 510 1383 l 257
 495 1344 495 1344 466 1311 c 128
 437 1278 437 1278 401 1246 c 257
 323 1204 l 257
 376 1204 376 1204 419 1190.5 c 128
 462 1177 462 1177 492.5 1151.5 c 128
 523 1126 523 1126 540 1089 c 128
 557 1052 557 1052 557 1006 c 257
 557 957 557 957 536.5 916.5 c 128
 516 876 516 876 481 844 c 128
 446 812 446 812 398.5 788.5 c 128
 351 765 351 765 297.5 750 c 128
 244 735 244 735 186.5 727.5 c 128
 129 720 129 720 74 720 c 257
 74 820 l 257
 133 822 133 822 189 835.5 c 128
 245 849 245 849 289 872 c 128
 333 895 333 895 359.5 928 c 128
 386 961 386 961 386 1001 c 257
 386 1030 386 1030 374 1050 c 128
 362 1070 362 1070 341 1082 c 128
 320 1094 320 1094 292 1099.5 c 128
 264 1105 264 1105 233 1105 c 257
 226 1105 226 1105 211.5 1104 c 128
 197 1103 197 1103 181.5 1102.5 c 128
 166 1102 166 1102 151.5 1101 c 128
 137 1100 137 1100 130 1100 c 257
 130 1189 l 257
EndSplineSet
EndChar
StartChar: paragraph
Encoding: 400 182 400
GlifName: paragraph
Width: 1400
VWidth: 0
Flags: W
LayerCount: 2
Fore
SplineSet
1032 1298 m 257
 898 1298 l 257
 898 -400 l 257
 629 -400 l 257
 629 604 l 257
 552 614 552 614 477.5 643 c 128
 403 672 403 672 344.5 724.5 c 128
 286 777 286 777 250 857 c 128
 214 937 214 937 214 1050 c 257
 214 1137 214 1137 236 1204.5 c 128
 258 1272 258 1272 296 1322 c 128
 334 1372 334 1372 385 1406 c 128
 436 1440 436 1440 493 1461 c 128
 550 1482 550 1482 610.5 1491 c 128
 671 1500 671 1500 729 1500 c 257
 1299 1500 l 257
 1299 -400 l 257
 1032 -400 l 257
 1032 1298 l 257
EndSplineSet
EndChar
StartChar: onesuperior
Encoding: 391 185 391
GlifName: onesuperior
Width: 600
VWidth: 0
Flags: W
LayerCount: 2
Fore
SplineSet
266 1160 m 257
 303 1341 l 257
 189 1206 l 257
 147 1169 l 257
 70 1261 l 257
 310 1482 l 257
 431 1466 l 257
 431 820 l 257
 553 820 l 257
 553 720 l 257
 144 720 l 257
 144 820 l 257
 266 820 l 257
 266 1160 l 257
EndSplineSet
EndChar
StartChar: ordmasculine
Encoding: 394 186 394
GlifName: ordmasculine
Width: 800
VWidth: 0
Flags: W
LayerCount: 2
Fore
SplineSet
70 800 m 257
 530 800 l 257
 530 650 l 257
 70 650 l 257
 70 800 l 257
312 922 m 257
 252 922 252 922 202.5 944 c 128
 153 966 153 966 117 1004 c 128
 81 1042 81 1042 61.5 1094 c 128
 42 1146 42 1146 42 1207 c 257
 42 1268 42 1268 61 1319.5 c 128
 80 1371 80 1371 115 1409 c 128
 150 1447 150 1447 200 1468 c 128
 250 1489 250 1489 312 1489 c 257
 372 1489 372 1489 421.5 1468 c 128
 471 1447 471 1447 507 1409 c 128
 543 1371 543 1371 562.5 1319.5 c 128
 582 1268 582 1268 582 1207 c 257
 582 1146 582 1146 563 1094 c 128
 544 1042 544 1042 509 1004 c 128
 474 966 474 966 424 944 c 128
 374 922 374 922 312 922 c 257
419 1195 m 257
 419 1229 419 1229 413 1262 c 128
 407 1295 407 1295 394 1321 c 128
 381 1347 381 1347 360 1363 c 128
 339 1379 339 1379 310 1379 c 257
 282 1379 282 1379 262 1365.5 c 128
 242 1352 242 1352 229.5 1329 c 128
 217 1306 217 1306 211 1276.5 c 128
 205 1247 205 1247 205 1216 c 257
 205 1182 205 1182 211 1149 c 128
 217 1116 217 1116 230 1090 c 128
 243 1064 243 1064 263.5 1048 c 128
 284 1032 284 1032 313 1032 c 257
 341 1032 341 1032 361 1046 c 128
 381 1060 381 1060 394 1083 c 128
 407 1106 407 1106 413 1135 c 128
 419 1164 419 1164 419 1195 c 257
EndSplineSet
EndChar
StartChar: onehalf
Encoding: 386 189 386
GlifName: onehalf
Width: 1500
VWidth: 0
Flags: W
LayerCount: 2
Fore
SplineSet
474 0 m 257
 289 0 l 257
 1064 1500 l 257
 1240 1500 l 257
 474 0 l 257
284 1162 m 257
 321 1343 l 257
 207 1208 l 257
 165 1171 l 257
 88 1263 l 257
 328 1484 l 257
 449 1468 l 257
 449 822 l 257
 571 822 l 257
 571 722 l 257
 162 722 l 257
 162 822 l 257
 284 822 l 257
 284 1162 l 257
904 38 m 257
 904 133 l 257
 927 170 927 170 958 210.5 c 128
 989 251 989 251 1021.5 290.5 c 128
 1054 330 1054 330 1085 365 c 128
 1116 400 1116 400 1139 425 c 257
 1166 454 1166 454 1185 474 c 128
 1204 494 1204 494 1215.5 511 c 128
 1227 528 1227 528 1232.5 545.5 c 128
 1238 563 1238 563 1238 586 c 257
 1238 605 1238 605 1231.5 623 c 128
 1225 641 1225 641 1213.5 655.5 c 128
 1202 670 1202 670 1186 679 c 128
 1170 688 1170 688 1149 688 c 257
 1108 688 1108 688 1077 660.5 c 128
 1046 633 1046 633 1022 586 c 257
 906 629 l 257
 920 668 920 668 943 698.5 c 128
 966 729 966 729 997.5 751 c 128
 1029 773 1029 773 1068.5 784.5 c 128
 1108 796 1108 796 1157 796 c 257
 1214 796 1214 796 1258.5 777.5 c 128
 1303 759 1303 759 1333.5 728.5 c 128
 1364 698 1364 698 1380 659 c 128
 1396 620 1396 620 1396 581 c 257
 1396 546 1396 546 1385 516.5 c 128
 1374 487 1374 487 1355.5 459.5 c 128
 1337 432 1337 432 1313.5 405 c 128
 1290 378 1290 378 1265 348 c 257
 1240 318 1240 318 1213.5 287 c 128
 1187 256 1187 256 1162.5 228 c 128
 1138 200 1138 200 1118.5 176.5 c 128
 1099 153 1099 153 1088 138 c 257
 1409 138 l 257
 1409 38 l 257
 904 38 l 257
EndSplineSet
EndChar
StartChar: AE
Encoding: 2 198 2
GlifName: A_E_
Width: 1700
VWidth: 0
Flags: W
LayerCount: 2
Fore
SplineSet
1663 228 m 257
 1635 0 l 257
 682 0 l 257
 700 231 l 257
 700 427 l 257
 457 427 l 257
 286 0 l 257
 -22 0 l 257
 493 1280 l 257
 542 1500 l 257
 1626 1500 l 257
 1626 1272 l 257
 1030 1272 l 257
 1047 1133 l 257
 1047 916 l 257
 1558 916 l 257
 1558 703 l 257
 1047 703 l 257
 1047 360 l 257
 1039 228 l 257
 1663 228 l 257
700 645 m 257
 700 1200 l 257
 650 939 l 257
 545 645 l 257
 700 645 l 257
EndSplineSet
EndChar
StartChar: Oslash
Encoding: 63 216 63
GlifName: O_slash
Width: 1600
VWidth: 0
Flags: W
LayerCount: 2
Fore
SplineSet
383 -100 m 257
 30 -100 l 257
 1182 1600 l 257
 1526 1600 l 257
 383 -100 l 257
799 21 m 257
 632 21 632 21 499 79 c 128
 366 137 366 137 273 239.5 c 128
 180 342 180 342 130.5 482.5 c 128
 81 623 81 623 81 788 c 257
 81 953 81 953 129 1093.5 c 128
 177 1234 177 1234 268.5 1336.5 c 128
 360 1439 360 1439 494 1497 c 128
 628 1555 628 1555 799 1555 c 257
 966 1555 966 1555 1099 1497 c 128
 1232 1439 1232 1439 1324.5 1336.5 c 128
 1417 1234 1417 1234 1466.5 1093.5 c 128
 1516 953 1516 953 1516 788 c 257
 1516 623 1516 623 1468 482.5 c 128
 1420 342 1420 342 1328.5 239.5 c 128
 1237 137 1237 137 1103.5 79 c 128
 970 21 970 21 799 21 c 257
1167 759 m 257
 1167 865 1167 865 1147 964 c 128
 1127 1063 1127 1063 1082 1139 c 128
 1037 1215 1037 1215 966 1261 c 128
 895 1307 895 1307 793 1307 c 257
 697 1307 697 1307 628 1266.5 c 128
 559 1226 559 1226 515 1158.5 c 128
 471 1091 471 1091 450.5 1003 c 128
 430 915 430 915 430 821 c 257
 430 713 430 713 450.5 613.5 c 128
 471 514 471 514 516 437.5 c 128
 561 361 561 361 632 315 c 128
 703 269 703 269 804 269 c 257
 900 269 900 269 968.5 310.5 c 128
 1037 352 1037 352 1081.5 420.5 c 128
 1126 489 1126 489 1146.5 577 c 128
 1167 665 1167 665 1167 759 c 257
EndSplineSet
EndChar
StartChar: ae
Encoding: 107 230 107
GlifName: ae
Width: 1700
VWidth: 0
Flags: W
LayerCount: 2
Fore
SplineSet
1588 632 m 257
 1588 605 1588 605 1585 561 c 128
 1582 517 1582 517 1576 466 c 257
 912 466 l 257
 916 412 916 412 938 363.5 c 128
 960 315 960 315 995.5 279 c 128
 1031 243 1031 243 1076.5 221.5 c 128
 1122 200 1122 200 1175 200 c 257
 1244 200 1244 200 1303 226 c 128
 1362 252 1362 252 1418 292 c 257
 1571 157 l 257
 1535 119 1535 119 1493 87 c 128
 1451 55 1451 55 1400 32 c 128
 1349 9 1349 9 1287.5 -4 c 128
 1226 -17 1226 -17 1151 -17 c 257
 1115 -17 1115 -17 1075.5 -12.5 c 128
 1036 -8 1036 -8 997.5 1 c 128
 959 10 959 10 924 23.5 c 128
 889 37 889 37 862 55 c 257
 799 200 l 257
 780 114 l 257
 756 96 756 96 721 73.5 c 128
 686 51 686 51 642 31 c 128
 598 11 598 11 547.5 -3 c 128
 497 -17 497 -17 443 -17 c 257
 358 -17 358 -17 282.5 7.5 c 128
 207 32 207 32 150.5 79.5 c 128
 94 127 94 127 61 197 c 128
 28 267 28 267 28 358 c 257
 28 454 28 454 68 523.5 c 128
 108 593 108 593 172 638 c 128
 236 683 236 683 314.5 704.5 c 128
 393 726 393 726 470 726 c 257
 513 726 513 726 549 722.5 c 128
 585 719 585 719 614 714 c 257
 613 754 613 754 607.5 788 c 128
 602 822 602 822 589.5 847 c 128
 577 872 577 872 555 886 c 128
 533 900 533 900 498 900 c 257
 439 900 439 900 385 890 c 128
 331 880 331 880 289 868 c 257
 240 854 240 854 196 837 c 257
 92 1021 l 257
 149 1048 149 1048 216 1069 c 257
 273 1087 273 1087 348 1102 c 128
 423 1117 423 1117 507 1117 c 257
 622 1117 622 1117 701 1090 c 128
 780 1063 780 1063 829 1019 c 257
 886 1061 886 1061 959 1088.5 c 128
 1032 1116 1032 1116 1127 1116 c 257
 1247 1116 1247 1116 1334 1081 c 128
 1421 1046 1421 1046 1477.5 982 c 128
 1534 918 1534 918 1561 829 c 128
 1588 740 1588 740 1588 632 c 257
615 516 m 257
 592 519 592 519 564.5 521 c 128
 537 523 537 523 507 523 c 257
 471 523 471 523 436.5 513 c 128
 402 503 402 503 375 483 c 128
 348 463 348 463 331 432 c 128
 314 401 314 401 314 359 c 257
 314 325 314 325 325.5 295.5 c 128
 337 266 337 266 356 244.5 c 128
 375 223 375 223 399.5 210.5 c 128
 424 198 424 198 451 198 c 257
 483 198 483 198 512 212 c 128
 541 226 541 226 564 243 c 257
 590 263 590 263 615 289 c 257
 615 516 l 257
1036 671 m 257
 1319 671 l 257
 1319 716 1319 716 1309 758 c 128
 1299 800 1299 800 1278 832 c 128
 1257 864 1257 864 1223 883.5 c 128
 1189 903 1189 903 1141 903 c 257
 1099 903 1099 903 1067.5 888 c 128
 1036 873 1036 873 1013.5 851 c 128
 991 829 991 829 976.5 803 c 128
 962 777 962 777 954 756 c 257
 863 653 l 257
 1036 671 l 257
EndSplineSet
EndChar
StartChar: idieresis
Encoding: 315 239 315
GlifName: idieresis
Width: 600
VWidth: 0
Flags: W
LayerCount: 2
Fore
SplineSet
448 0 m 257
 122 0 l 257
 122 1052 l 257
 448 1084 l 257
 448 0 l 257
-46 1537 m 257
 230 1537 l 257
 230 1271 l 257
 -46 1271 l 257
 -46 1537 l 257
354 1537 m 257
 630 1537 l 257
 630 1271 l 257
 354 1271 l 257
 354 1537 l 257
EndSplineSet
EndChar
StartChar: divide
Encoding: 224 247 224
GlifName: divide
Width: 1100
VWidth: 0
Flags: W
LayerCount: 2
Fore
SplineSet
409 287 m 257
 409 316 409 316 420 341.5 c 128
 431 367 431 367 450.5 386.5 c 128
 470 406 470 406 495 417 c 128
 520 428 520 428 549 428 c 257
 578 428 578 428 603 417 c 128
 628 406 628 406 647.5 386.5 c 128
 667 367 667 367 678 341.5 c 128
 689 316 689 316 689 287 c 257
 689 259 689 259 678 233 c 128
 667 207 667 207 648.5 187.5 c 128
 630 168 630 168 604.5 156 c 128
 579 144 579 144 550 144 c 257
 522 144 522 144 496 156 c 128
 470 168 470 168 450.5 187.5 c 128
 431 207 431 207 420 233 c 128
 409 259 409 259 409 287 c 257
409 940 m 257
 409 969 409 969 420 994.5 c 128
 431 1020 431 1020 450.5 1039.5 c 128
 470 1059 470 1059 495 1070 c 128
 520 1081 520 1081 549 1081 c 257
 578 1081 578 1081 603 1070 c 128
 628 1059 628 1059 647.5 1039.5 c 128
 667 1020 667 1020 678 994.5 c 128
 689 969 689 969 689 940 c 257
 689 912 689 912 678 886 c 128
 667 860 667 860 648.5 840.5 c 128
 630 821 630 821 604.5 809 c 128
 579 797 579 797 550 797 c 257
 522 797 522 797 496 809 c 128
 470 821 470 821 450.5 840.5 c 128
 431 860 431 860 420 886 c 128
 409 912 409 912 409 940 c 257
100 724 m 257
 1000 724 l 257
 1000 569 l 257
 100 569 l 257
 100 724 l 257
EndSplineSet
EndChar
StartChar: oe
Encoding: 377 339 377
GlifName: oe
Width: 1900
VWidth: 0
Flags: W
LayerCount: 2
Fore
SplineSet
822 571 m 257
 822 633 822 633 812.5 691.5 c 128
 803 750 803 750 779 796 c 128
 755 842 755 842 715.5 869.5 c 128
 676 897 676 897 616 897 c 257
 561 897 561 897 521.5 869.5 c 128
 482 842 482 842 456.5 796 c 128
 431 750 431 750 419 691.5 c 128
 407 633 407 633 407 571 c 257
 407 502 407 502 418.5 436 c 128
 430 370 430 370 454.5 318 c 128
 479 266 479 266 519 234.5 c 128
 559 203 559 203 616 203 c 257
 673 203 673 203 712.5 234.5 c 128
 752 266 752 266 776.5 318 c 128
 801 370 801 370 811.5 436 c 128
 822 502 822 502 822 571 c 257
908 82 m 257
 890 66 890 66 860.5 48.5 c 128
 831 31 831 31 794.5 17 c 128
 758 3 758 3 718 -6.5 c 128
 678 -16 678 -16 640 -16 c 257
 520 -16 520 -16 421 27.5 c 128
 322 71 322 71 250.5 147.5 c 128
 179 224 179 224 139.5 328 c 128
 100 432 100 432 100 553 c 257
 100 674 100 674 138 777 c 128
 176 880 176 880 246.5 955.5 c 128
 317 1031 317 1031 416.5 1073.5 c 128
 516 1116 516 1116 640 1116 c 257
 680 1116 680 1116 715.5 1109 c 128
 751 1102 751 1102 783.5 1090 c 128
 816 1078 816 1078 846.5 1061.5 c 128
 877 1045 877 1045 908 1026 c 257
 984 905 l 257
 1063 1025 l 257
 1082 1040 1082 1040 1108.5 1056 c 128
 1135 1072 1135 1072 1165.5 1085.5 c 128
 1196 1099 1196 1099 1230.5 1107.5 c 128
 1265 1116 1265 1116 1300 1116 c 257
 1420 1116 1420 1116 1507 1081 c 128
 1594 1046 1594 1046 1650.5 982 c 128
 1707 918 1707 918 1734 829 c 128
 1761 740 1761 740 1761 632 c 257
 1761 605 1761 605 1758 561 c 128
 1755 517 1755 517 1749 466 c 257
 1085 466 l 257
 1089 412 1089 412 1111 363.5 c 128
 1133 315 1133 315 1168.5 279 c 128
 1204 243 1204 243 1249.5 221.5 c 128
 1295 200 1295 200 1348 200 c 257
 1417 200 1417 200 1476 226 c 128
 1535 252 1535 252 1591 292 c 257
 1744 157 l 257
 1708 119 1708 119 1666 87 c 128
 1624 55 1624 55 1573 32 c 128
 1522 9 1522 9 1460.5 -4 c 128
 1399 -17 1399 -17 1324 -17 c 257
 1281 -17 1281 -17 1240 -6.5 c 128
 1199 4 1199 4 1164.5 19 c 128
 1130 34 1130 34 1103.5 51.5 c 128
 1077 69 1077 69 1063 83 c 257
 984 203 l 257
 908 82 l 257
1209 671 m 257
 1492 671 l 257
 1492 716 1492 716 1482 758 c 128
 1472 800 1472 800 1451 832 c 128
 1430 864 1430 864 1396 883.5 c 128
 1362 903 1362 903 1314 903 c 257
 1272 903 1272 903 1240.5 888 c 128
 1209 873 1209 873 1186.5 851 c 128
 1164 829 1164 829 1149.5 803 c 128
 1135 777 1135 777 1127 756 c 257
 1036 653 l 257
 1209 671 l 257
EndSplineSet
EndChar
StartChar: circumflex
Encoding: 194 710 194
GlifName: circumflex
Width: 1100
VWidth: 0
Flags: W
LayerCount: 2
Fore
SplineSet
814 1220 m 257
 599 1220 l 257
 529 1323 l 257
 499 1450 l 257
 469 1323 l 257
 388 1220 l 257
 158 1220 l 257
 331 1495 l 257
 627 1524 l 257
 814 1220 l 257
EndSplineSet
EndChar
StartChar: ring
Encoding: 461 730 461
GlifName: ring
Width: 1100
VWidth: 0
Flags: W
LayerCount: 2
Fore
SplineSet
500 1682 m 257
 559 1682 559 1682 610.5 1659.5 c 128
 662 1637 662 1637 700.5 1598.5 c 128
 739 1560 739 1560 761.5 1508 c 128
 784 1456 784 1456 784 1397 c 257
 784 1338 784 1338 762 1285.5 c 128
 740 1233 740 1233 702 1193.5 c 128
 664 1154 664 1154 612.5 1131 c 128
 561 1108 561 1108 502 1108 c 257
 443 1108 443 1108 390.5 1131 c 128
 338 1154 338 1154 299 1193.5 c 128
 260 1233 260 1233 237 1285.5 c 128
 214 1338 214 1338 214 1397 c 257
 214 1456 214 1456 236.5 1508 c 128
 259 1560 259 1560 298 1598.5 c 128
 337 1637 337 1637 389 1659.5 c 128
 441 1682 441 1682 500 1682 c 257
501 1297 m 257
 521 1297 521 1297 538.5 1305 c 128
 556 1313 556 1313 569 1326.5 c 128
 582 1340 582 1340 589.5 1358 c 128
 597 1376 597 1376 597 1396 c 257
 597 1416 597 1416 589.5 1433.5 c 128
 582 1451 582 1451 569 1464.5 c 128
 556 1478 556 1478 538 1485.5 c 128
 520 1493 520 1493 500 1493 c 257
 480 1493 480 1493 462 1485.5 c 128
 444 1478 444 1478 431 1464.5 c 128
 418 1451 418 1451 410.5 1433.5 c 128
 403 1416 403 1416 403 1396 c 257
 403 1376 403 1376 410.5 1358 c 128
 418 1340 418 1340 431.5 1326.5 c 128
 445 1313 445 1313 463 1305 c 128
 481 1297 481 1297 501 1297 c 257
EndSplineSet
EndChar
StartChar: hungarumlaut
Encoding: 308 733 308
GlifName: hungarumlaut
Width: 1100
VWidth: 0
Flags: W
LayerCount: 2
Fore
SplineSet
336 1496 m 257
 667 1518 l 257
 385 1117 l 257
 156 1117 l 257
 336 1496 l 257
699 1496 m 257
 1030 1518 l 257
 748 1117 l 257
 519 1117 l 257
 699 1496 l 257
EndSplineSet
EndChar
StartChar: Gamma
Encoding: 32 915 32
GlifName: G_amma
Width: 1100
VWidth: 0
Flags: W
LayerCount: 2
Fore
SplineSet
471 1131 m 257
 471 0 l 257
 129 0 l 257
 129 1269 l 257
 110 1500 l 257
 1059 1500 l 257
 1059 1282 l 257
 459 1282 l 257
 471 1131 l 257
EndSplineSet
EndChar
StartChar: Theta
Encoding: 80 920 80
GlifName: T_heta
Width: 1600
VWidth: 0
Flags: W
LayerCount: 2
Fore
SplineSet
540 900 m 257
 1080 900 l 257
 1060 662 l 257
 520 662 l 257
 540 900 l 257
800 21 m 257
 633 21 633 21 500 79 c 128
 367 137 367 137 274 239.5 c 128
 181 342 181 342 131.5 482.5 c 128
 82 623 82 623 82 788 c 257
 82 953 82 953 130 1093.5 c 128
 178 1234 178 1234 269.5 1336.5 c 128
 361 1439 361 1439 495 1497 c 128
 629 1555 629 1555 800 1555 c 257
 967 1555 967 1555 1100 1497 c 128
 1233 1439 1233 1439 1325.5 1336.5 c 128
 1418 1234 1418 1234 1467.5 1093.5 c 128
 1517 953 1517 953 1517 788 c 257
 1517 623 1517 623 1469 482.5 c 128
 1421 342 1421 342 1329.5 239.5 c 128
 1238 137 1238 137 1104.5 79 c 128
 971 21 971 21 800 21 c 257
1168 759 m 257
 1168 865 1168 865 1148 964 c 128
 1128 1063 1128 1063 1083 1139 c 128
 1038 1215 1038 1215 967 1261 c 128
 896 1307 896 1307 794 1307 c 257
 698 1307 698 1307 629 1266.5 c 128
 560 1226 560 1226 516 1158.5 c 128
 472 1091 472 1091 451.5 1003 c 128
 431 915 431 915 431 821 c 257
 431 713 431 713 451.5 613.5 c 128
 472 514 472 514 517 437.5 c 128
 562 361 562 361 633 315 c 128
 704 269 704 269 805 269 c 257
 901 269 901 269 969.5 310.5 c 128
 1038 352 1038 352 1082.5 420.5 c 128
 1127 489 1127 489 1147.5 577 c 128
 1168 665 1168 665 1168 759 c 257
EndSplineSet
EndChar
StartChar: Lambda
Encoding: 45 923 45
GlifName: L_ambda
Width: 1300
VWidth: 0
Flags: W
LayerCount: 2
Fore
SplineSet
-16 1 m 257
 384 1267 l 257
 423 1500 l 257
 803 1526 l 257
 1299 0 l 257
 960 0 l 257
 715 801 l 257
 621 1241 l 257
 552 801 l 257
 304 1 l 257
 -16 1 l 257
EndSplineSet
EndChar
StartChar: alpha
Encoding: 110 945 110
GlifName: alpha
Width: 1400
VWidth: 0
Flags: W
LayerCount: 2
Fore
SplineSet
817 528 m 257
 817 596 817 596 801.5 665 c 128
 786 734 786 734 756 790 c 128
 726 846 726 846 681 881.5 c 128
 636 917 636 917 578 917 c 257
 523 917 523 917 480 886 c 128
 437 855 437 855 408 805.5 c 128
 379 756 379 756 363.5 694.5 c 128
 348 633 348 633 348 571 c 257
 348 502 348 502 363 433 c 128
 378 364 378 364 408 308.5 c 128
 438 253 438 253 482.5 218 c 128
 527 183 527 183 585 183 c 257
 640 183 640 183 683 214 c 128
 726 245 726 245 756 294 c 128
 786 343 786 343 801.5 404.5 c 128
 817 466 817 466 817 528 c 257
903 176 m 257
 842 56 l 257
 790 13 790 13 725 -2 c 128
 660 -17 660 -17 582 -17 c 257
 462 -17 462 -17 364.5 26.5 c 128
 267 70 267 70 197.5 146.5 c 128
 128 223 128 223 90 327 c 128
 52 431 52 431 52 553 c 257
 52 674 52 674 88.5 777.5 c 128
 125 881 125 881 193.5 956.5 c 128
 262 1032 262 1032 360 1074.5 c 128
 458 1117 458 1117 582 1117 c 257
 656 1117 656 1117 719 1100 c 128
 782 1083 782 1083 842 1051 c 257
 903 931 l 257
 942 1055 l 257
 968 1071 968 1071 1001.5 1087.5 c 128
 1035 1104 1035 1104 1076 1122 c 257
 1210 962 l 257
 1133 904 1133 904 1128 829 c 257
 1126 787 1126 787 1124.5 719 c 128
 1123 651 1123 651 1123 552 c 257
 1123 518 1123 518 1124 477.5 c 128
 1125 437 1125 437 1127.5 396.5 c 128
 1130 356 1130 356 1135.5 318 c 128
 1141 280 1141 280 1149.5 251 c 128
 1158 222 1158 222 1170 204.5 c 128
 1182 187 1182 187 1199 187 c 257
 1220 187 1220 187 1234.5 192 c 128
 1249 197 1249 197 1256 203 c 257
 1332 35 l 257
 1279 10 1279 10 1232 -3.5 c 128
 1185 -17 1185 -17 1142 -17 c 257
 1082 -17 1082 -17 1029 5 c 128
 976 27 976 27 942 52 c 257
 903 176 l 257
EndSplineSet
EndChar
StartChar: gamma
Encoding: 290 947 290
GlifName: gamma
Width: 1100
VWidth: 0
Flags: W
LayerCount: 2
Fore
SplineSet
-56 1116 m 257
 1 1116 1 1116 61.5 1112 c 128
 122 1108 122 1108 176.5 1089.5 c 128
 231 1071 231 1071 276 1033 c 128
 321 995 321 995 346 927 c 257
 451 641 l 257
 531 220 l 257
 610 643 l 257
 778 1095 l 257
 1088 1124 l 257
 692 21 l 257
 692 -500 l 257
 364 -500 l 257
 364 -7 l 257
 58 834 l 257
 47 864 47 864 28 881.5 c 128
 9 899 9 899 -10 907 c 257
 -32 917 -32 917 -56 920 c 257
 -56 1116 l 257
EndSplineSet
EndChar
StartChar: delta
Encoding: 220 948 220
GlifName: delta
Width: 1200
VWidth: 0
Flags: W
LayerCount: 2
Fore
SplineSet
580 183 m 257
 623 183 623 183 660 210 c 128
 697 237 697 237 724 284 c 128
 751 331 751 331 766.5 394 c 128
 782 457 782 457 782 528 c 257
 782 582 782 582 769 640.5 c 128
 756 699 756 699 731 747.5 c 128
 706 796 706 796 668.5 827.5 c 128
 631 859 631 859 583 859 c 257
 485 859 485 859 430.5 773.5 c 128
 376 688 376 688 376 528 c 257
 376 457 376 457 391 394 c 128
 406 331 406 331 433 284 c 128
 460 237 460 237 497.5 210 c 128
 535 183 535 183 580 183 c 257
999 1500 m 257
 940 1300 l 257
 527 1300 l 257
 495 1300 495 1300 474.5 1289.5 c 128
 454 1279 454 1279 454 1253 c 257
 454 1236 454 1236 481 1220.5 c 128
 508 1205 508 1205 549.5 1188 c 128
 591 1171 591 1171 639.5 1151 c 128
 688 1131 688 1131 730 1107 c 257
 825 1053 825 1053 897.5 993 c 128
 970 933 970 933 1019.5 863.5 c 128
 1069 794 1069 794 1094.5 711 c 128
 1120 628 1120 628 1120 528 c 257
 1120 456 1120 456 1101 388 c 128
 1082 320 1082 320 1047 259.5 c 128
 1012 199 1012 199 963 148 c 128
 914 97 914 97 854.5 60.5 c 128
 795 24 795 24 726.5 3.5 c 128
 658 -17 658 -17 584 -17 c 257
 504 -17 504 -17 433 5.5 c 128
 362 28 362 28 302.5 67 c 128
 243 106 243 106 196 159 c 128
 149 212 149 212 116 274 c 128
 83 336 83 336 65.5 404 c 128
 48 472 48 472 48 540 c 257
 48 606 48 606 64 675 c 128
 80 744 80 744 117.5 807 c 128
 155 870 155 870 216.5 924 c 128
 278 978 278 978 369 1015 c 257
 550 1015 l 257
 310 1108 l 257
 281 1123 281 1123 253.5 1142 c 128
 226 1161 226 1161 205 1183.5 c 128
 184 1206 184 1206 171 1231.5 c 128
 158 1257 158 1257 158 1286 c 257
 158 1334 158 1334 176.5 1368.5 c 128
 195 1403 195 1403 226 1427 c 128
 257 1451 257 1451 298 1465 c 128
 339 1479 339 1479 384 1487 c 128
 429 1495 429 1495 475.5 1497.5 c 128
 522 1500 522 1500 564 1500 c 257
 999 1500 l 257
EndSplineSet
EndChar
StartChar: epsilon
Encoding: 248 949 248
GlifName: epsilon
Width: 1000
VWidth: 0
Flags: W
LayerCount: 2
Fore
SplineSet
729 665 m 257
 700 466 l 257
 431 466 l 257
 408 466 408 466 389.5 455.5 c 128
 371 445 371 445 358.5 426.5 c 128
 346 408 346 408 339 382.5 c 128
 332 357 332 357 332 328 c 257
 332 300 332 300 344.5 274 c 128
 357 248 357 248 378.5 228 c 128
 400 208 400 208 430 196 c 128
 460 184 460 184 496 184 c 257
 538 184 538 184 581.5 197 c 128
 625 210 625 210 660 226 c 257
 701 244 701 244 741 268 c 257
 880 131 l 257
 844 90 844 90 785 57 c 257
 735 29 735 29 654.5 6 c 128
 574 -17 574 -17 458 -17 c 257
 407 -17 407 -17 353.5 -7.5 c 128
 300 2 300 2 249.5 21 c 128
 199 40 199 40 155 68.5 c 128
 111 97 111 97 77.5 135.5 c 128
 44 174 44 174 25 222.5 c 128
 6 271 6 271 6 329 c 257
 6 401 6 401 36 459 c 128
 66 517 66 517 118 562 c 257
 65 607 65 607 35.5 663.5 c 128
 6 720 6 720 6 792 c 257
 6 851 6 851 25 898 c 128
 44 945 44 945 77.5 981 c 128
 111 1017 111 1017 155 1042.5 c 128
 199 1068 199 1068 249.5 1084.5 c 128
 300 1101 300 1101 353.5 1109 c 128
 407 1117 407 1117 458 1117 c 257
 519 1117 519 1117 579.5 1105 c 128
 640 1093 640 1093 689 1079 c 257
 746 1062 746 1062 799 1042 c 257
 727 894 l 257
 691 900 691 900 652 905 c 257
 619 910 619 910 578 913.5 c 128
 537 917 537 917 496 917 c 257
 457 917 457 917 426.5 904 c 128
 396 891 396 891 375 871 c 128
 354 851 354 851 343 825.5 c 128
 332 800 332 800 332 775 c 257
 332 752 332 752 340 732 c 128
 348 712 348 712 362 697 c 128
 376 682 376 682 393.5 673.5 c 128
 411 665 411 665 431 665 c 257
 729 665 l 257
EndSplineSet
EndChar
StartChar: theta
Encoding: 517 952 517
GlifName: theta
Width: 1200
VWidth: 0
Flags: W
LayerCount: 2
Fore
SplineSet
599 -17 m 257
 499 -17 499 -17 420 15.5 c 128
 341 48 341 48 281 104.5 c 128
 221 161 221 161 178.5 236 c 128
 136 311 136 311 109.5 396 c 128
 83 481 83 481 70.5 570.5 c 128
 58 660 58 660 58 746 c 257
 58 832 58 832 70 922.5 c 128
 82 1013 82 1013 109 1098.5 c 128
 136 1184 136 1184 178 1260.5 c 128
 220 1337 220 1337 280.5 1394 c 128
 341 1451 341 1451 420 1484 c 128
 499 1517 499 1517 599 1517 c 257
 699 1517 699 1517 778 1484 c 128
 857 1451 857 1451 917 1394 c 128
 977 1337 977 1337 1019 1260.5 c 128
 1061 1184 1061 1184 1088 1098.5 c 128
 1115 1013 1115 1013 1127 922.5 c 128
 1139 832 1139 832 1139 746 c 257
 1139 660 1139 660 1127 570.5 c 128
 1115 481 1115 481 1088 396 c 128
 1061 311 1061 311 1019 236 c 128
 977 161 977 161 917 105 c 128
 857 49 857 49 778 16 c 128
 699 -17 699 -17 599 -17 c 257
828 845 m 257
 824 894 824 894 815 946 c 128
 806 998 806 998 792.5 1047.5 c 128
 779 1097 779 1097 760 1141 c 128
 741 1185 741 1185 717 1218 c 128
 693 1251 693 1251 663.5 1270.5 c 128
 634 1290 634 1290 599 1290 c 257
 564 1290 564 1290 534 1270.5 c 128
 504 1251 504 1251 480 1218 c 128
 456 1185 456 1185 437 1141 c 128
 418 1097 418 1097 404.5 1047.5 c 128
 391 998 391 998 382.5 946 c 128
 374 894 374 894 370 845 c 257
 828 845 l 257
370 651 m 257
 374 602 374 602 383 550.5 c 128
 392 499 392 499 406 450 c 128
 420 401 420 401 438.5 357.5 c 128
 457 314 457 314 481 281 c 128
 505 248 505 248 534.5 229 c 128
 564 210 564 210 599 210 c 257
 646 210 646 210 683.5 247.5 c 128
 721 285 721 285 749.5 346.5 c 128
 778 408 778 408 796.5 487.5 c 128
 815 567 815 567 825 651 c 257
 370 651 l 257
EndSplineSet
EndChar
StartChar: kappa
Encoding: 327 954 327
GlifName: kappa
Width: 1000
VWidth: 0
Flags: W
LayerCount: 2
Fore
SplineSet
132 0 m 257
 132 890 l 257
 110 1093 l 257
 429 1125 l 257
 429 774 l 257
 669 1095 l 257
 991 1133 l 257
 620 670 l 257
 446 600 l 257
 620 530 l 257
 1027 0 l 257
 718 0 l 257
 429 405 l 257
 429 0 l 257
 132 0 l 257
EndSplineSet
EndChar
StartChar: nu
Encoding: 371 957 371
GlifName: nu
Width: 1200
VWidth: 0
Flags: W
LayerCount: 2
Fore
SplineSet
492 650 m 257
 576 250 l 257
 658 650 l 257
 807 1100 l 257
 1128 1100 l 257
 746 0 l 257
 392 0 l 257
 10 1100 l 257
 330 1100 l 257
 492 650 l 257
EndSplineSet
EndChar
StartChar: sigma1
Encoding: 479 962 479
GlifName: sigma1
Width: 1000
VWidth: 0
Flags: W
LayerCount: 2
Fore
SplineSet
871 900 m 257
 836 700 l 257
 789 700 789 700 736 697 c 128
 683 694 683 694 631.5 685 c 128
 580 676 580 676 532.5 659.5 c 128
 485 643 485 643 449 615.5 c 128
 413 588 413 588 391.5 548.5 c 128
 370 509 370 509 370 454 c 257
 370 425 370 425 379.5 395.5 c 128
 389 366 389 366 417 332.5 c 128
 445 299 445 299 496.5 260.5 c 128
 548 222 548 222 632 176 c 257
 691 143 691 143 744.5 110.5 c 128
 798 78 798 78 838.5 38.5 c 128
 879 -1 879 -1 902.5 -49.5 c 128
 926 -98 926 -98 926 -162 c 257
 926 -212 926 -212 898.5 -261.5 c 128
 871 -311 871 -311 823.5 -356.5 c 128
 776 -402 776 -402 712 -443 c 128
 648 -484 648 -484 575 -517 c 257
 440 -324 l 257
 471 -308 471 -308 499 -290.5 c 128
 527 -273 527 -273 548 -254.5 c 128
 569 -236 569 -236 581.5 -217.5 c 128
 594 -199 594 -199 594 -180 c 257
 594 -140 594 -140 569.5 -109.5 c 128
 545 -79 545 -79 508 -54 c 128
 471 -29 471 -29 429 -8 c 128
 387 13 387 13 353 33 c 257
 303 61 303 61 249.5 102 c 128
 196 143 196 143 152 195 c 128
 108 247 108 247 79 310 c 128
 50 373 50 373 50 445 c 257
 50 532 50 532 79.5 614 c 128
 109 696 109 696 180 759.5 c 128
 251 823 251 823 370.5 861.5 c 128
 490 900 490 900 669 900 c 257
 871 900 l 257
EndSplineSet
EndChar
StartChar: upsilon
Encoding: 553 965 553
GlifName: upsilon
Width: 1200
VWidth: 0
Flags: W
LayerCount: 2
Fore
SplineSet
464 501 m 257
 464 439 464 439 470.5 382 c 128
 477 325 477 325 494.5 280.5 c 128
 512 236 512 236 543 209.5 c 128
 574 183 574 183 623 183 c 257
 673 183 673 183 704 210.5 c 128
 735 238 735 238 752 282.5 c 128
 769 327 769 327 775 384 c 128
 781 441 781 441 781 501 c 257
 781 720 l 257
 781 784 781 784 761 826 c 128
 741 868 741 868 712.5 893 c 128
 684 918 684 918 653 928.5 c 128
 622 939 622 939 600 939 c 257
 600 1117 l 257
 709 1117 709 1117 802 1091.5 c 128
 895 1066 895 1066 962.5 1018 c 128
 1030 970 1030 970 1068.5 901 c 128
 1107 832 1107 832 1107 745 c 257
 1107 499 l 257
 1107 459 1107 459 1104 405.5 c 128
 1101 352 1101 352 1086.5 294.5 c 128
 1072 237 1072 237 1042 181.5 c 128
 1012 126 1012 126 958 81.5 c 128
 904 37 904 37 822.5 10 c 128
 741 -17 741 -17 623 -17 c 257
 509 -17 509 -17 429.5 9.5 c 128
 350 36 350 36 296 79 c 128
 242 122 242 122 211 177 c 128
 180 232 180 232 164 289.5 c 128
 148 347 148 347 144 402 c 128
 140 457 140 457 140 499 c 257
 140 825 l 257
 140 863 140 863 137.5 885.5 c 128
 135 908 135 908 122 908 c 257
 116 908 116 908 111.5 903.5 c 128
 107 899 107 899 104.5 887 c 128
 102 875 102 875 101 854 c 128
 100 833 100 833 100 800 c 257
 -130 800 l 257
 -130 861 -130 861 -114.5 918 c 128
 -99 975 -99 975 -66 1019.5 c 128
 -33 1064 -33 1064 18 1090.5 c 128
 69 1117 69 1117 140 1117 c 257
 212 1117 212 1117 271.5 1095.5 c 128
 331 1074 331 1074 374 1035.5 c 128
 417 997 417 997 440.5 943.5 c 128
 464 890 464 890 464 825 c 257
 464 501 l 257
EndSplineSet
EndChar
StartChar: chi
Encoding: 185 967 185
GlifName: chi
Width: 1300
VWidth: 0
Flags: W
LayerCount: 2
Fore
SplineSet
544 763 m 257
 648 478 l 257
 694 716 l 257
 901 1100 l 257
 1240 1100 l 257
 803 323 l 257
 1114 -226 l 257
 1134 -261 1134 -261 1155 -280.5 c 128
 1176 -300 1176 -300 1194 -311 c 257
 1215 -323 1215 -323 1235 -328 c 257
 1235 -517 l 257
 1173 -517 1173 -517 1115 -511.5 c 128
 1057 -506 1057 -506 1005 -487 c 128
 953 -468 953 -468 907.5 -430.5 c 128
 862 -393 862 -393 826 -330 c 257
 691 -93 l 257
 591 167 l 257
 528 -71 l 257
 289 -500 l 257
 -46 -500 l 257
 433 344 l 257
 159 829 l 257
 140 862 140 862 119 882 c 128
 98 902 98 902 81 913 c 257
 60 925 60 925 40 931 c 257
 40 1117 l 257
 101 1117 101 1117 158.5 1111.5 c 128
 216 1106 216 1106 267.5 1087.5 c 128
 319 1069 319 1069 364.5 1032 c 128
 410 995 410 995 446 932 c 257
 544 763 l 257
EndSplineSet
EndChar
StartChar: psi
Encoding: 434 968 434
GlifName: psi
Width: 1500
VWidth: 0
Flags: W
LayerCount: 2
Fore
SplineSet
1035 700 m 257
 1035 733 1035 733 1031 767 c 128
 1027 801 1027 801 1018 831.5 c 128
 1009 862 1009 862 995.5 887 c 128
 982 912 982 912 964 926 c 257
 964 1105 l 257
 1051 1088 1051 1088 1124 1048.5 c 128
 1197 1009 1197 1009 1249.5 953.5 c 128
 1302 898 1302 898 1331.5 830 c 128
 1361 762 1361 762 1361 689 c 257
 1361 499 l 257
 1361 459 1361 459 1358 405.5 c 128
 1355 352 1355 352 1341.5 295 c 128
 1328 238 1328 238 1300.5 182 c 128
 1273 126 1273 126 1223.5 82 c 128
 1174 38 1174 38 1098.5 11 c 128
 1023 -16 1023 -16 914 -16 c 257
 886 -16 l 257
 886 -500 l 257
 558 -500 l 257
 558 -16 l 257
 541 -16 l 257
 432 -16 432 -16 356.5 11 c 128
 281 38 281 38 231.5 82 c 128
 182 126 182 126 154.5 182 c 128
 127 238 127 238 113.5 295 c 128
 100 352 100 352 97 405.5 c 128
 94 459 94 459 94 499 c 257
 94 814 l 257
 420 846 l 257
 420 501 l 257
 420 441 420 441 424.5 386 c 128
 429 331 429 331 441.5 288.5 c 128
 454 246 454 246 478 220.5 c 128
 502 195 502 195 541 195 c 257
 558 195 l 257
 558 1093 l 257
 886 1126 l 257
 886 195 l 257
 934 199 934 199 963.5 225.5 c 128
 993 252 993 252 1008.5 294 c 128
 1024 336 1024 336 1029.5 390 c 128
 1035 444 1035 444 1035 501 c 257
 1035 700 l 257
EndSplineSet
EndChar
StartChar: theta1
Encoding: 518 977 518
GlifName: theta1
Width: 1300
VWidth: 0
Flags: W
LayerCount: 2
Fore
SplineSet
328 529 m 257
 344 457 344 457 368.5 398 c 128
 393 339 393 339 425.5 297 c 128
 458 255 458 255 497.5 232.5 c 128
 537 210 537 210 582 210 c 257
 628 210 628 210 667.5 240.5 c 128
 707 271 707 271 737 324.5 c 128
 767 378 767 378 787.5 450 c 128
 808 522 808 522 816 606 c 257
 489 606 l 257
 401 606 401 606 322 618.5 c 128
 243 631 243 631 183 668.5 c 128
 123 706 123 706 87.5 773.5 c 128
 52 841 52 841 52 951 c 257
 52 1014 52 1014 67 1080 c 128
 82 1146 82 1146 112 1209 c 128
 142 1272 142 1272 186.5 1328 c 128
 231 1384 231 1384 289.5 1426 c 128
 348 1468 348 1468 421.5 1492.5 c 128
 495 1517 495 1517 582 1517 c 257
 669 1517 669 1517 741.5 1488 c 128
 814 1459 814 1459 872.5 1408.5 c 128
 931 1358 931 1358 975 1290.5 c 128
 1019 1223 1019 1223 1049.5 1145.5 c 128
 1080 1068 1080 1068 1097.5 984.5 c 128
 1115 901 1115 901 1120 820 c 257
 1314 820 l 257
 1287 606 l 257
 1117 606 l 257
 1109 528 1109 528 1086 452 c 128
 1063 376 1063 376 1027 306.5 c 128
 991 237 991 237 943.5 178 c 128
 896 119 896 119 840.5 75.5 c 128
 785 32 785 32 722 7.5 c 128
 659 -17 659 -17 592 -17 c 257
 491 -17 491 -17 411.5 14.5 c 128
 332 46 332 46 271 102 c 128
 210 158 210 158 167.5 234.5 c 128
 125 311 125 311 99 400 c 257
 328 529 l 257
582 1290 m 257
 529 1290 529 1290 483.5 1258 c 128
 438 1226 438 1226 403.5 1175.5 c 128
 369 1125 369 1125 349.5 1063.5 c 128
 330 1002 330 1002 330 943 c 257
 330 897 330 897 349.5 872 c 128
 369 847 369 847 403.5 835.5 c 128
 438 824 438 824 483.5 822 c 128
 529 820 529 820 582 820 c 257
 819 820 l 257
 812 907 812 907 793 991 c 128
 774 1075 774 1075 744 1141.5 c 128
 714 1208 714 1208 673 1249 c 128
 632 1290 632 1290 582 1290 c 257
EndSplineSet
EndChar
StartChar: hyphentwo
Encoding: 310 8208 310
GlifName: hyphentwo
Width: 900
VWidth: 0
Flags: W
LayerCount: 2
Fore
SplineSet
124 624 m 257
 751 624 l 257
 751 400 l 257
 124 400 l 257
 124 624 l 257
EndSplineSet
EndChar
StartChar: dagger
Encoding: 215 8224 215
GlifName: dagger
Width: 1100
VWidth: 0
Flags: W
LayerCount: 2
Fore
SplineSet
100 1118 m 257
 356 1118 l 257
 356 1493 l 257
 638 1527 l 257
 638 1118 l 257
 927 1118 l 257
 899 900 l 257
 638 900 l 257
 638 -400 l 257
 356 -400 l 257
 356 900 l 257
 100 900 l 257
 100 1118 l 257
EndSplineSet
EndChar
StartChar: daggerdbl
Encoding: 216 8225 216
GlifName: daggerdbl
Width: 1000
VWidth: 0
Flags: W
LayerCount: 2
Fore
SplineSet
356 82 m 257
 100 82 l 257
 100 300 l 257
 356 300 l 257
 356 900 l 257
 100 900 l 257
 100 1118 l 257
 356 1118 l 257
 356 1493 l 257
 638 1527 l 257
 638 1118 l 257
 927 1118 l 257
 899 900 l 257
 638 900 l 257
 638 300 l 257
 927 300 l 257
 899 82 l 257
 638 82 l 257
 638 -400 l 257
 356 -400 l 257
 356 82 l 257
EndSplineSet
EndChar
StartChar: perthousand
Encoding: 416 8240 416
GlifName: perthousand
Width: 2600
VWidth: 0
Flags: W
LayerCount: 2
Fore
SplineSet
2051 -17 m 257
 1964 -17 1964 -17 1892 13.5 c 128
 1820 44 1820 44 1768.5 97.5 c 128
 1717 151 1717 151 1688 224 c 128
 1659 297 1659 297 1659 382 c 257
 1659 466 1659 466 1686.5 538 c 128
 1714 610 1714 610 1765 662.5 c 128
 1816 715 1816 715 1888.5 744.5 c 128
 1961 774 1961 774 2051 774 c 257
 2137 774 2137 774 2209 744.5 c 128
 2281 715 2281 715 2332.5 662.5 c 128
 2384 610 2384 610 2413 538 c 128
 2442 466 2442 466 2442 382 c 257
 2442 297 2442 297 2414.5 224 c 128
 2387 151 2387 151 2336 97.5 c 128
 2285 44 2285 44 2212.5 13.5 c 128
 2140 -17 2140 -17 2051 -17 c 257
2142 371 m 257
 2142 407 2142 407 2137 442 c 128
 2132 477 2132 477 2121 504.5 c 128
 2110 532 2110 532 2092.5 549 c 128
 2075 566 2075 566 2050 566 c 257
 2027 566 2027 566 2011 551.5 c 128
 1995 537 1995 537 1984.5 513 c 128
 1974 489 1974 489 1969 458.5 c 128
 1964 428 1964 428 1964 396 c 257
 1964 360 1964 360 1969 325 c 128
 1974 290 1974 290 1985 263 c 128
 1996 236 1996 236 2013 219.5 c 128
 2030 203 2030 203 2055 203 c 257
 2077 203 2077 203 2093.5 217.5 c 128
 2110 232 2110 232 2121 255.5 c 128
 2132 279 2132 279 2137 309 c 128
 2142 339 2142 339 2142 371 c 257
639 0 m 257
 306 0 l 257
 1125 1500 l 257
 1449 1500 l 257
 639 0 l 257
401 726 m 257
 314 726 314 726 242 756.5 c 128
 170 787 170 787 118 840.5 c 128
 66 894 66 894 37 967 c 128
 8 1040 8 1040 8 1125 c 257
 8 1209 8 1209 35.5 1281 c 128
 63 1353 63 1353 114 1405.5 c 128
 165 1458 165 1458 238 1487.5 c 128
 311 1517 311 1517 401 1517 c 257
 487 1517 487 1517 559 1487.5 c 128
 631 1458 631 1458 682.5 1405.5 c 128
 734 1353 734 1353 763 1281 c 128
 792 1209 792 1209 792 1125 c 257
 792 1040 792 1040 764.5 967 c 128
 737 894 737 894 686 840.5 c 128
 635 787 635 787 562.5 756.5 c 128
 490 726 490 726 401 726 c 257
492 1115 m 257
 492 1151 492 1151 487 1185.5 c 128
 482 1220 482 1220 471 1247.5 c 128
 460 1275 460 1275 442.5 1292 c 128
 425 1309 425 1309 400 1309 c 257
 377 1309 377 1309 360.5 1294.5 c 128
 344 1280 344 1280 333.5 1256.5 c 128
 323 1233 323 1233 318 1202.5 c 128
 313 1172 313 1172 313 1139 c 257
 313 1103 313 1103 318 1068.5 c 128
 323 1034 323 1034 334 1007 c 128
 345 980 345 980 362.5 963.5 c 128
 380 947 380 947 404 947 c 257
 427 947 427 947 443.5 961.5 c 128
 460 976 460 976 471 999.5 c 128
 482 1023 482 1023 487 1053 c 128
 492 1083 492 1083 492 1115 c 257
1352 -17 m 257
 1265 -17 1265 -17 1193 13.5 c 128
 1121 44 1121 44 1069.5 97.5 c 128
 1018 151 1018 151 989 224 c 128
 960 297 960 297 960 382 c 257
 960 466 960 466 987.5 538 c 128
 1015 610 1015 610 1066 662.5 c 128
 1117 715 1117 715 1189.5 744.5 c 128
 1262 774 1262 774 1352 774 c 257
 1438 774 1438 774 1510 744.5 c 128
 1582 715 1582 715 1633.5 662.5 c 128
 1685 610 1685 610 1714 538 c 128
 1743 466 1743 466 1743 382 c 257
 1743 297 1743 297 1715.5 224 c 128
 1688 151 1688 151 1637 97.5 c 128
 1586 44 1586 44 1513.5 13.5 c 128
 1441 -17 1441 -17 1352 -17 c 257
1443 371 m 257
 1443 407 1443 407 1438 442 c 128
 1433 477 1433 477 1422 504.5 c 128
 1411 532 1411 532 1393.5 549 c 128
 1376 566 1376 566 1351 566 c 257
 1328 566 1328 566 1312 551.5 c 128
 1296 537 1296 537 1285.5 513 c 128
 1275 489 1275 489 1270 458.5 c 128
 1265 428 1265 428 1265 396 c 257
 1265 360 1265 360 1270 325 c 128
 1275 290 1275 290 1286 263 c 128
 1297 236 1297 236 1314 219.5 c 128
 1331 203 1331 203 1356 203 c 257
 1378 203 1378 203 1394.5 217.5 c 128
 1411 232 1411 232 1422 255.5 c 128
 1433 279 1433 279 1438 309 c 128
 1443 339 1443 339 1443 371 c 257
EndSplineSet
EndChar
StartChar: minute
Encoding: 353 8242 353
GlifName: minute
Width: 500
VWidth: 0
Flags: W
LayerCount: 2
Fore
SplineSet
380 1230 m 257
 219 885 l 257
 66 885 l 257
 130 1232 l 257
 130 1523 l 257
 380 1490 l 257
 380 1230 l 257
EndSplineSet
EndChar
StartChar: guilsinglright
Encoding: 299 8250 299
GlifName: guilsinglright
Width: 900
VWidth: 0
Flags: W
LayerCount: 2
Fore
SplineSet
776 619 m 257
 776 476 l 257
 220 -13 l 257
 126 224 l 257
 460 517 l 257
 534 550 l 257
 459 582 l 257
 128 880 l 257
 217 1106 l 257
 776 619 l 257
EndSplineSet
EndChar
StartChar: zerosuperior
Encoding: 589 8304 589
GlifName: zerosuperior
Width: 800
VWidth: 0
Flags: W
LayerCount: 2
Fore
SplineSet
298 712 m 257
 251 712 251 712 212 728 c 128
 173 744 173 744 142 772 c 128
 111 800 111 800 87.5 837.5 c 128
 64 875 64 875 48.5 917.5 c 128
 33 960 33 960 25.5 1005.5 c 128
 18 1051 18 1051 18 1095 c 257
 18 1140 18 1140 24.5 1185.5 c 128
 31 1231 31 1231 45 1274 c 128
 59 1317 59 1317 81.5 1354 c 128
 104 1391 104 1391 135 1418.5 c 128
 166 1446 166 1446 206.5 1462 c 128
 247 1478 247 1478 298 1478 c 257
 344 1478 344 1478 383 1461.5 c 128
 422 1445 422 1445 453 1417 c 128
 484 1389 484 1389 507.5 1351.5 c 128
 531 1314 531 1314 546.5 1271.5 c 128
 562 1229 562 1229 570 1183.5 c 128
 578 1138 578 1138 578 1095 c 257
 578 1050 578 1050 571 1004 c 128
 564 958 564 958 550 915.5 c 128
 536 873 536 873 514 836 c 128
 492 799 492 799 460.5 771 c 128
 429 743 429 743 388.5 727.5 c 128
 348 712 348 712 298 712 c 257
192 1115 m 257
 192 1090 192 1090 193.5 1059 c 128
 195 1028 195 1028 199 996.5 c 128
 203 965 203 965 210.5 935.5 c 128
 218 906 218 906 230.5 883 c 128
 243 860 243 860 260 846.5 c 128
 277 833 277 833 301 833 c 257
 322 833 322 833 338 843 c 128
 354 853 354 853 365.5 871 c 128
 377 889 377 889 384.5 912.5 c 128
 392 936 392 936 396 963 c 128
 400 990 400 990 402 1018.5 c 128
 404 1047 404 1047 404 1074 c 257
 404 1100 404 1100 402.5 1131 c 128
 401 1162 401 1162 396.5 1193 c 128
 392 1224 392 1224 384.5 1253.5 c 128
 377 1283 377 1283 365 1306 c 128
 353 1329 353 1329 335.5 1342.5 c 128
 318 1356 318 1356 294 1356 c 257
 273 1356 273 1356 257 1346 c 128
 241 1336 241 1336 229.5 1318 c 128
 218 1300 218 1300 211 1276.5 c 128
 204 1253 204 1253 199.5 1226 c 128
 195 1199 195 1199 193.5 1170.5 c 128
 192 1142 192 1142 192 1115 c 257
EndSplineSet
EndChar
StartChar: foursuperior
Encoding: 285 8308 285
GlifName: foursuperior
Width: 600
VWidth: 0
Flags: W
LayerCount: 2
Fore
SplineSet
569 870 m 257
 480 870 l 257
 480 720 l 257
 320 720 l 257
 320 870 l 257
 20 870 l 257
 20 970 l 257
 267 1482 l 257
 425 1466 l 257
 261 1101 l 257
 174 970 l 257
 320 970 l 257
 320 1119 l 257
 480 1106 l 257
 480 970 l 257
 580 970 l 257
 569 870 l 257
EndSplineSet
EndChar
StartChar: fivesuperior
Encoding: 275 8309 275
GlifName: fivesuperior
Width: 600
VWidth: 0
Flags: W
LayerCount: 2
Fore
SplineSet
245 1243 m 257
 257 1246 257 1246 271.5 1247.5 c 128
 286 1249 286 1249 303 1249 c 257
 361 1249 361 1249 407 1232 c 128
 453 1215 453 1215 484.5 1185.5 c 128
 516 1156 516 1156 533 1117 c 128
 550 1078 550 1078 550 1033 c 257
 550 981 550 981 529.5 938 c 128
 509 895 509 895 473.5 860.5 c 128
 438 826 438 826 391 799.5 c 128
 344 773 344 773 291 755.5 c 128
 238 738 238 738 181.5 729 c 128
 125 720 125 720 71 720 c 257
 71 833 l 257
 106 834 106 834 143.5 841 c 128
 181 848 181 848 216 860 c 128
 251 872 251 872 282 889 c 128
 313 906 313 906 336 926.5 c 128
 359 947 359 947 372.5 971.5 c 128
 386 996 386 996 386 1023 c 257
 386 1043 386 1043 379 1062.5 c 128
 372 1082 372 1082 359.5 1097 c 128
 347 1112 347 1112 329.5 1121.5 c 128
 312 1131 312 1131 290 1131 c 257
 271 1131 271 1131 254.5 1128 c 128
 238 1125 238 1125 224.5 1120 c 128
 211 1115 211 1115 201 1109.5 c 128
 191 1104 191 1104 183 1099 c 257
 71 1099 l 257
 71 1470 l 257
 504 1470 l 257
 504 1370 l 257
 245 1370 l 257
 245 1243 l 257
EndSplineSet
EndChar
StartChar: ninesuperior
Encoding: 364 8313 364
GlifName: ninesuperior
Width: 600
VWidth: 0
Flags: W
LayerCount: 2
Fore
SplineSet
144 819 m 257
 178 820 178 820 211.5 831 c 128
 245 842 245 842 275 859.5 c 128
 305 877 305 877 330.5 900.5 c 128
 356 924 356 924 375 951.5 c 128
 394 979 394 979 405 1009 c 128
 416 1039 416 1039 416 1070 c 257
 327 994 l 257
 319 993 319 993 311 992.5 c 128
 303 992 303 992 294 992 c 257
 240 992 240 992 192.5 1008.5 c 128
 145 1025 145 1025 110 1056 c 128
 75 1087 75 1087 55 1131 c 128
 35 1175 35 1175 35 1228 c 257
 35 1284 35 1284 54 1330 c 128
 73 1376 73 1376 108 1409 c 128
 143 1442 143 1442 193 1460 c 128
 243 1478 243 1478 305 1478 c 257
 360 1478 360 1478 402 1462.5 c 128
 444 1447 444 1447 475 1421.5 c 128
 506 1396 506 1396 526.5 1362.5 c 128
 547 1329 547 1329 559.5 1293 c 128
 572 1257 572 1257 577 1221.5 c 128
 582 1186 582 1186 582 1156 c 257
 582 1068 582 1068 554 990 c 128
 526 912 526 912 472.5 853 c 128
 419 794 419 794 341.5 756.5 c 128
 264 719 264 719 165 711 c 257
 144 819 l 257
299 1100 m 257
 316 1100 316 1100 334 1108 c 128
 352 1116 352 1116 368 1129 c 128
 384 1142 384 1142 397 1158.5 c 128
 410 1175 410 1175 418 1192 c 257
 417 1224 417 1224 409 1255.5 c 128
 401 1287 401 1287 386.5 1312.5 c 128
 372 1338 372 1338 352.5 1354 c 128
 333 1370 333 1370 309 1370 c 257
 285 1370 285 1370 265.5 1359 c 128
 246 1348 246 1348 231 1330 c 128
 216 1312 216 1312 208 1288 c 128
 200 1264 200 1264 200 1237 c 257
 200 1210 200 1210 206.5 1185.5 c 128
 213 1161 213 1161 226 1142 c 128
 239 1123 239 1123 257 1111.5 c 128
 275 1100 275 1100 299 1100 c 257
EndSplineSet
EndChar
StartChar: minussuperior
Encoding: 352 8315 352
GlifName: minussuperior
Width: 600
VWidth: 0
Flags: W
LayerCount: 2
Fore
SplineSet
50 1070 m 257
 500 1070 l 257
 500 958 l 257
 50 958 l 257
 50 1070 l 257
EndSplineSet
EndChar
StartChar: parenleftsuperior
Encoding: 404 8317 404
GlifName: parenleftsuperior
Width: 400
VWidth: 0
Flags: W
LayerCount: 2
Fore
SplineSet
72 1296 m 257
 72 1342 72 1342 77 1382.5 c 128
 82 1423 82 1423 100 1453 c 128
 118 1483 118 1483 151.5 1500 c 128
 185 1517 185 1517 242 1517 c 257
 255 1517 255 1517 269 1515 c 128
 283 1513 283 1513 297.5 1509.5 c 128
 312 1506 312 1506 325 1501 c 128
 338 1496 338 1496 348 1489 c 257
 303 1432 l 257
 294 1432 294 1432 282 1429.5 c 128
 270 1427 270 1427 259 1417 c 128
 248 1407 248 1407 240.5 1386.5 c 128
 233 1366 233 1366 233 1330 c 257
 233 694 l 257
 233 657 233 657 240.5 637 c 128
 248 617 248 617 258.5 607.5 c 128
 269 598 269 598 280.5 596 c 128
 292 594 292 594 299 594 c 257
 348 534 l 257
 338 528 338 528 325 522.5 c 128
 312 517 312 517 297.5 513.5 c 128
 283 510 283 510 269 508.5 c 128
 255 507 255 507 242 507 c 257
 185 507 185 507 151.5 525 c 128
 118 543 118 543 100 574.5 c 128
 82 606 82 606 77 647.5 c 128
 72 689 72 689 72 736 c 257
 72 1296 l 257
EndSplineSet
EndChar
StartChar: nsuperior
Encoding: 369 8319 369
GlifName: nsuperior
Width: 600
VWidth: 0
Flags: W
LayerCount: 2
Fore
SplineSet
228 1283 m 257
 228 1188 l 257
 273 1264 l 257
 289 1269 289 1269 305.5 1273.5 c 128
 322 1278 322 1278 340 1278 c 257
 361 1278 361 1278 381.5 1277 c 128
 402 1276 402 1276 420.5 1271 c 128
 439 1266 439 1266 455.5 1257 c 128
 472 1248 472 1248 486 1232 c 257
 502 1215 502 1215 510.5 1195 c 128
 519 1175 519 1175 522.5 1155 c 128
 526 1135 526 1135 527 1116.5 c 128
 528 1098 528 1098 528 1083 c 257
 528 720 l 257
 365 720 l 257
 365 1098 l 257
 365 1119 365 1119 361 1132.5 c 128
 357 1146 357 1146 350.5 1154.5 c 128
 344 1163 344 1163 335 1166.5 c 128
 326 1170 326 1170 315 1170 c 257
 306 1170 306 1170 295.5 1167 c 128
 285 1164 285 1164 273.5 1158.5 c 128
 262 1153 262 1153 250 1145 c 128
 238 1137 238 1137 228 1128 c 257
 228 720 l 257
 65 720 l 257
 65 1266 l 257
 228 1283 l 257
EndSplineSet
EndChar
StartChar: zeroinferior
Encoding: 588 8320 588
GlifName: zeroinferior
Width: 600
VWidth: 0
Flags: W
LayerCount: 2
Fore
SplineSet
299 -508 m 257
 252 -508 252 -508 213 -492 c 128
 174 -476 174 -476 143 -448 c 128
 112 -420 112 -420 88.5 -382.5 c 128
 65 -345 65 -345 49.5 -302.5 c 128
 34 -260 34 -260 26.5 -214.5 c 128
 19 -169 19 -169 19 -125 c 257
 19 -80 19 -80 25.5 -34.5 c 128
 32 11 32 11 46 54 c 128
 60 97 60 97 82.5 134 c 128
 105 171 105 171 136 198.5 c 128
 167 226 167 226 207.5 242 c 128
 248 258 248 258 299 258 c 257
 345 258 345 258 384 241.5 c 128
 423 225 423 225 454 197 c 128
 485 169 485 169 508.5 131.5 c 128
 532 94 532 94 547.5 51.5 c 128
 563 9 563 9 571 -36.5 c 128
 579 -82 579 -82 579 -125 c 257
 579 -170 579 -170 572 -216 c 128
 565 -262 565 -262 551 -304.5 c 128
 537 -347 537 -347 515 -384 c 128
 493 -421 493 -421 461.5 -449 c 128
 430 -477 430 -477 389.5 -492.5 c 128
 349 -508 349 -508 299 -508 c 257
193 -105 m 257
 193 -130 193 -130 194.5 -161 c 128
 196 -192 196 -192 200 -223.5 c 128
 204 -255 204 -255 211.5 -284.5 c 128
 219 -314 219 -314 231.5 -337 c 128
 244 -360 244 -360 261 -373.5 c 128
 278 -387 278 -387 302 -387 c 257
 323 -387 323 -387 339 -377 c 128
 355 -367 355 -367 366.5 -349 c 128
 378 -331 378 -331 385.5 -307.5 c 128
 393 -284 393 -284 397 -257 c 128
 401 -230 401 -230 403 -201.5 c 128
 405 -173 405 -173 405 -146 c 257
 405 -120 405 -120 403.5 -89 c 128
 402 -58 402 -58 397.5 -27 c 128
 393 4 393 4 385.5 33.5 c 128
 378 63 378 63 366 86 c 128
 354 109 354 109 336.5 122.5 c 128
 319 136 319 136 295 136 c 257
 274 136 274 136 258 126 c 128
 242 116 242 116 230.5 98 c 128
 219 80 219 80 212 56.5 c 128
 205 33 205 33 200.5 6 c 128
 196 -21 196 -21 194.5 -49.5 c 128
 193 -78 193 -78 193 -105 c 257
EndSplineSet
EndChar
StartChar: oneinferior
Encoding: 387 8321 387
GlifName: oneinferior
Width: 600
VWidth: 0
Flags: W
LayerCount: 2
Fore
SplineSet
265 -60 m 257
 302 121 l 257
 188 -14 l 257
 146 -51 l 257
 69 41 l 257
 309 262 l 257
 430 246 l 257
 430 -400 l 257
 552 -400 l 257
 552 -500 l 257
 143 -500 l 257
 143 -400 l 257
 265 -400 l 257
 265 -60 l 257
EndSplineSet
EndChar
StartChar: threeinferior
Encoding: 523 8323 523
GlifName: threeinferior
Width: 600
VWidth: 0
Flags: W
LayerCount: 2
Fore
SplineSet
131 -31 m 257
 146 -21 146 -21 166.5 -6 c 128
 187 9 187 9 210 27 c 128
 233 45 233 45 257.5 65 c 128
 282 85 282 85 304 105.5 c 128
 326 126 326 126 344.5 147 c 128
 363 168 363 168 375 187 c 257
 245 150 l 257
 80 150 l 257
 90 250 l 257
 511 250 l 257
 511 163 l 257
 496 124 496 124 467 91 c 128
 438 58 438 58 402 26 c 257
 324 -16 l 257
 377 -16 377 -16 420 -29.5 c 128
 463 -43 463 -43 493.5 -68.5 c 128
 524 -94 524 -94 541 -131 c 128
 558 -168 558 -168 558 -214 c 257
 558 -263 558 -263 537.5 -303.5 c 128
 517 -344 517 -344 482 -376 c 128
 447 -408 447 -408 399.5 -431.5 c 128
 352 -455 352 -455 298.5 -470 c 128
 245 -485 245 -485 187.5 -492.5 c 128
 130 -500 130 -500 75 -500 c 257
 75 -400 l 257
 134 -398 134 -398 190 -384.5 c 128
 246 -371 246 -371 290 -348 c 128
 334 -325 334 -325 360.5 -292 c 128
 387 -259 387 -259 387 -219 c 257
 387 -190 387 -190 375 -170 c 128
 363 -150 363 -150 342 -138 c 128
 321 -126 321 -126 293 -120.5 c 128
 265 -115 265 -115 234 -115 c 257
 227 -115 227 -115 212.5 -116 c 128
 198 -117 198 -117 182.5 -117.5 c 128
 167 -118 167 -118 152.5 -119 c 128
 138 -120 138 -120 131 -120 c 257
 131 -31 l 257
EndSplineSet
EndChar
StartChar: fourinferior
Encoding: 283 8324 283
GlifName: fourinferior
Width: 600
VWidth: 0
Flags: W
LayerCount: 2
Fore
SplineSet
569 -350 m 257
 480 -350 l 257
 480 -500 l 257
 320 -500 l 257
 320 -350 l 257
 20 -350 l 257
 20 -250 l 257
 267 262 l 257
 425 246 l 257
 261 -119 l 257
 174 -250 l 257
 320 -250 l 257
 320 -101 l 257
 480 -114 l 257
 480 -250 l 257
 580 -250 l 257
 569 -350 l 257
EndSplineSet
EndChar
StartChar: nineinferior
Encoding: 362 8329 362
GlifName: nineinferior
Width: 600
VWidth: 0
Flags: W
LayerCount: 2
Fore
SplineSet
144 -401 m 257
 178 -400 178 -400 211.5 -389 c 128
 245 -378 245 -378 275 -360.5 c 128
 305 -343 305 -343 330.5 -319.5 c 128
 356 -296 356 -296 375 -268.5 c 128
 394 -241 394 -241 405 -211 c 128
 416 -181 416 -181 416 -150 c 257
 327 -226 l 257
 319 -227 319 -227 311 -227.5 c 128
 303 -228 303 -228 294 -228 c 257
 240 -228 240 -228 192.5 -211.5 c 128
 145 -195 145 -195 110 -164 c 128
 75 -133 75 -133 55 -89 c 128
 35 -45 35 -45 35 8 c 257
 35 64 35 64 54 110 c 128
 73 156 73 156 108 189 c 128
 143 222 143 222 193 240 c 128
 243 258 243 258 305 258 c 257
 360 258 360 258 402 242.5 c 128
 444 227 444 227 475 201.5 c 128
 506 176 506 176 526.5 142.5 c 128
 547 109 547 109 559.5 73 c 128
 572 37 572 37 577 1.5 c 128
 582 -34 582 -34 582 -64 c 257
 582 -152 582 -152 554 -230 c 128
 526 -308 526 -308 472.5 -367 c 128
 419 -426 419 -426 341.5 -463.5 c 128
 264 -501 264 -501 165 -509 c 257
 144 -401 l 257
299 -120 m 257
 316 -120 316 -120 334 -112 c 128
 352 -104 352 -104 368 -91 c 128
 384 -78 384 -78 397 -61.5 c 128
 410 -45 410 -45 418 -28 c 257
 417 4 417 4 409 35.5 c 128
 401 67 401 67 386.5 92.5 c 128
 372 118 372 118 352.5 134 c 128
 333 150 333 150 309 150 c 257
 285 150 285 150 265.5 139 c 128
 246 128 246 128 231 110 c 128
 216 92 216 92 208 68 c 128
 200 44 200 44 200 17 c 257
 200 -10 200 -10 206.5 -34.5 c 128
 213 -59 213 -59 226 -78 c 128
 239 -97 239 -97 257 -108.5 c 128
 275 -120 275 -120 299 -120 c 257
EndSplineSet
EndChar
StartChar: trademark
Encoding: 530 8482 530
GlifName: trademark
Width: 1700
VWidth: 0
Flags: W
LayerCount: 2
Fore
SplineSet
398 900 m 257
 398 1400 l 257
 208 1400 l 257
 208 1500 l 257
 789 1500 l 257
 789 1400 l 257
 599 1400 l 257
 599 900 l 257
 398 900 l 257
1299 900 m 257
 1299 1290 l 257
 1249 1120 l 257
 1169 950 l 257
 1129 950 l 257
 1049 1120 l 257
 999 1290 l 257
 999 900 l 257
 819 900 l 257
 819 1500 l 257
 1039 1500 l 257
 1109 1380 l 257
 1149 1230 l 257
 1189 1380 l 257
 1259 1500 l 257
 1479 1500 l 257
 1479 900 l 257
 1299 900 l 257
EndSplineSet
EndChar
StartChar: scriptsmallo
Encoding: 466 8500 466
GlifName: scriptsmallo
Width: 1100
VWidth: 0
Flags: W
LayerCount: 2
Fore
SplineSet
367 -17 m 257
 297 -17 297 -17 243 5 c 128
 189 27 189 27 152.5 66.5 c 128
 116 106 116 106 97 161.5 c 128
 78 217 78 217 78 284 c 257
 78 358 78 358 96 431.5 c 128
 114 505 114 505 148 571.5 c 128
 182 638 182 638 230.5 695.5 c 128
 279 753 279 753 340 795 c 128
 401 837 401 837 473 861 c 128
 545 885 545 885 626 885 c 257
 695 885 695 885 749.5 864 c 128
 804 843 804 843 841.5 804 c 128
 879 765 879 765 898.5 710.5 c 128
 918 656 918 656 918 590 c 257
 918 516 918 516 899.5 442.5 c 128
 881 369 881 369 847 302 c 128
 813 235 813 235 764 176.5 c 128
 715 118 715 118 653.5 75 c 128
 592 32 592 32 520 7.5 c 128
 448 -17 448 -17 367 -17 c 257
748 558 m 257
 748 597 748 597 740.5 631.5 c 128
 733 666 733 666 715 691.5 c 128
 697 717 697 717 667.5 731.5 c 128
 638 746 638 746 593 746 c 257
 539 746 539 746 492.5 727 c 128
 446 708 446 708 407.5 675.5 c 128
 369 643 369 643 339 599.5 c 128
 309 556 309 556 288.5 507.5 c 128
 268 459 268 459 257 408 c 128
 246 357 246 357 246 310 c 257
 246 270 246 270 253.5 236 c 128
 261 202 261 202 279 177 c 128
 297 152 297 152 327 137.5 c 128
 357 123 357 123 401 123 c 257
 482 123 482 123 546 162 c 128
 610 201 610 201 655 263.5 c 128
 700 326 700 326 724 403.5 c 128
 748 481 748 481 748 558 c 257
EndSplineSet
EndChar
StartChar: twothirds
Encoding: 541 8532 541
GlifName: twothirds
Width: 1500
VWidth: 0
Flags: W
LayerCount: 2
Fore
SplineSet
474 0 m 257
 289 0 l 257
 1064 1500 l 257
 1240 1500 l 257
 474 0 l 257
74 722 m 257
 74 817 l 257
 97 854 97 854 128 894.5 c 128
 159 935 159 935 191.5 974.5 c 128
 224 1014 224 1014 255 1049 c 128
 286 1084 286 1084 309 1109 c 257
 336 1138 336 1138 355 1158 c 128
 374 1178 374 1178 385.5 1195 c 128
 397 1212 397 1212 402.5 1229.5 c 128
 408 1247 408 1247 408 1270 c 257
 408 1289 408 1289 401.5 1307 c 128
 395 1325 395 1325 383.5 1339.5 c 128
 372 1354 372 1354 356 1363 c 128
 340 1372 340 1372 319 1372 c 257
 278 1372 278 1372 247 1344.5 c 128
 216 1317 216 1317 192 1270 c 257
 76 1313 l 257
 90 1352 90 1352 113 1382.5 c 128
 136 1413 136 1413 167.5 1435 c 128
 199 1457 199 1457 238.5 1468.5 c 128
 278 1480 278 1480 327 1480 c 257
 384 1480 384 1480 428.5 1461.5 c 128
 473 1443 473 1443 503.5 1412.5 c 128
 534 1382 534 1382 550 1343 c 128
 566 1304 566 1304 566 1265 c 257
 566 1230 566 1230 555 1200.5 c 128
 544 1171 544 1171 525.5 1143.5 c 128
 507 1116 507 1116 483.5 1089 c 128
 460 1062 460 1062 435 1032 c 257
 410 1002 410 1002 383.5 971 c 128
 357 940 357 940 332.5 912 c 128
 308 884 308 884 288.5 860.5 c 128
 269 837 269 837 258 822 c 257
 579 822 l 257
 579 722 l 257
 74 722 l 257
959 507 m 257
 974 517 974 517 994.5 532 c 128
 1015 547 1015 547 1038 565 c 128
 1061 583 1061 583 1085.5 603 c 128
 1110 623 1110 623 1132 643.5 c 128
 1154 664 1154 664 1172.5 685 c 128
 1191 706 1191 706 1203 725 c 257
 1073 688 l 257
 908 688 l 257
 918 788 l 257
 1339 788 l 257
 1339 701 l 257
 1324 662 1324 662 1295 629 c 128
 1266 596 1266 596 1230 564 c 257
 1152 522 l 257
 1205 522 1205 522 1248 508.5 c 128
 1291 495 1291 495 1321.5 469.5 c 128
 1352 444 1352 444 1369 407 c 128
 1386 370 1386 370 1386 324 c 257
 1386 275 1386 275 1365.5 234.5 c 128
 1345 194 1345 194 1310 162 c 128
 1275 130 1275 130 1227.5 106.5 c 128
 1180 83 1180 83 1126.5 68 c 128
 1073 53 1073 53 1015.5 45.5 c 128
 958 38 958 38 903 38 c 257
 903 138 l 257
 962 140 962 140 1018 153.5 c 128
 1074 167 1074 167 1118 190 c 128
 1162 213 1162 213 1188.5 246 c 128
 1215 279 1215 279 1215 319 c 257
 1215 348 1215 348 1203 368 c 128
 1191 388 1191 388 1170 400 c 128
 1149 412 1149 412 1121 417.5 c 128
 1093 423 1093 423 1062 423 c 257
 1055 423 1055 423 1040.5 422 c 128
 1026 421 1026 421 1010.5 420.5 c 128
 995 420 995 420 980.5 419 c 128
 966 418 966 418 959 418 c 257
 959 507 l 257
EndSplineSet
EndChar
StartChar: fourfifths
Encoding: 282 8536 282
GlifName: fourfifths
Width: 1500
VWidth: 0
Flags: W
LayerCount: 2
Fore
SplineSet
474 0 m 257
 289 0 l 257
 1064 1500 l 257
 1240 1500 l 257
 474 0 l 257
1073 561 m 257
 1085 564 1085 564 1099.5 565.5 c 128
 1114 567 1114 567 1131 567 c 257
 1189 567 1189 567 1235 550 c 128
 1281 533 1281 533 1312.5 503.5 c 128
 1344 474 1344 474 1361 435 c 128
 1378 396 1378 396 1378 351 c 257
 1378 299 1378 299 1357.5 256 c 128
 1337 213 1337 213 1301.5 178.5 c 128
 1266 144 1266 144 1219 117.5 c 128
 1172 91 1172 91 1119 73.5 c 128
 1066 56 1066 56 1009.5 47 c 128
 953 38 953 38 899 38 c 257
 899 151 l 257
 934 152 934 152 971.5 159 c 128
 1009 166 1009 166 1044 178 c 128
 1079 190 1079 190 1110 207 c 128
 1141 224 1141 224 1164 244.5 c 128
 1187 265 1187 265 1200.5 289.5 c 128
 1214 314 1214 314 1214 341 c 257
 1214 361 1214 361 1207 380.5 c 128
 1200 400 1200 400 1187.5 415 c 128
 1175 430 1175 430 1157.5 439.5 c 128
 1140 449 1140 449 1118 449 c 257
 1099 449 1099 449 1082.5 446 c 128
 1066 443 1066 443 1052.5 438 c 128
 1039 433 1039 433 1029 427.5 c 128
 1019 422 1019 422 1011 417 c 257
 899 417 l 257
 899 788 l 257
 1332 788 l 257
 1332 688 l 257
 1073 688 l 257
 1073 561 l 257
587 872 m 257
 498 872 l 257
 498 722 l 257
 338 722 l 257
 338 872 l 257
 38 872 l 257
 38 972 l 257
 285 1484 l 257
 443 1468 l 257
 279 1103 l 257
 192 972 l 257
 338 972 l 257
 338 1121 l 257
 498 1108 l 257
 498 972 l 257
 598 972 l 257
 587 872 l 257
EndSplineSet
EndChar
StartChar: oneeighth
Encoding: 384 8539 384
GlifName: oneeighth
Width: 1500
VWidth: 0
Flags: W
LayerCount: 2
Fore
SplineSet
474 0 m 257
 289 0 l 257
 1064 1500 l 257
 1240 1500 l 257
 474 0 l 257
284 1162 m 257
 321 1343 l 257
 207 1208 l 257
 165 1171 l 257
 88 1263 l 257
 328 1484 l 257
 449 1468 l 257
 449 822 l 257
 571 822 l 257
 571 722 l 257
 162 722 l 257
 162 822 l 257
 284 822 l 257
 284 1162 l 257
1137 796 m 257
 1188 796 1188 796 1232 783 c 128
 1276 770 1276 770 1308 745 c 128
 1340 720 1340 720 1358 684.5 c 128
 1376 649 1376 649 1376 605 c 257
 1376 579 1376 579 1366 557.5 c 128
 1356 536 1356 536 1340 518 c 128
 1324 500 1324 500 1304 485.5 c 128
 1284 471 1284 471 1264 460 c 257
 1297 444 1297 444 1326 422.5 c 128
 1355 401 1355 401 1376.5 375 c 128
 1398 349 1398 349 1410 318 c 128
 1422 287 1422 287 1422 251 c 257
 1422 194 1422 194 1398 152 c 128
 1374 110 1374 110 1334.5 82.5 c 128
 1295 55 1295 55 1244 42 c 128
 1193 29 1193 29 1140 29 c 257
 1088 29 1088 29 1039 44 c 128
 990 59 990 59 952.5 88 c 128
 915 117 915 117 892.5 159.5 c 128
 870 202 870 202 870 258 c 257
 870 294 870 294 880.5 324.5 c 128
 891 355 891 355 910.5 380.5 c 128
 930 406 930 406 956 426.5 c 128
 982 447 982 447 1014 462 c 257
 991 475 991 475 971.5 490.5 c 128
 952 506 952 506 937.5 523 c 128
 923 540 923 540 914.5 559 c 128
 906 578 906 578 906 600 c 257
 906 651 906 651 928 688 c 128
 950 725 950 725 984 749 c 128
 1018 773 1018 773 1058.5 784.5 c 128
 1099 796 1099 796 1137 796 c 257
1260 249 m 257
 1260 276 1260 276 1248.5 298 c 128
 1237 320 1237 320 1218.5 337.5 c 128
 1200 355 1200 355 1177.5 369 c 128
 1155 383 1155 383 1132 393 c 257
 1111 383 1111 383 1092.5 369 c 128
 1074 355 1074 355 1060.5 337 c 128
 1047 319 1047 319 1039.5 297 c 128
 1032 275 1032 275 1032 248 c 257
 1032 224 1032 224 1041.5 203.5 c 128
 1051 183 1051 183 1066.5 168.5 c 128
 1082 154 1082 154 1101.5 146 c 128
 1121 138 1121 138 1140 138 c 257
 1163 138 1163 138 1184.5 145.5 c 128
 1206 153 1206 153 1222.5 167 c 128
 1239 181 1239 181 1249.5 201.5 c 128
 1260 222 1260 222 1260 249 c 257
1066 616 m 257
 1066 599 1066 599 1073 584.5 c 128
 1080 570 1080 570 1092 558 c 128
 1104 546 1104 546 1119 536.5 c 128
 1134 527 1134 527 1150 520 c 257
 1164 527 1164 527 1176 537 c 128
 1188 547 1188 547 1196.5 558.5 c 128
 1205 570 1205 570 1210.5 584 c 128
 1216 598 1216 598 1216 614 c 257
 1216 633 1216 633 1208.5 647 c 128
 1201 661 1201 661 1190.5 670 c 128
 1180 679 1180 679 1168 683.5 c 128
 1156 688 1156 688 1146 688 c 257
 1132 688 1132 688 1117.5 682.5 c 128
 1103 677 1103 677 1092 667 c 128
 1081 657 1081 657 1073.5 644 c 128
 1066 631 1066 631 1066 616 c 257
EndSplineSet
EndChar
StartChar: threeeighths
Encoding: 521 8540 521
GlifName: threeeighths
Width: 1500
VWidth: 0
Flags: W
LayerCount: 2
Fore
SplineSet
474 0 m 257
 289 0 l 257
 1064 1500 l 257
 1240 1500 l 257
 474 0 l 257
150 1191 m 257
 165 1201 165 1201 185.5 1216 c 128
 206 1231 206 1231 229 1249 c 128
 252 1267 252 1267 276.5 1287 c 128
 301 1307 301 1307 323 1327.5 c 128
 345 1348 345 1348 363.5 1369 c 128
 382 1390 382 1390 394 1409 c 257
 264 1372 l 257
 99 1372 l 257
 109 1472 l 257
 530 1472 l 257
 530 1385 l 257
 515 1346 515 1346 486 1313 c 128
 457 1280 457 1280 421 1248 c 257
 343 1206 l 257
 396 1206 396 1206 439 1192.5 c 128
 482 1179 482 1179 512.5 1153.5 c 128
 543 1128 543 1128 560 1091 c 128
 577 1054 577 1054 577 1008 c 257
 577 959 577 959 556.5 918.5 c 128
 536 878 536 878 501 846 c 128
 466 814 466 814 418.5 790.5 c 128
 371 767 371 767 317.5 752 c 128
 264 737 264 737 206.5 729.5 c 128
 149 722 149 722 94 722 c 257
 94 822 l 257
 153 824 153 824 209 837.5 c 128
 265 851 265 851 309 874 c 128
 353 897 353 897 379.5 930 c 128
 406 963 406 963 406 1003 c 257
 406 1032 406 1032 394 1052 c 128
 382 1072 382 1072 361 1084 c 128
 340 1096 340 1096 312 1101.5 c 128
 284 1107 284 1107 253 1107 c 257
 246 1107 246 1107 231.5 1106 c 128
 217 1105 217 1105 201.5 1104.5 c 128
 186 1104 186 1104 171.5 1103 c 128
 157 1102 157 1102 150 1102 c 257
 150 1191 l 257
1137 796 m 257
 1188 796 1188 796 1232 783 c 128
 1276 770 1276 770 1308 745 c 128
 1340 720 1340 720 1358 684.5 c 128
 1376 649 1376 649 1376 605 c 257
 1376 579 1376 579 1366 557.5 c 128
 1356 536 1356 536 1340 518 c 128
 1324 500 1324 500 1304 485.5 c 128
 1284 471 1284 471 1264 460 c 257
 1297 444 1297 444 1326 422.5 c 128
 1355 401 1355 401 1376.5 375 c 128
 1398 349 1398 349 1410 318 c 128
 1422 287 1422 287 1422 251 c 257
 1422 194 1422 194 1398 152 c 128
 1374 110 1374 110 1334.5 82.5 c 128
 1295 55 1295 55 1244 42 c 128
 1193 29 1193 29 1140 29 c 257
 1088 29 1088 29 1039 44 c 128
 990 59 990 59 952.5 88 c 128
 915 117 915 117 892.5 159.5 c 128
 870 202 870 202 870 258 c 257
 870 294 870 294 880.5 324.5 c 128
 891 355 891 355 910.5 380.5 c 128
 930 406 930 406 956 426.5 c 128
 982 447 982 447 1014 462 c 257
 991 475 991 475 971.5 490.5 c 128
 952 506 952 506 937.5 523 c 128
 923 540 923 540 914.5 559 c 128
 906 578 906 578 906 600 c 257
 906 651 906 651 928 688 c 128
 950 725 950 725 984 749 c 128
 1018 773 1018 773 1058.5 784.5 c 128
 1099 796 1099 796 1137 796 c 257
1260 249 m 257
 1260 276 1260 276 1248.5 298 c 128
 1237 320 1237 320 1218.5 337.5 c 128
 1200 355 1200 355 1177.5 369 c 128
 1155 383 1155 383 1132 393 c 257
 1111 383 1111 383 1092.5 369 c 128
 1074 355 1074 355 1060.5 337 c 128
 1047 319 1047 319 1039.5 297 c 128
 1032 275 1032 275 1032 248 c 257
 1032 224 1032 224 1041.5 203.5 c 128
 1051 183 1051 183 1066.5 168.5 c 128
 1082 154 1082 154 1101.5 146 c 128
 1121 138 1121 138 1140 138 c 257
 1163 138 1163 138 1184.5 145.5 c 128
 1206 153 1206 153 1222.5 167 c 128
 1239 181 1239 181 1249.5 201.5 c 128
 1260 222 1260 222 1260 249 c 257
1066 616 m 257
 1066 599 1066 599 1073 584.5 c 128
 1080 570 1080 570 1092 558 c 128
 1104 546 1104 546 1119 536.5 c 128
 1134 527 1134 527 1150 520 c 257
 1164 527 1164 527 1176 537 c 128
 1188 547 1188 547 1196.5 558.5 c 128
 1205 570 1205 570 1210.5 584 c 128
 1216 598 1216 598 1216 614 c 257
 1216 633 1216 633 1208.5 647 c 128
 1201 661 1201 661 1190.5 670 c 128
 1180 679 1180 679 1168 683.5 c 128
 1156 688 1156 688 1146 688 c 257
 1132 688 1132 688 1117.5 682.5 c 128
 1103 677 1103 677 1092 667 c 128
 1081 657 1081 657 1073.5 644 c 128
 1066 631 1066 631 1066 616 c 257
EndSplineSet
EndChar
StartChar: fiveeighths
Encoding: 271 8541 271
GlifName: fiveeighths
Width: 1500
VWidth: 0
Flags: W
LayerCount: 2
Fore
SplineSet
474 0 m 257
 289 0 l 257
 1064 1500 l 257
 1240 1500 l 257
 474 0 l 257
1137 796 m 257
 1188 796 1188 796 1232 783 c 128
 1276 770 1276 770 1308 745 c 128
 1340 720 1340 720 1358 684.5 c 128
 1376 649 1376 649 1376 605 c 257
 1376 579 1376 579 1366 557.5 c 128
 1356 536 1356 536 1340 518 c 128
 1324 500 1324 500 1304 485.5 c 128
 1284 471 1284 471 1264 460 c 257
 1297 444 1297 444 1326 422.5 c 128
 1355 401 1355 401 1376.5 375 c 128
 1398 349 1398 349 1410 318 c 128
 1422 287 1422 287 1422 251 c 257
 1422 194 1422 194 1398 152 c 128
 1374 110 1374 110 1334.5 82.5 c 128
 1295 55 1295 55 1244 42 c 128
 1193 29 1193 29 1140 29 c 257
 1088 29 1088 29 1039 44 c 128
 990 59 990 59 952.5 88 c 128
 915 117 915 117 892.5 159.5 c 128
 870 202 870 202 870 258 c 257
 870 294 870 294 880.5 324.5 c 128
 891 355 891 355 910.5 380.5 c 128
 930 406 930 406 956 426.5 c 128
 982 447 982 447 1014 462 c 257
 991 475 991 475 971.5 490.5 c 128
 952 506 952 506 937.5 523 c 128
 923 540 923 540 914.5 559 c 128
 906 578 906 578 906 600 c 257
 906 651 906 651 928 688 c 128
 950 725 950 725 984 749 c 128
 1018 773 1018 773 1058.5 784.5 c 128
 1099 796 1099 796 1137 796 c 257
1260 249 m 257
 1260 276 1260 276 1248.5 298 c 128
 1237 320 1237 320 1218.5 337.5 c 128
 1200 355 1200 355 1177.5 369 c 128
 1155 383 1155 383 1132 393 c 257
 1111 383 1111 383 1092.5 369 c 128
 1074 355 1074 355 1060.5 337 c 128
 1047 319 1047 319 1039.5 297 c 128
 1032 275 1032 275 1032 248 c 257
 1032 224 1032 224 1041.5 203.5 c 128
 1051 183 1051 183 1066.5 168.5 c 128
 1082 154 1082 154 1101.5 146 c 128
 1121 138 1121 138 1140 138 c 257
 1163 138 1163 138 1184.5 145.5 c 128
 1206 153 1206 153 1222.5 167 c 128
 1239 181 1239 181 1249.5 201.5 c 128
 1260 222 1260 222 1260 249 c 257
1066 616 m 257
 1066 599 1066 599 1073 584.5 c 128
 1080 570 1080 570 1092 558 c 128
 1104 546 1104 546 1119 536.5 c 128
 1134 527 1134 527 1150 520 c 257
 1164 527 1164 527 1176 537 c 128
 1188 547 1188 547 1196.5 558.5 c 128
 1205 570 1205 570 1210.5 584 c 128
 1216 598 1216 598 1216 614 c 257
 1216 633 1216 633 1208.5 647 c 128
 1201 661 1201 661 1190.5 670 c 128
 1180 679 1180 679 1168 683.5 c 128
 1156 688 1156 688 1146 688 c 257
 1132 688 1132 688 1117.5 682.5 c 128
 1103 677 1103 677 1092 667 c 128
 1081 657 1081 657 1073.5 644 c 128
 1066 631 1066 631 1066 616 c 257
264 1245 m 257
 276 1248 276 1248 290.5 1249.5 c 128
 305 1251 305 1251 322 1251 c 257
 380 1251 380 1251 426 1234 c 128
 472 1217 472 1217 503.5 1187.5 c 128
 535 1158 535 1158 552 1119 c 128
 569 1080 569 1080 569 1035 c 257
 569 983 569 983 548.5 940 c 128
 528 897 528 897 492.5 862.5 c 128
 457 828 457 828 410 801.5 c 128
 363 775 363 775 310 757.5 c 128
 257 740 257 740 200.5 731 c 128
 144 722 144 722 90 722 c 257
 90 835 l 257
 125 836 125 836 162.5 843 c 128
 200 850 200 850 235 862 c 128
 270 874 270 874 301 891 c 128
 332 908 332 908 355 928.5 c 128
 378 949 378 949 391.5 973.5 c 128
 405 998 405 998 405 1025 c 257
 405 1045 405 1045 398 1064.5 c 128
 391 1084 391 1084 378.5 1099 c 128
 366 1114 366 1114 348.5 1123.5 c 128
 331 1133 331 1133 309 1133 c 257
 290 1133 290 1133 273.5 1130 c 128
 257 1127 257 1127 243.5 1122 c 128
 230 1117 230 1117 220 1111.5 c 128
 210 1106 210 1106 202 1101 c 257
 90 1101 l 257
 90 1472 l 257
 523 1472 l 257
 523 1372 l 257
 264 1372 l 257
 264 1245 l 257
EndSplineSet
EndChar
StartChar: seveneighths
Encoding: 472 8542 472
GlifName: seveneighths
Width: 1500
VWidth: 0
Flags: W
LayerCount: 2
Fore
SplineSet
473 0 m 257
 288 0 l 257
 1063 1500 l 257
 1239 1500 l 257
 473 0 l 257
1136 796 m 257
 1187 796 1187 796 1231 783 c 128
 1275 770 1275 770 1307 745 c 128
 1339 720 1339 720 1357 684.5 c 128
 1375 649 1375 649 1375 605 c 257
 1375 579 1375 579 1365 557.5 c 128
 1355 536 1355 536 1339 518 c 128
 1323 500 1323 500 1303 485.5 c 128
 1283 471 1283 471 1263 460 c 257
 1296 444 1296 444 1325 422.5 c 128
 1354 401 1354 401 1375.5 375 c 128
 1397 349 1397 349 1409 318 c 128
 1421 287 1421 287 1421 251 c 257
 1421 194 1421 194 1397 152 c 128
 1373 110 1373 110 1333.5 82.5 c 128
 1294 55 1294 55 1243 42 c 128
 1192 29 1192 29 1139 29 c 257
 1087 29 1087 29 1038 44 c 128
 989 59 989 59 951.5 88 c 128
 914 117 914 117 891.5 159.5 c 128
 869 202 869 202 869 258 c 257
 869 294 869 294 879.5 324.5 c 128
 890 355 890 355 909.5 380.5 c 128
 929 406 929 406 955 426.5 c 128
 981 447 981 447 1013 462 c 257
 990 475 990 475 970.5 490.5 c 128
 951 506 951 506 936.5 523 c 128
 922 540 922 540 913.5 559 c 128
 905 578 905 578 905 600 c 257
 905 651 905 651 927 688 c 128
 949 725 949 725 983 749 c 128
 1017 773 1017 773 1057.5 784.5 c 128
 1098 796 1098 796 1136 796 c 257
1259 249 m 257
 1259 276 1259 276 1247.5 298 c 128
 1236 320 1236 320 1217.5 337.5 c 128
 1199 355 1199 355 1176.5 369 c 128
 1154 383 1154 383 1131 393 c 257
 1110 383 1110 383 1091.5 369 c 128
 1073 355 1073 355 1059.5 337 c 128
 1046 319 1046 319 1038.5 297 c 128
 1031 275 1031 275 1031 248 c 257
 1031 224 1031 224 1040.5 203.5 c 128
 1050 183 1050 183 1065.5 168.5 c 128
 1081 154 1081 154 1100.5 146 c 128
 1120 138 1120 138 1139 138 c 257
 1162 138 1162 138 1183.5 145.5 c 128
 1205 153 1205 153 1221.5 167 c 128
 1238 181 1238 181 1248.5 201.5 c 128
 1259 222 1259 222 1259 249 c 257
1065 616 m 257
 1065 599 1065 599 1072 584.5 c 128
 1079 570 1079 570 1091 558 c 128
 1103 546 1103 546 1118 536.5 c 128
 1133 527 1133 527 1149 520 c 257
 1163 527 1163 527 1175 537 c 128
 1187 547 1187 547 1195.5 558.5 c 128
 1204 570 1204 570 1209.5 584 c 128
 1215 598 1215 598 1215 614 c 257
 1215 633 1215 633 1207.5 647 c 128
 1200 661 1200 661 1189.5 670 c 128
 1179 679 1179 679 1167 683.5 c 128
 1155 688 1155 688 1145 688 c 257
 1131 688 1131 688 1116.5 682.5 c 128
 1102 677 1102 677 1091 667 c 128
 1080 657 1080 657 1072.5 644 c 128
 1065 631 1065 631 1065 616 c 257
88 1472 m 257
 591 1472 l 257
 591 1391 l 257
 591 1378 591 1378 584 1359 c 128
 577 1340 577 1340 564.5 1316.5 c 128
 552 1293 552 1293 536 1266 c 128
 520 1239 520 1239 502 1210 c 257
 481 1175 481 1175 458 1135.5 c 128
 435 1096 435 1096 415 1055 c 128
 395 1014 395 1014 380.5 973 c 128
 366 932 366 932 362 895 c 257
 360 877 360 877 358.5 855 c 128
 357 833 357 833 356.5 809.5 c 128
 356 786 356 786 356 763.5 c 128
 356 741 356 741 356 722 c 257
 188 722 l 257
 188 738 188 738 188 765 c 128
 188 792 188 792 189.5 822 c 128
 191 852 191 852 193 881 c 128
 195 910 195 910 200 931 c 257
 209 975 209 975 226.5 1020.5 c 128
 244 1066 244 1066 265 1109 c 128
 286 1152 286 1152 309.5 1191.5 c 128
 333 1231 333 1231 354 1265 c 257
 371 1293 371 1293 385.5 1317 c 128
 400 1341 400 1341 406 1358 c 257
 88 1358 l 257
 88 1472 l 257
EndSplineSet
EndChar
StartChar: arrowupdn
Encoding: 132 8597 132
GlifName: arrowupdn
Width: 1000
VWidth: 0
Flags: W
LayerCount: 2
Fore
SplineSet
600 467 m 257
 588 363 l 257
 663 420 l 257
 900 420 l 257
 600 119 l 257
 500 0 l 257
 400 120 l 257
 100 420 l 257
 335 420 l 257
 410 363 l 257
 400 467 l 257
 400 1053 l 257
 410 1157 l 257
 335 1100 l 257
 100 1100 l 257
 400 1400 l 257
 500 1520 l 257
 600 1401 l 257
 900 1100 l 257
 663 1100 l 257
 588 1157 l 257
 600 1053 l 257
 600 467 l 257
EndSplineSet
EndChar
StartChar: arrowdblnorthwest
Encoding: 120 8662 120
GlifName: arrowdblnorthwest
Width: 1300
VWidth: 0
Flags: W
LayerCount: 2
Fore
SplineSet
228 1100 m 257
 746 1100 l 257
 866 979 l 257
 520 979 l 257
 582 900 l 257
 1219 262 l 257
 1137 180 l 257
 606 712 l 257
 378 979 l 257
 206 993 l 257
 220 821 l 257
 487 593 l 257
 1019 62 l 257
 937 -20 l 257
 299 617 l 257
 220 680 l 257
 220 333 l 257
 99 453 l 257
 99 971 l 257
 88 1111 l 257
 228 1100 l 257
EndSplineSet
EndChar
StartChar: shift
Encoding: 477 8679 477
GlifName: shift
Width: 1200
VWidth: 0
Flags: W
LayerCount: 2
Fore
SplineSet
599 1430 m 257
 690 1323 l 257
 1072 957 l 257
 1072 855 l 257
 917 855 l 257
 909 755 l 257
 909 0 l 257
 289 0 l 257
 289 755 l 257
 280 855 l 257
 126 855 l 257
 126 957 l 257
 508 1323 l 257
 599 1430 l 257
399 662 m 257
 399 100 l 257
 799 100 l 257
 799 662 l 257
 820 937 l 257
 932 937 l 257
 599 1273 l 257
 266 937 l 257
 379 937 l 257
 399 662 l 257
EndSplineSet
EndChar
StartChar: gradient
Encoding: 292 8711 292
GlifName: gradient
Width: 1600
VWidth: 0
Flags: W
LayerCount: 2
Fore
SplineSet
64 1500 m 257
 1536 1500 l 257
 913 0 l 257
 686 0 l 257
 64 1500 l 257
391 1340 m 257
 268 1392 l 257
 350 1300 l 257
 766 242 l 257
 801 75 l 257
 836 242 l 257
 1252 1300 l 257
 1337 1392 l 257
 1211 1340 l 257
 391 1340 l 257
EndSplineSet
EndChar
StartChar: minus
Encoding: 349 8722 349
GlifName: minus
Width: 1100
VWidth: 0
Flags: W
LayerCount: 2
Fore
SplineSet
100 700 m 257
 1000 700 l 257
 1000 545 l 257
 100 545 l 257
 100 700 l 257
EndSplineSet
EndChar
StartChar: minusplus
Encoding: 351 8723 351
GlifName: minusplus
Width: 1100
VWidth: 0
Flags: W
LayerCount: 2
Fore
SplineSet
100 1200 m 257
 1000 1200 l 257
 1000 1060 l 257
 100 1060 l 257
 100 1200 l 257
100 612 m 257
 473 612 l 257
 473 949 l 257
 628 949 l 257
 628 612 l 257
 1000 612 l 257
 1000 488 l 257
 628 488 l 257
 628 150 l 257
 473 150 l 257
 473 488 l 257
 100 488 l 257
 100 612 l 257
EndSplineSet
EndChar
StartChar: parallelto
Encoding: 401 8741 401
GlifName: parallelto
Width: 1000
VWidth: 0
Flags: W
LayerCount: 2
Fore
SplineSet
355 1500 m 257
 355 0 l 257
 200 0 l 257
 200 1500 l 257
 355 1500 l 257
755 1500 m 257
 755 0 l 257
 600 0 l 257
 600 1500 l 257
 755 1500 l 257
EndSplineSet
EndChar
StartChar: logicalor
Encoding: 342 8744 342
GlifName: logicalor
Width: 1300
VWidth: 0
Flags: W
LayerCount: 2
Fore
SplineSet
521 0 m 257
 92 1300 l 257
 247 1320 l 257
 591 320 l 257
 656 80 l 257
 721 320 l 257
 1057 1300 l 257
 1228 1320 l 257
 786 0 l 257
 521 0 l 257
EndSplineSet
EndChar
StartChar: similar
Encoding: 480 8764 480
GlifName: similar
Width: 1000
VWidth: 0
Flags: W
LayerCount: 2
Fore
SplineSet
660 400 m 257
 625 400 625 400 594 412.5 c 128
 563 425 563 425 534.5 444 c 128
 506 463 506 463 479.5 485 c 128
 453 507 453 507 427.5 526 c 128
 402 545 402 545 376.5 557.5 c 128
 351 570 351 570 325 570 c 257
 294 570 294 570 266.5 562.5 c 128
 239 555 239 555 212 541 c 128
 185 527 185 527 157.5 506.5 c 128
 130 486 130 486 100 460 c 257
 100 560 l 257
 120 588 120 588 143 613 c 128
 166 638 166 638 195 657.5 c 128
 224 677 224 677 259.5 688.5 c 128
 295 700 295 700 340 700 c 257
 392 700 392 700 436.5 673.5 c 128
 481 647 481 647 521 615 c 128
 561 583 561 583 598.5 556.5 c 128
 636 530 636 530 675 530 c 257
 736 530 736 530 788 558.5 c 128
 840 587 840 587 900 640 c 257
 900 540 l 257
 880 512 880 512 857 487 c 128
 834 462 834 462 805 442.5 c 128
 776 423 776 423 740.5 411.5 c 128
 705 400 705 400 660 400 c 257
EndSplineSet
EndChar
StartChar: estimate
Encoding: 254 8793 254
GlifName: estimate
Width: 1000
VWidth: 0
Flags: W
LayerCount: 2
Fore
SplineSet
109 600 m 257
 909 600 l 257
 909 460 l 257
 109 460 l 257
 109 600 l 257
109 300 m 257
 909 300 l 257
 909 160 l 257
 109 160 l 257
 109 300 l 257
933 727 m 257
 727 727 l 257
 508 915 l 257
 299 728 l 257
 82 728 l 257
 439 1104 l 257
 564 1120 l 257
 933 727 l 257
EndSplineSet
EndChar
StartChar: lessequal
Encoding: 336 8804 336
GlifName: lessequal
Width: 1300
VWidth: 0
Flags: W
LayerCount: 2
Fore
SplineSet
200 135 m 257
 1100 135 l 257
 1080 0 l 257
 200 0 l 257
 200 135 l 257
1137 1172 m 257
 1137 957 l 257
 470 673 l 257
 1137 392 l 257
 1137 177 l 257
 130 586 l 257
 130 766 l 257
 1137 1172 l 257
EndSplineSet
EndChar
StartChar: greaterequal
Encoding: 295 8805 295
GlifName: greaterequal
Width: 1300
VWidth: 0
Flags: W
LayerCount: 2
Fore
SplineSet
198 135 m 257
 1098 135 l 257
 1078 0 l 257
 198 0 l 257
 198 135 l 257
1137 766 m 257
 1137 586 l 257
 130 177 l 257
 130 392 l 257
 797 673 l 257
 130 957 l 257
 130 1172 l 257
 1137 766 l 257
EndSplineSet
EndChar
StartChar: circleminus
Encoding: 187 8854 187
GlifName: circleminus
Width: 1700
VWidth: 0
Flags: W
LayerCount: 2
Fore
SplineSet
82 750 m 257
 82 856 82 856 109.5 954 c 128
 137 1052 137 1052 187 1137 c 128
 237 1222 237 1222 307 1292 c 128
 377 1362 377 1362 462 1412 c 128
 547 1462 547 1462 645 1489.5 c 128
 743 1517 743 1517 849 1517 c 257
 955 1517 955 1517 1053 1489.5 c 128
 1151 1462 1151 1462 1236 1412 c 128
 1321 1362 1321 1362 1391 1292 c 128
 1461 1222 1461 1222 1511 1137 c 128
 1561 1052 1561 1052 1588.5 954 c 128
 1616 856 1616 856 1616 750 c 257
 1616 644 1616 644 1588.5 546 c 128
 1561 448 1561 448 1511 363 c 128
 1461 278 1461 278 1391 208 c 128
 1321 138 1321 138 1236 88 c 128
 1151 38 1151 38 1053 10.5 c 128
 955 -17 955 -17 849 -17 c 257
 743 -17 743 -17 645 10.5 c 128
 547 38 547 38 462 88 c 128
 377 138 377 138 307 208 c 128
 237 278 237 278 187 363 c 128
 137 448 137 448 109.5 546 c 128
 82 644 82 644 82 750 c 257
849 132 m 257
 967 132 967 132 1072 174 c 128
 1177 216 1177 216 1259 289 c 128
 1341 362 1341 362 1394 461 c 128
 1447 560 1447 560 1461 675 c 257
 235 675 l 257
 244 598 244 598 271.5 528.5 c 128
 299 459 299 459 340.5 398.5 c 128
 382 338 382 338 437 289 c 128
 492 240 492 240 557.5 205 c 128
 623 170 623 170 696.5 151 c 128
 770 132 770 132 849 132 c 257
849 1367 m 257
 770 1367 770 1367 696.5 1348 c 128
 623 1329 623 1329 557.5 1294 c 128
 492 1259 492 1259 437 1210 c 128
 382 1161 382 1161 340.5 1101 c 128
 299 1041 299 1041 271.5 971 c 128
 244 901 244 901 235 825 c 257
 1461 825 l 257
 1447 939 1447 939 1394 1038 c 128
 1341 1137 1341 1137 1259 1210 c 128
 1177 1283 1177 1283 1072 1325 c 128
 967 1367 967 1367 849 1367 c 257
EndSplineSet
EndChar
StartChar: blackrightpointingtriangle
Encoding: 162 9654 162
GlifName: blackrightpointingtriangle
Width: 1000
VWidth: 0
Flags: W
LayerCount: 2
Fore
SplineSet
150 1135 m 257
 899 700 l 257
 150 266 l 257
 175 700 l 257
 150 1135 l 257
EndSplineSet
EndChar
StartChar: whiterightpointingtriangle
Encoding: 574 9655 574
GlifName: whiterightpointingtriangle
Width: 1000
VWidth: 0
Flags: W
LayerCount: 2
Fore
SplineSet
150 266 m 257
 175 700 l 257
 150 1135 l 257
 899 700 l 257
 150 266 l 257
239 991 m 257
 255 700 l 257
 239 410 l 257
 740 700 l 257
 239 991 l 257
EndSplineSet
EndChar
StartChar: circlewithrighthalfblack
Encoding: 192 9681 192
GlifName: circlewithrighthalfblack
Width: 1000
VWidth: 0
Flags: W
LayerCount: 2
Fore
SplineSet
84 701 m 257
 84 787 84 787 116.5 863 c 128
 149 939 149 939 205.5 995.5 c 128
 262 1052 262 1052 338 1084.5 c 128
 414 1117 414 1117 500 1117 c 257
 586 1117 586 1117 662 1084.5 c 128
 738 1052 738 1052 794.5 995.5 c 128
 851 939 851 939 883.5 863 c 128
 916 787 916 787 916 701 c 257
 916 615 916 615 883.5 539 c 128
 851 463 851 463 794.5 406.5 c 128
 738 350 738 350 662 317.5 c 128
 586 285 586 285 500 285 c 257
 414 285 414 285 338 317.5 c 128
 262 350 262 350 205.5 406.5 c 128
 149 463 149 463 116.5 539 c 128
 84 615 84 615 84 701 c 257
200 701 m 257
 200 639 200 639 223.5 584 c 128
 247 529 247 529 287.5 488.5 c 128
 328 448 328 448 383 424.5 c 128
 438 401 438 401 500 401 c 257
 500 1001 l 257
 438 1001 438 1001 383 977.5 c 128
 328 954 328 954 287.5 913.5 c 128
 247 873 247 873 223.5 818 c 128
 200 763 200 763 200 701 c 257
EndSplineSet
EndChar
StartChar: blackstar
Encoding: 163 9733 163
GlifName: blackstar
Width: 1700
VWidth: 0
Flags: W
LayerCount: 2
Fore
SplineSet
1169 561 m 257
 1350 0 l 257
 965 265 l 257
 852 375 l 257
 739 265 l 257
 350 0 l 257
 530 561 l 257
 100 900 l 257
 650 900 l 257
 852 1410 l 257
 1050 900 l 257
 1600 900 l 257
 1169 561 l 257
EndSplineSet
EndChar
StartChar: boxwithacheck
Encoding: 167 9745 167
GlifName: boxwithacheck
Width: 1100
VWidth: 0
Flags: W
LayerCount: 2
Fore
SplineSet
580 400 m 257
 590 600 l 257
 620 685 620 685 659 765.5 c 128
 698 846 698 846 741 918.5 c 128
 784 991 784 991 829 1054 c 128
 874 1117 874 1117 916 1168.5 c 128
 958 1220 958 1220 994.5 1257.5 c 128
 1031 1295 1031 1295 1057 1317 c 257
 1188 1300 l 257
 1143 1250 1143 1250 1090.5 1179.5 c 128
 1038 1109 1038 1109 985 1024 c 128
 932 939 932 939 882 844.5 c 128
 832 750 832 750 791 651 c 128
 750 552 750 552 722.5 453.5 c 128
 695 355 695 355 687 263 c 257
 465 280 l 257
 260 800 l 257
 428 820 l 257
 580 400 l 257
165 165 m 257
 935 165 l 257
 935 554 l 257
 960 653 960 653 1001 754 c 128
 1042 855 1042 855 1100 950 c 257
 1100 0 l 257
 0 0 l 257
 0 1100 l 257
 703 1100 l 257
 688 1085 688 1085 671 1065.5 c 128
 654 1046 654 1046 637.5 1024.5 c 128
 621 1003 621 1003 605.5 980 c 128
 590 957 590 957 580 935 c 257
 165 935 l 257
 165 165 l 257
EndSplineSet
EndChar
StartChar: frowningface
Encoding: 287 9785 287
GlifName: frowningface
Width: 1300
VWidth: 0
Flags: W
LayerCount: 2
Fore
SplineSet
749 600 m 257
 728 600 728 600 713.5 614 c 128
 699 628 699 628 699 649 c 257
 699 750 l 257
 699 771 699 771 713.5 785.5 c 128
 728 800 728 800 749 800 c 257
 770 800 770 800 784.5 785.5 c 128
 799 771 799 771 799 750 c 257
 799 649 l 257
 799 628 799 628 784.5 614 c 128
 770 600 770 600 749 600 c 257
549 600 m 257
 528 600 528 600 513.5 614 c 128
 499 628 499 628 499 649 c 257
 499 750 l 257
 499 771 499 771 513.5 785.5 c 128
 528 800 528 800 549 800 c 257
 570 800 570 800 584.5 785.5 c 128
 599 771 599 771 599 750 c 257
 599 649 l 257
 599 628 599 628 584.5 614 c 128
 570 600 570 600 549 600 c 257
82 550 m 257
 82 667 82 667 126.5 770.5 c 128
 171 874 171 874 248 951 c 128
 325 1028 325 1028 428.5 1072.5 c 128
 532 1117 532 1117 649 1117 c 257
 766 1117 766 1117 869.5 1072.5 c 128
 973 1028 973 1028 1050 951 c 128
 1127 874 1127 874 1171.5 770.5 c 128
 1216 667 1216 667 1216 550 c 257
 1216 433 1216 433 1171.5 329.5 c 128
 1127 226 1127 226 1050 149 c 128
 973 72 973 72 869.5 27.5 c 128
 766 -17 766 -17 649 -17 c 257
 532 -17 532 -17 428.5 27.5 c 128
 325 72 325 72 248 149 c 128
 171 226 171 226 126.5 329.5 c 128
 82 433 82 433 82 550 c 257
199 550 m 257
 199 457 199 457 234.5 375 c 128
 270 293 270 293 331 232 c 128
 392 171 392 171 474 135.5 c 128
 556 100 556 100 649 100 c 257
 742 100 742 100 824 135.5 c 128
 906 171 906 171 967 232 c 128
 1028 293 1028 293 1063.5 375 c 128
 1099 457 1099 457 1099 550 c 257
 1099 643 1099 643 1063.5 725 c 128
 1028 807 1028 807 967 868 c 128
 906 929 906 929 824 964.5 c 128
 742 1000 742 1000 649 1000 c 257
 556 1000 556 1000 474 964.5 c 128
 392 929 392 929 331 868 c 128
 270 807 270 807 234.5 725 c 128
 199 643 199 643 199 550 c 257
949 255 m 257
 921 295 921 295 879 327 c 257
 843 354 843 354 786.5 376.5 c 128
 730 399 730 399 649 399 c 257
 568 399 568 399 511.5 376.5 c 128
 455 354 455 354 419 327 c 257
 377 295 377 295 349 255 c 257
 349 309 349 309 375 354 c 128
 401 399 401 399 443 431.5 c 128
 485 464 485 464 539 482 c 128
 593 500 593 500 649 500 c 257
 705 500 705 500 759 482 c 128
 813 464 813 464 855 431.5 c 128
 897 399 897 399 923 354 c 128
 949 309 949 309 949 255 c 257
EndSplineSet
EndChar
StartChar: night
Encoding: 360 9790 360
GlifName: night
Width: 1300
VWidth: 0
Flags: W
LayerCount: 2
Fore
SplineSet
1198 317 m 257
 1164 243 1164 243 1110.5 181.5 c 128
 1057 120 1057 120 989.5 76 c 128
 922 32 922 32 842.5 7.5 c 128
 763 -17 763 -17 676 -17 c 257
 557 -17 557 -17 452 28.5 c 128
 347 74 347 74 269 152 c 128
 191 230 191 230 145.5 335 c 128
 100 440 100 440 100 559 c 257
 100 678 100 678 145.5 783 c 128
 191 888 191 888 269 966 c 128
 347 1044 347 1044 452 1089.5 c 128
 557 1135 557 1135 676 1135 c 257
 746 1135 746 1135 811 1119 c 128
 876 1103 876 1103 935 1073 c 257
 931 1051 l 257
 886 1060 886 1060 840 1060 c 257
 748 1060 748 1060 667 1025 c 128
 586 990 586 990 526 930 c 128
 466 870 466 870 431 789 c 128
 396 708 396 708 396 616 c 257
 396 524 396 524 431 443 c 128
 466 362 466 362 526 302 c 128
 586 242 586 242 667 207 c 128
 748 172 748 172 840 172 c 257
 943 172 943 172 1031 214.5 c 128
 1119 257 1119 257 1180 330 c 257
 1180 328 1180 328 1189 323 c 257
 1193 320 1193 320 1198 317 c 257
EndSplineSet
EndChar
StartChar: diamondsuitwhite
Encoding: 222 9826 222
GlifName: diamondsuitwhite
Width: 1200
VWidth: 0
Flags: W
LayerCount: 2
Fore
SplineSet
1140 651 m 257
 600 -100 l 257
 58 649 l 257
 600 1400 l 257
 1140 651 l 257
1044 650 m 257
 924 680 l 257
 630 1128 l 257
 600 1238 l 257
 570 1128 l 257
 275 680 l 257
 155 650 l 257
 275 620 l 257
 569 173 l 257
 599 63 l 257
 629 173 l 257
 924 620 l 257
 1044 650 l 257
EndSplineSet
EndChar
StartChar: whitecircledthree
Encoding: 568 10114 568
GlifName: whitecircledthree
Width: 1700
VWidth: 0
Flags: W
LayerCount: 2
Fore
SplineSet
82 750 m 257
 82 856 82 856 109.5 954 c 128
 137 1052 137 1052 187 1137 c 128
 237 1222 237 1222 307 1292 c 128
 377 1362 377 1362 462 1412 c 128
 547 1462 547 1462 645 1489.5 c 128
 743 1517 743 1517 849 1517 c 257
 955 1517 955 1517 1053 1489.5 c 128
 1151 1462 1151 1462 1236 1412 c 128
 1321 1362 1321 1362 1391 1292 c 128
 1461 1222 1461 1222 1511 1137 c 128
 1561 1052 1561 1052 1588.5 954 c 128
 1616 856 1616 856 1616 750 c 257
 1616 644 1616 644 1588.5 546 c 128
 1561 448 1561 448 1511 363 c 128
 1461 278 1461 278 1391 208 c 128
 1321 138 1321 138 1236 88 c 128
 1151 38 1151 38 1053 10.5 c 128
 955 -17 955 -17 849 -17 c 257
 743 -17 743 -17 645 10.5 c 128
 547 38 547 38 462 88 c 128
 377 138 377 138 307 208 c 128
 237 278 237 278 187 363 c 128
 137 448 137 448 109.5 546 c 128
 82 644 82 644 82 750 c 257
200 750 m 257
 200 616 200 616 251 497.5 c 128
 302 379 302 379 390 291 c 128
 478 203 478 203 596.5 152 c 128
 715 101 715 101 849 101 c 257
 938 101 938 101 1021 124 c 128
 1104 147 1104 147 1176 189.5 c 128
 1248 232 1248 232 1307 291.5 c 128
 1366 351 1366 351 1408.5 423 c 128
 1451 495 1451 495 1474 577.5 c 128
 1497 660 1497 660 1497 750 c 257
 1497 884 1497 884 1446 1002 c 128
 1395 1120 1395 1120 1307 1208 c 128
 1219 1296 1219 1296 1101 1347 c 128
 983 1398 983 1398 849 1398 c 257
 760 1398 760 1398 677 1375 c 128
 594 1352 594 1352 522 1309.5 c 128
 450 1267 450 1267 390.5 1208 c 128
 331 1149 331 1149 288.5 1077 c 128
 246 1005 246 1005 223 922 c 128
 200 839 200 839 200 750 c 257
652 863 m 257
 669 875 669 875 693.5 893 c 128
 718 911 718 911 746 933 c 128
 774 955 774 955 803 978.5 c 128
 832 1002 832 1002 859 1027 c 128
 886 1052 886 1052 908 1077 c 128
 930 1102 930 1102 945 1124 c 257
 789 1080 l 257
 590 1080 l 257
 603 1200 l 257
 1108 1200 l 257
 1108 1096 l 257
 1089 1049 1089 1049 1054.5 1009.5 c 128
 1020 970 1020 970 977 931 c 257
 883 881 l 257
 946 881 946 881 998 864.5 c 128
 1050 848 1050 848 1086.5 817.5 c 128
 1123 787 1123 787 1143.5 743 c 128
 1164 699 1164 699 1164 644 c 257
 1164 584 1164 584 1139 535.5 c 128
 1114 487 1114 487 1072 449 c 128
 1030 411 1030 411 973.5 383 c 128
 917 355 917 355 852.5 336.5 c 128
 788 318 788 318 719.5 309 c 128
 651 300 651 300 584 300 c 257
 584 420 l 257
 655 422 655 422 722 438.5 c 128
 789 455 789 455 842 483 c 128
 895 511 895 511 927 550 c 128
 959 589 959 589 959 638 c 257
 959 673 959 673 944.5 696.5 c 128
 930 720 930 720 904.5 734.5 c 128
 879 749 879 749 846 755.5 c 128
 813 762 813 762 775 762 c 257
 766 762 766 762 749 761 c 128
 732 760 732 760 713 759 c 128
 694 758 694 758 677 757.5 c 128
 660 757 660 757 652 756 c 257
 652 863 l 257
EndSplineSet
EndChar
StartChar: whitecircledfour
Encoding: 563 10115 563
GlifName: whitecircledfour
Width: 1700
VWidth: 0
Flags: W
LayerCount: 2
Fore
SplineSet
82 750 m 257
 82 856 82 856 109.5 954 c 128
 137 1052 137 1052 187 1137 c 128
 237 1222 237 1222 307 1292 c 128
 377 1362 377 1362 462 1412 c 128
 547 1462 547 1462 645 1489.5 c 128
 743 1517 743 1517 849 1517 c 257
 955 1517 955 1517 1053 1489.5 c 128
 1151 1462 1151 1462 1236 1412 c 128
 1321 1362 1321 1362 1391 1292 c 128
 1461 1222 1461 1222 1511 1137 c 128
 1561 1052 1561 1052 1588.5 954 c 128
 1616 856 1616 856 1616 750 c 257
 1616 644 1616 644 1588.5 546 c 128
 1561 448 1561 448 1511 363 c 128
 1461 278 1461 278 1391 208 c 128
 1321 138 1321 138 1236 88 c 128
 1151 38 1151 38 1053 10.5 c 128
 955 -17 955 -17 849 -17 c 257
 743 -17 743 -17 645 10.5 c 128
 547 38 547 38 462 88 c 128
 377 138 377 138 307 208 c 128
 237 278 237 278 187 363 c 128
 137 448 137 448 109.5 546 c 128
 82 644 82 644 82 750 c 257
200 750 m 257
 200 616 200 616 251 497.5 c 128
 302 379 302 379 390 291 c 128
 478 203 478 203 596.5 152 c 128
 715 101 715 101 849 101 c 257
 938 101 938 101 1021 124 c 128
 1104 147 1104 147 1176 189.5 c 128
 1248 232 1248 232 1307 291.5 c 128
 1366 351 1366 351 1408.5 423 c 128
 1451 495 1451 495 1474 577.5 c 128
 1497 660 1497 660 1497 750 c 257
 1497 884 1497 884 1446 1002 c 128
 1395 1120 1395 1120 1307 1208 c 128
 1219 1296 1219 1296 1101 1347 c 128
 983 1398 983 1398 849 1398 c 257
 760 1398 760 1398 677 1375 c 128
 594 1352 594 1352 522 1309.5 c 128
 450 1267 450 1267 390.5 1208 c 128
 331 1149 331 1149 288.5 1077 c 128
 246 1005 246 1005 223 922 c 128
 200 839 200 839 200 750 c 257
1157 480 m 257
 1051 480 l 257
 1051 300 l 257
 858 300 l 257
 858 480 l 257
 498 480 l 257
 498 600 l 257
 795 1215 l 257
 984 1195 l 257
 788 758 l 257
 683 600 l 257
 858 600 l 257
 858 779 l 257
 1051 763 l 257
 1051 600 l 257
 1170 600 l 257
 1157 480 l 257
EndSplineSet
EndChar
StartChar: whitecircledfive
Encoding: 562 10116 562
GlifName: whitecircledfive
Width: 1700
VWidth: 0
Flags: W
LayerCount: 2
Fore
SplineSet
82 750 m 257
 82 856 82 856 109.5 954 c 128
 137 1052 137 1052 187 1137 c 128
 237 1222 237 1222 307 1292 c 128
 377 1362 377 1362 462 1412 c 128
 547 1462 547 1462 645 1489.5 c 128
 743 1517 743 1517 849 1517 c 257
 955 1517 955 1517 1053 1489.5 c 128
 1151 1462 1151 1462 1236 1412 c 128
 1321 1362 1321 1362 1391 1292 c 128
 1461 1222 1461 1222 1511 1137 c 128
 1561 1052 1561 1052 1588.5 954 c 128
 1616 856 1616 856 1616 750 c 257
 1616 644 1616 644 1588.5 546 c 128
 1561 448 1561 448 1511 363 c 128
 1461 278 1461 278 1391 208 c 128
 1321 138 1321 138 1236 88 c 128
 1151 38 1151 38 1053 10.5 c 128
 955 -17 955 -17 849 -17 c 257
 743 -17 743 -17 645 10.5 c 128
 547 38 547 38 462 88 c 128
 377 138 377 138 307 208 c 128
 237 278 237 278 187 363 c 128
 137 448 137 448 109.5 546 c 128
 82 644 82 644 82 750 c 257
200 750 m 257
 200 616 200 616 251 497.5 c 128
 302 379 302 379 390 291 c 128
 478 203 478 203 596.5 152 c 128
 715 101 715 101 849 101 c 257
 938 101 938 101 1021 124 c 128
 1104 147 1104 147 1176 189.5 c 128
 1248 232 1248 232 1307 291.5 c 128
 1366 351 1366 351 1408.5 423 c 128
 1451 495 1451 495 1474 577.5 c 128
 1497 660 1497 660 1497 750 c 257
 1497 884 1497 884 1446 1002 c 128
 1395 1120 1395 1120 1307 1208 c 128
 1219 1296 1219 1296 1101 1347 c 128
 983 1398 983 1398 849 1398 c 257
 760 1398 760 1398 677 1375 c 128
 594 1352 594 1352 522 1309.5 c 128
 450 1267 450 1267 390.5 1208 c 128
 331 1149 331 1149 288.5 1077 c 128
 246 1005 246 1005 223 922 c 128
 200 839 200 839 200 750 c 257
795 928 m 257
 809 931 809 931 826 933 c 128
 843 935 843 935 864 935 c 257
 934 935 934 935 989 915 c 128
 1044 895 1044 895 1082 859.5 c 128
 1120 824 1120 824 1140 777 c 128
 1160 730 1160 730 1160 676 c 257
 1160 614 1160 614 1135.5 562.5 c 128
 1111 511 1111 511 1068.5 469 c 128
 1026 427 1026 427 969.5 395.5 c 128
 913 364 913 364 849.5 343 c 128
 786 322 786 322 718 311 c 128
 650 300 650 300 585 300 c 257
 585 436 l 257
 628 437 628 437 672.5 445.5 c 128
 717 454 717 454 759 468 c 128
 801 482 801 482 838.5 502.5 c 128
 876 523 876 523 903.5 548 c 128
 931 573 931 573 947.5 602 c 128
 964 631 964 631 964 664 c 257
 964 688 964 688 955.5 711.5 c 128
 947 735 947 735 931.5 753 c 128
 916 771 916 771 895 782 c 128
 874 793 874 793 849 793 c 257
 826 793 826 793 806 789.5 c 128
 786 786 786 786 770 780.5 c 128
 754 775 754 775 741.5 768 c 128
 729 761 729 761 720 755 c 257
 585 755 l 257
 585 1200 l 257
 1105 1200 l 257
 1105 1080 l 257
 795 1080 l 257
 795 928 l 257
EndSplineSet
EndChar
StartChar: whitecircledeight
Encoding: 561 10119 561
GlifName: whitecircledeight
Width: 1700
VWidth: 0
Flags: W
LayerCount: 2
Fore
SplineSet
82 750 m 257
 82 856 82 856 109.5 954 c 128
 137 1052 137 1052 187 1137 c 128
 237 1222 237 1222 307 1292 c 128
 377 1362 377 1362 462 1412 c 128
 547 1462 547 1462 645 1489.5 c 128
 743 1517 743 1517 849 1517 c 257
 955 1517 955 1517 1053 1489.5 c 128
 1151 1462 1151 1462 1236 1412 c 128
 1321 1362 1321 1362 1391 1292 c 128
 1461 1222 1461 1222 1511 1137 c 128
 1561 1052 1561 1052 1588.5 954 c 128
 1616 856 1616 856 1616 750 c 257
 1616 644 1616 644 1588.5 546 c 128
 1561 448 1561 448 1511 363 c 128
 1461 278 1461 278 1391 208 c 128
 1321 138 1321 138 1236 88 c 128
 1151 38 1151 38 1053 10.5 c 128
 955 -17 955 -17 849 -17 c 257
 743 -17 743 -17 645 10.5 c 128
 547 38 547 38 462 88 c 128
 377 138 377 138 307 208 c 128
 237 278 237 278 187 363 c 128
 137 448 137 448 109.5 546 c 128
 82 644 82 644 82 750 c 257
200 750 m 257
 200 616 200 616 251 497.5 c 128
 302 379 302 379 390 291 c 128
 478 203 478 203 596.5 152 c 128
 715 101 715 101 849 101 c 257
 938 101 938 101 1021 124 c 128
 1104 147 1104 147 1176 189.5 c 128
 1248 232 1248 232 1307 291.5 c 128
 1366 351 1366 351 1408.5 423 c 128
 1451 495 1451 495 1474 577.5 c 128
 1497 660 1497 660 1497 750 c 257
 1497 884 1497 884 1446 1002 c 128
 1395 1120 1395 1120 1307 1208 c 128
 1219 1296 1219 1296 1101 1347 c 128
 983 1398 983 1398 849 1398 c 257
 760 1398 760 1398 677 1375 c 128
 594 1352 594 1352 522 1309.5 c 128
 450 1267 450 1267 390.5 1208 c 128
 331 1149 331 1149 288.5 1077 c 128
 246 1005 246 1005 223 922 c 128
 200 839 200 839 200 750 c 257
839 1210 m 257
 900 1210 900 1210 952.5 1194 c 128
 1005 1178 1005 1178 1043.5 1148.5 c 128
 1082 1119 1082 1119 1103.5 1076.5 c 128
 1125 1034 1125 1034 1125 980 c 257
 1125 950 1125 950 1113 924 c 128
 1101 898 1101 898 1082.5 876.5 c 128
 1064 855 1064 855 1039.5 837.5 c 128
 1015 820 1015 820 991 806 c 257
 1031 787 1031 787 1065.5 761.5 c 128
 1100 736 1100 736 1126 704.5 c 128
 1152 673 1152 673 1166.5 636 c 128
 1181 599 1181 599 1181 556 c 257
 1181 487 1181 487 1152 436.5 c 128
 1123 386 1123 386 1075.5 353.5 c 128
 1028 321 1028 321 967 305.5 c 128
 906 290 906 290 842 290 c 257
 780 290 780 290 721.5 307.5 c 128
 663 325 663 325 618 360 c 128
 573 395 573 395 545.5 446 c 128
 518 497 518 497 518 565 c 257
 518 607 518 607 531 644 c 128
 544 681 544 681 567 711.5 c 128
 590 742 590 742 621.5 766.5 c 128
 653 791 653 791 691 809 c 257
 663 825 663 825 640 843.5 c 128
 617 862 617 862 599.5 882 c 128
 582 902 582 902 572 925 c 128
 562 948 562 948 562 974 c 257
 562 1036 562 1036 588.5 1080.5 c 128
 615 1125 615 1125 655.5 1154 c 128
 696 1183 696 1183 745 1196.5 c 128
 794 1210 794 1210 839 1210 c 257
986 553 m 257
 986 586 986 586 972.5 612 c 128
 959 638 959 638 937 659.5 c 128
 915 681 915 681 887.5 697.5 c 128
 860 714 860 714 833 727 c 257
 807 714 807 714 785.5 697.5 c 128
 764 681 764 681 747.5 659.5 c 128
 731 638 731 638 722 611.5 c 128
 713 585 713 585 713 553 c 257
 713 524 713 524 724.5 499.5 c 128
 736 475 736 475 754.5 457.5 c 128
 773 440 773 440 796 430 c 128
 819 420 819 420 843 420 c 257
 870 420 870 420 895.5 429 c 128
 921 438 921 438 941.5 455 c 128
 962 472 962 472 974 496.5 c 128
 986 521 986 521 986 553 c 257
754 994 m 257
 754 973 754 973 762.5 956 c 128
 771 939 771 939 785 924.5 c 128
 799 910 799 910 817.5 898.5 c 128
 836 887 836 887 855 878 c 257
 871 887 871 887 885.5 899 c 128
 900 911 900 911 910.5 925 c 128
 921 939 921 939 927 956 c 128
 933 973 933 973 933 991 c 257
 933 1014 933 1014 924.5 1031 c 128
 916 1048 916 1048 903.5 1058.5 c 128
 891 1069 891 1069 876 1074.5 c 128
 861 1080 861 1080 849 1080 c 257
 833 1080 833 1080 815.5 1073.5 c 128
 798 1067 798 1067 784.5 1055 c 128
 771 1043 771 1043 762.5 1027.5 c 128
 754 1012 754 1012 754 994 c 257
EndSplineSet
EndChar
StartChar: whitecircledzero
Encoding: 570 10121 570
GlifName: whitecircledzero
Width: 1700
VWidth: 0
Flags: W
LayerCount: 2
Fore
SplineSet
82 750 m 257
 82 856 82 856 109.5 954 c 128
 137 1052 137 1052 187 1137 c 128
 237 1222 237 1222 307 1292 c 128
 377 1362 377 1362 462 1412 c 128
 547 1462 547 1462 645 1489.5 c 128
 743 1517 743 1517 849 1517 c 257
 955 1517 955 1517 1053 1489.5 c 128
 1151 1462 1151 1462 1236 1412 c 128
 1321 1362 1321 1362 1391 1292 c 128
 1461 1222 1461 1222 1511 1137 c 128
 1561 1052 1561 1052 1588.5 954 c 128
 1616 856 1616 856 1616 750 c 257
 1616 644 1616 644 1588.5 546 c 128
 1561 448 1561 448 1511 363 c 128
 1461 278 1461 278 1391 208 c 128
 1321 138 1321 138 1236 88 c 128
 1151 38 1151 38 1053 10.5 c 128
 955 -17 955 -17 849 -17 c 257
 743 -17 743 -17 645 10.5 c 128
 547 38 547 38 462 88 c 128
 377 138 377 138 307 208 c 128
 237 278 237 278 187 363 c 128
 137 448 137 448 109.5 546 c 128
 82 644 82 644 82 750 c 257
200 750 m 257
 200 616 200 616 251 497.5 c 128
 302 379 302 379 390 291 c 128
 478 203 478 203 596.5 152 c 128
 715 101 715 101 849 101 c 257
 938 101 938 101 1021 124 c 128
 1104 147 1104 147 1176 189.5 c 128
 1248 232 1248 232 1307 291.5 c 128
 1366 351 1366 351 1408.5 423 c 128
 1451 495 1451 495 1474 577.5 c 128
 1497 660 1497 660 1497 750 c 257
 1497 884 1497 884 1446 1002 c 128
 1395 1120 1395 1120 1307 1208 c 128
 1219 1296 1219 1296 1101 1347 c 128
 983 1398 983 1398 849 1398 c 257
 760 1398 760 1398 677 1375 c 128
 594 1352 594 1352 522 1309.5 c 128
 450 1267 450 1267 390.5 1208 c 128
 331 1149 331 1149 288.5 1077 c 128
 246 1005 246 1005 223 922 c 128
 200 839 200 839 200 750 c 257
843 290 m 257
 787 290 787 290 740 309.5 c 128
 693 329 693 329 656 363 c 128
 619 397 619 397 591 442 c 128
 563 487 563 487 544 538 c 128
 525 589 525 589 516 643.5 c 128
 507 698 507 698 507 750 c 257
 507 804 507 804 514.5 859 c 128
 522 914 522 914 539.5 965 c 128
 557 1016 557 1016 583.5 1060.5 c 128
 610 1105 610 1105 647 1138.5 c 128
 684 1172 684 1172 733 1191 c 128
 782 1210 782 1210 843 1210 c 257
 899 1210 899 1210 945.5 1190.5 c 128
 992 1171 992 1171 1029.5 1137 c 128
 1067 1103 1067 1103 1095 1058 c 128
 1123 1013 1123 1013 1141.5 962 c 128
 1160 911 1160 911 1169.5 856.5 c 128
 1179 802 1179 802 1179 750 c 257
 1179 696 1179 696 1171 641 c 128
 1163 586 1163 586 1146 535 c 128
 1129 484 1129 484 1102.5 439.5 c 128
 1076 395 1076 395 1038.5 361.5 c 128
 1001 328 1001 328 952 309 c 128
 903 290 903 290 843 290 c 257
716 775 m 257
 716 744 716 744 717.5 707 c 128
 719 670 719 670 724 632.5 c 128
 729 595 729 595 738 559.5 c 128
 747 524 747 524 762 496.5 c 128
 777 469 777 469 797.5 452.5 c 128
 818 436 818 436 847 436 c 257
 872 436 872 436 891 448 c 128
 910 460 910 460 924 481.5 c 128
 938 503 938 503 947 531.5 c 128
 956 560 956 560 961 592.5 c 128
 966 625 966 625 968 658.5 c 128
 970 692 970 692 970 725 c 257
 970 756 970 756 968 793 c 128
 966 830 966 830 961 867.5 c 128
 956 905 956 905 947 940.5 c 128
 938 976 938 976 923.5 1003.5 c 128
 909 1031 909 1031 888 1047.5 c 128
 867 1064 867 1064 838 1064 c 257
 813 1064 813 1064 794 1051.5 c 128
 775 1039 775 1039 761 1018 c 128
 747 997 747 997 738.5 968.5 c 128
 730 940 730 940 725 907.5 c 128
 720 875 720 875 718 841 c 128
 716 807 716 807 716 775 c 257
EndSplineSet
EndChar
StartChar: blackcircledseven
Encoding: 154 10128 154
GlifName: blackcircledseven
Width: 1700
VWidth: 0
Flags: W
LayerCount: 2
Fore
SplineSet
82 750 m 257
 82 856 82 856 109.5 954 c 128
 137 1052 137 1052 187 1137 c 128
 237 1222 237 1222 307 1292 c 128
 377 1362 377 1362 462 1412 c 128
 547 1462 547 1462 645 1489.5 c 128
 743 1517 743 1517 849 1517 c 257
 955 1517 955 1517 1053 1489.5 c 128
 1151 1462 1151 1462 1236 1412 c 128
 1321 1362 1321 1362 1391 1292 c 128
 1461 1222 1461 1222 1511 1137 c 128
 1561 1052 1561 1052 1588.5 954 c 128
 1616 856 1616 856 1616 750 c 257
 1616 644 1616 644 1588.5 546 c 128
 1561 448 1561 448 1511 363 c 128
 1461 278 1461 278 1391 208 c 128
 1321 138 1321 138 1236 88 c 128
 1151 38 1151 38 1053 10.5 c 128
 955 -17 955 -17 849 -17 c 257
 743 -17 743 -17 645 10.5 c 128
 547 38 547 38 462 88 c 128
 377 138 377 138 307 208 c 128
 237 278 237 278 187 363 c 128
 137 448 137 448 109.5 546 c 128
 82 644 82 644 82 750 c 257
573 1063 m 257
 955 1063 l 257
 947 1043 947 1043 930 1014.5 c 128
 913 986 913 986 892 952 c 257
 867 911 867 911 839 863.5 c 128
 811 816 811 816 785.5 764.5 c 128
 760 713 760 713 739.5 658.5 c 128
 719 604 719 604 707 551 c 257
 702 526 702 526 699.5 491 c 128
 697 456 697 456 695.5 420 c 128
 694 384 694 384 693.5 351.5 c 128
 693 319 693 319 693 300 c 257
 895 300 l 257
 895 323 895 323 895 350 c 128
 895 377 895 377 895.5 405 c 128
 896 433 896 433 897.5 459.5 c 128
 899 486 899 486 902 508 c 257
 907 553 907 553 924.5 601.5 c 128
 942 650 942 650 966 699.5 c 128
 990 749 990 749 1017.5 796.5 c 128
 1045 844 1045 844 1070 886 c 257
 1092 920 1092 920 1111 953 c 128
 1130 986 1130 986 1145 1014 c 128
 1160 1042 1160 1042 1168.5 1064.5 c 128
 1177 1087 1177 1087 1177 1103 c 257
 1177 1200 l 257
 573 1200 l 257
 573 1063 l 257
EndSplineSet
EndChar
StartChar: blackcircledeight
Encoding: 149 10129 149
GlifName: blackcircledeight
Width: 1700
VWidth: 0
Flags: W
LayerCount: 2
Fore
SplineSet
82 750 m 257
 82 856 82 856 109.5 954 c 128
 137 1052 137 1052 187 1137 c 128
 237 1222 237 1222 307 1292 c 128
 377 1362 377 1362 462 1412 c 128
 547 1462 547 1462 645 1489.5 c 128
 743 1517 743 1517 849 1517 c 257
 955 1517 955 1517 1053 1489.5 c 128
 1151 1462 1151 1462 1236 1412 c 128
 1321 1362 1321 1362 1391 1292 c 128
 1461 1222 1461 1222 1511 1137 c 128
 1561 1052 1561 1052 1588.5 954 c 128
 1616 856 1616 856 1616 750 c 257
 1616 644 1616 644 1588.5 546 c 128
 1561 448 1561 448 1511 363 c 128
 1461 278 1461 278 1391 208 c 128
 1321 138 1321 138 1236 88 c 128
 1151 38 1151 38 1053 10.5 c 128
 955 -17 955 -17 849 -17 c 257
 743 -17 743 -17 645 10.5 c 128
 547 38 547 38 462 88 c 128
 377 138 377 138 307 208 c 128
 237 278 237 278 187 363 c 128
 137 448 137 448 109.5 546 c 128
 82 644 82 644 82 750 c 257
839 1210 m 257
 794 1210 794 1210 745 1196.5 c 128
 696 1183 696 1183 655.5 1154 c 128
 615 1125 615 1125 588.5 1080.5 c 128
 562 1036 562 1036 562 974 c 257
 562 948 562 948 572 925 c 128
 582 902 582 902 599.5 882 c 128
 617 862 617 862 640 843.5 c 128
 663 825 663 825 691 809 c 257
 653 791 653 791 621.5 766.5 c 128
 590 742 590 742 567 711.5 c 128
 544 681 544 681 531 644 c 128
 518 607 518 607 518 565 c 257
 518 497 518 497 545.5 446 c 128
 573 395 573 395 618 360 c 128
 663 325 663 325 721.5 307.5 c 128
 780 290 780 290 842 290 c 257
 906 290 906 290 967 305.5 c 128
 1028 321 1028 321 1075.5 353.5 c 128
 1123 386 1123 386 1152 436.5 c 128
 1181 487 1181 487 1181 556 c 257
 1181 599 1181 599 1166.5 636 c 128
 1152 673 1152 673 1126 704.5 c 128
 1100 736 1100 736 1065.5 761.5 c 128
 1031 787 1031 787 991 806 c 257
 1015 820 1015 820 1039.5 837.5 c 128
 1064 855 1064 855 1082.5 876.5 c 128
 1101 898 1101 898 1113 924 c 128
 1125 950 1125 950 1125 980 c 257
 1125 1034 1125 1034 1103.5 1076.5 c 128
 1082 1119 1082 1119 1043.5 1148.5 c 128
 1005 1178 1005 1178 952.5 1194 c 128
 900 1210 900 1210 839 1210 c 257
986 553 m 257
 986 521 986 521 974 496.5 c 128
 962 472 962 472 941.5 455 c 128
 921 438 921 438 895.5 429 c 128
 870 420 870 420 843 420 c 257
 819 420 819 420 796 430 c 128
 773 440 773 440 754.5 457.5 c 128
 736 475 736 475 724.5 499.5 c 128
 713 524 713 524 713 553 c 257
 713 585 713 585 722 611.5 c 128
 731 638 731 638 747.5 659.5 c 128
 764 681 764 681 785.5 697.5 c 128
 807 714 807 714 833 727 c 257
 860 714 860 714 887.5 697.5 c 128
 915 681 915 681 937 659.5 c 128
 959 638 959 638 972.5 612 c 128
 986 586 986 586 986 553 c 257
754 994 m 257
 754 1012 754 1012 762.5 1027.5 c 128
 771 1043 771 1043 784.5 1055 c 128
 798 1067 798 1067 815.5 1073.5 c 128
 833 1080 833 1080 849 1080 c 257
 861 1080 861 1080 876 1074.5 c 128
 891 1069 891 1069 903.5 1058.5 c 128
 916 1048 916 1048 924.5 1031 c 128
 933 1014 933 1014 933 991 c 257
 933 973 933 973 927 956 c 128
 921 939 921 939 910.5 925 c 128
 900 911 900 911 885.5 899 c 128
 871 887 871 887 855 878 c 257
 836 887 836 887 817.5 898.5 c 128
 799 910 799 910 785 924.5 c 128
 771 939 771 939 762.5 956 c 128
 754 973 754 973 754 994 c 257
EndSplineSet
EndChar
StartChar: blackcirclednine
Encoding: 152 10130 152
GlifName: blackcirclednine
Width: 1700
VWidth: 0
Flags: W
LayerCount: 2
Fore
SplineSet
82 750 m 257
 82 856 82 856 109.5 954 c 128
 137 1052 137 1052 187 1137 c 128
 237 1222 237 1222 307 1292 c 128
 377 1362 377 1362 462 1412 c 128
 547 1462 547 1462 645 1489.5 c 128
 743 1517 743 1517 849 1517 c 257
 955 1517 955 1517 1053 1489.5 c 128
 1151 1462 1151 1462 1236 1412 c 128
 1321 1362 1321 1362 1391 1292 c 128
 1461 1222 1461 1222 1511 1137 c 128
 1561 1052 1561 1052 1588.5 954 c 128
 1616 856 1616 856 1616 750 c 257
 1616 644 1616 644 1588.5 546 c 128
 1561 448 1561 448 1511 363 c 128
 1461 278 1461 278 1391 208 c 128
 1321 138 1321 138 1236 88 c 128
 1151 38 1151 38 1053 10.5 c 128
 955 -17 955 -17 849 -17 c 257
 743 -17 743 -17 645 10.5 c 128
 547 38 547 38 462 88 c 128
 377 138 377 138 307 208 c 128
 237 278 237 278 187 363 c 128
 137 448 137 448 109.5 546 c 128
 82 644 82 644 82 750 c 257
678 290 m 257
 796 299 796 299 889 344 c 128
 982 389 982 389 1046.5 460 c 128
 1111 531 1111 531 1144.5 624.5 c 128
 1178 718 1178 718 1178 824 c 257
 1178 860 1178 860 1171.5 902.5 c 128
 1165 945 1165 945 1150.5 988 c 128
 1136 1031 1136 1031 1111 1071 c 128
 1086 1111 1086 1111 1049 1142 c 128
 1012 1173 1012 1173 962 1191.5 c 128
 912 1210 912 1210 846 1210 c 257
 771 1210 771 1210 711 1188 c 128
 651 1166 651 1166 609 1126.5 c 128
 567 1087 567 1087 544 1032 c 128
 521 977 521 977 521 910 c 257
 521 846 521 846 545 793.5 c 128
 569 741 569 741 611 704 c 128
 653 667 653 667 710 646.5 c 128
 767 626 767 626 832 626 c 257
 843 626 843 626 852.5 627 c 128
 862 628 862 628 872 629 c 257
 979 720 l 257
 978 683 978 683 965 647 c 128
 952 611 952 611 929.5 578 c 128
 907 545 907 545 876.5 516.5 c 128
 846 488 846 488 810 467 c 128
 774 446 774 446 733.5 433.5 c 128
 693 421 693 421 652 419 c 257
 678 290 l 257
838 757 m 257
 810 757 810 757 788 770.5 c 128
 766 784 766 784 750.5 806.5 c 128
 735 829 735 829 727 858.5 c 128
 719 888 719 888 719 920 c 257
 719 953 719 953 729 982 c 128
 739 1011 739 1011 756.5 1032.5 c 128
 774 1054 774 1054 798 1067 c 128
 822 1080 822 1080 850 1080 c 257
 879 1080 879 1080 902.5 1061 c 128
 926 1042 926 1042 943 1011.5 c 128
 960 981 960 981 969.5 943 c 128
 979 905 979 905 981 867 c 257
 972 847 972 847 956 827 c 128
 940 807 940 807 920.5 791.5 c 128
 901 776 901 776 879.5 766.5 c 128
 858 757 858 757 838 757 c 257
EndSplineSet
EndChar
StartChar: phonein
Encoding: 420 57440 420
GlifName: phonein
Width: 1400
VWidth: 0
Flags: W
LayerCount: 2
Fore
SplineSet
344 849 m 257
 421 819 l 257
 400 885 l 257
 400 1100 l 257
 800 749 l 257
 400 399 l 257
 400 612 l 257
 421 677 l 257
 344 649 l 257
 100 649 l 257
 100 849 l 257
 344 849 l 257
EndSplineSet
Refer: 419 9742 N 1 0 0 1 300 0 2
EndChar
StartChar: slashedphone
Encoding: 488 57442 488
GlifName: slashedphone
Width: 1300
VWidth: 0
Flags: W
LayerCount: 2
Fore
SplineSet
1044 1236 m 256
 1044 1140 1044 1140 999 996.5 c 0
 954 853 954 853 876 708 c 257
 746 896 l 257
 808 985 808 985 808 999 c 256
 808 1013 808 1013 771 1036 c 0
 734 1059 734 1059 697.5 1083 c 0
 661 1107 661 1107 661 1123 c 256
 661 1163 661 1163 701.5 1243.5 c 0
 742 1324 742 1324 793 1388.5 c 0
 844 1453 844 1453 870 1453 c 256
 891 1453 891 1453 932 1419.5 c 0
 973 1386 973 1386 1008.5 1333 c 0
 1044 1280 1044 1280 1044 1236 c 256
457 448 m 256
 467 452 467 452 545 587 c 257
 668 408 l 257
 487 199 487 199 341 132 c 256
 318 121 318 121 280 121 c 256
 219 121 219 121 151 148.5 c 0
 83 176 83 176 71 199 c 256
 69 205 69 205 69 211 c 256
 69 263 69 263 149 383 c 0
 229 503 229 503 282 528 c 256
 286 530 286 530 290 530 c 256
 310 530 310 530 371.5 488.5 c 0
 433 447 433 447 450 447 c 256
 455 447 455 447 457 448 c 256
39 1500 m 257
 206 1500 l 257
 1247 0 l 257
 1069 0 l 257
 39 1500 l 257
EndSplineSet
EndChar
StartChar: wifiout
Encoding: 577 57447 577
GlifName: wifiout
Width: 2100
VWidth: 0
Flags: W
LayerCount: 2
Fore
SplineSet
900 1350 m 256
 1124 1350 1124 1350 1325 1267.5 c 0
 1526 1185 1526 1185 1680 1035 c 257
 1559 914 l 257
 1428 1040 1428 1040 1258.5 1110 c 0
 1089 1180 1089 1180 900 1180 c 256
 711 1180 711 1180 540.5 1110 c 0
 370 1040 370 1040 240 914 c 257
 119 1035 l 257
 274 1185 274 1185 475 1267.5 c 0
 676 1350 676 1350 900 1350 c 256
352 802 m 257
 461 905 461 905 602.5 962 c 0
 744 1019 744 1019 900 1019 c 256
 1056 1019 1056 1019 1197 962 c 0
 1338 905 1338 905 1447 802 c 257
 1342 697 l 257
 1253 779 1253 779 1139 824.5 c 0
 1025 870 1025 870 900 870 c 256
 774 870 774 870 660.5 824.5 c 0
 547 779 547 779 457 697 c 257
 352 802 l 257
576 579 m 257
 711 706 711 706 900 706 c 256
 1087 706 1087 706 1224 579 c 257
 1110 465 l 257
 1023 552 1023 552 900 552 c 256
 776 552 776 552 689 465 c 257
 576 579 l 257
900 412 m 256
 958 412 958 412 999.5 370.5 c 0
 1041 329 1041 329 1041 270 c 256
 1041 212 1041 212 999.5 171 c 0
 958 130 958 130 900 130 c 256
 842 130 842 130 800.5 171 c 0
 759 212 759 212 759 270 c 256
 759 329 759 329 799.5 370.5 c 0
 840 412 840 412 900 412 c 256
1544 549 m 257
 1621 519 l 257
 1600 585 l 257
 1600 800 l 257
 2000 449 l 257
 1600 99 l 257
 1600 312 l 257
 1621 377 l 257
 1544 349 l 257
 1300 349 l 257
 1300 549 l 257
 1544 549 l 257
EndSplineSet
EndChar
StartChar: slashedcomsat
Encoding: 486 57451 486
GlifName: slashedcomsat
Width: 1700
VWidth: 0
Flags: W
LayerCount: 2
Fore
SplineSet
700 -200 m 257
 300 -200 l 257
 300 498 l 257
 484 252 484 252 600 100 c 257
 700 -200 l 257
982 25 m 257
 835 93 835 93 680.5 222.5 c 0
 526 352 526 352 404 502.5 c 0
 282 653 282 653 203.5 818.5 c 0
 125 984 125 984 125 1116 c 256
 125 1187 125 1187 146 1240 c 257
 178 1194 l 257
 237 980 237 980 435.5 698.5 c 0
 634 417 634 417 858 205 c 257
 982 25 l 257
1300 171 m 257
 1318 168 1318 168 1336 168 c 256
 1390 168 1390 168 1419 196 c 256
 1455 229 1455 229 1455 296 c 256
 1455 384 1455 384 1395.5 513 c 0
 1336 642 1336 642 1229 783 c 257
 1274 825 l 257
 1402 659 1402 659 1473 500 c 0
 1544 341 1544 341 1544 227 c 256
 1544 129 1544 129 1491 80 c 256
 1453 45 1453 45 1391 39 c 257
 1300 171 l 257
867 795 m 257
 1294 1167 l 257
 1313 1186 1313 1186 1337 1186 c 256
 1364 1186 1364 1186 1383 1169 c 256
 1400 1153 1400 1153 1400 1128 c 256
 1400 1098 1400 1098 1380 1078 c 258
 953 670 l 257
 867 795 l 257
420 1439 m 257
 556 1424 556 1424 712 1338.5 c 0
 868 1253 868 1253 1022 1107 c 257
 976 1066 l 257
 834 1198 834 1198 700 1275.5 c 0
 566 1353 566 1353 475 1358 c 257
 420 1439 l 257
89 1500 m 257
 256 1500 l 257
 1436 -200 l 257
 1258 -200 l 257
 89 1500 l 257
EndSplineSet
EndChar
StartChar: slashedradio
Encoding: 489 57454 489
GlifName: slashedradio
Width: 1600
VWidth: 0
Flags: W
LayerCount: 2
Fore
SplineSet
497 809 m 257
 464 776 l 257
 382 831 382 831 327 909 c 0
 272 987 272 987 250.5 1058 c 0
 229 1129 229 1129 229 1198 c 257
 497 809 l 257
967 134 m 257
 900 100 l 257
 900 -350 l 258
 900 -371 900 -371 885.5 -385.5 c 0
 871 -400 871 -400 850 -400 c 256
 830 -400 830 -400 815 -385.5 c 0
 800 -371 800 -371 800 -350 c 258
 800 100 l 257
 614 196 l 257
 515 -131 l 258
 511 -147 511 -147 497.5 -157 c 0
 484 -167 484 -167 468 -167 c 256
 448 -167 448 -167 433 -153 c 0
 418 -139 418 -139 418 -118 c 256
 418 -108 418 -108 420 -103 c 258
 637 614 l 257
 709 509 l 257
 644 293 l 257
 800 213 l 257
 800 377 l 257
 967 134 l 257
685 1138 m 257
 685 1206 685 1206 733.5 1254.5 c 0
 782 1303 782 1303 850 1303 c 256
 919 1303 919 1303 967.5 1254.5 c 0
 1016 1206 1016 1206 1016 1138 c 256
 1016 1062 1016 1062 970.5 1017.5 c 0
 925 973 925 973 850 973 c 256
 819 973 819 973 792 982 c 257
 685 1138 l 257
1237 776 m 257
 1174 840 l 257
 1297 963 1297 963 1297 1138 c 256
 1297 1313 1297 1313 1174 1436 c 257
 1237 1500 l 257
 1387 1350 1387 1350 1387 1138 c 256
 1387 926 1387 926 1237 776 c 257
1112 901 m 257
 1044 969 l 257
 1114 1039 1114 1039 1114 1138 c 256
 1114 1237 1114 1237 1044 1307 c 257
 1112 1375 l 257
 1210 1275 1210 1275 1210 1138 c 256
 1210 999 1210 999 1112 901 c 257
868 881 m 257
 925 886 925 886 974 911 c 257
 1200 400 l 257
 868 881 l 257
149 1500 m 257
 316 1500 l 257
 1496 -200 l 257
 1318 -200 l 257
 149 1500 l 257
EndSplineSet
EndChar
StartChar: return
Encoding: 455 57513 455
GlifName: return
Width: 1500
VWidth: 0
Flags: W
LayerCount: 2
Fore
SplineSet
1200 1000 m 257
 1000 1000 l 257
 1000 1200 l 257
 1200 1000 l 257
1300 620 m 257
 1300 1040 l 257
 1040 1300 l 257
 100 1300 l 257
 100 -200 l 257
 1300 -200 l 257
 1300 180 l 257
 1200 200 l 257
 1200 -100 l 257
 200 -100 l 257
 200 1200 l 257
 900 1200 l 257
 900 900 l 257
 1200 900 l 257
 1200 600 l 257
 1300 620 l 257
1126 500 m 257
 1022 488 l 257
 1100 563 l 257
 1100 700 l 257
 600 400 l 257
 1100 100 l 257
 1100 235 l 257
 1022 310 l 257
 1126 300 l 257
 1400 300 l 257
 1400 500 l 257
 1126 500 l 257
EndSplineSet
EndChar
StartChar: noparking
Encoding: 366 57553 366
GlifName: noparking
Width: 1800
VWidth: 0
Flags: W
LayerCount: 2
Fore
SplineSet
1426 1117 m 257
 1349 1239 1349 1239 1227 1316 c 257
 305 395 l 257
 385 271 385 271 504 195 c 257
 1426 1117 l 257
867 1517 m 256
 1075 1517 1075 1517 1251.5 1414.5 c 0
 1428 1312 1428 1312 1531 1135 c 0
 1634 958 1634 958 1634 750 c 256
 1634 542 1634 542 1531 365 c 0
 1428 188 1428 188 1251.5 85.5 c 0
 1075 -17 1075 -17 867 -17 c 256
 659 -17 659 -17 482.5 85.5 c 0
 306 188 306 188 203 365 c 0
 100 542 100 542 100 750 c 256
 100 958 100 958 203 1135 c 0
 306 1312 306 1312 482.5 1414.5 c 0
 659 1517 659 1517 867 1517 c 256
EndSplineSet
EndChar
StartChar: fi
Encoding: 268 64257 268
GlifName: fi
Width: 1100
VWidth: 0
Flags: W
LayerCount: 2
Fore
SplineSet
10 1100 m 257
 150 1100 l 257
 150 1242 l 257
 150 1330 150 1330 174.5 1399.5 c 128
 199 1469 199 1469 249 1517.5 c 128
 299 1566 299 1566 374.5 1591.5 c 128
 450 1617 450 1617 552 1617 c 257
 622 1617 622 1617 688.5 1607.5 c 128
 755 1598 755 1598 812 1581.5 c 128
 869 1565 869 1565 914.5 1544 c 128
 960 1523 960 1523 988 1500 c 257
 988 1269 l 257
 680 1269 l 257
 680 1407 l 257
 669 1409 669 1409 644 1411 c 128
 619 1413 619 1413 584 1413 c 257
 524 1413 524 1413 493 1366.5 c 128
 462 1320 462 1320 462 1233 c 257
 462 1100 l 257
 982 1100 l 257
 982 0 l 257
 666 0 l 257
 666 876 l 257
 476 876 l 257
 476 0 l 257
 150 0 l 257
 150 876 l 257
 10 876 l 257
 10 1100 l 257
EndSplineSet
EndChar
StartChar: ffl
Encoding: 267 64260 267
GlifName: ffl
Width: 1800
VWidth: 0
Flags: W
LayerCount: 2
Fore
SplineSet
1013 1100 m 257
 1211 1100 l 257
 1211 1375 l 257
 1164 1400 1164 1400 1125 1400 c 257
 1098 1400 1098 1400 1077.5 1392 c 128
 1057 1384 1057 1384 1042.5 1364.5 c 128
 1028 1345 1028 1345 1020.5 1312 c 128
 1013 1279 1013 1279 1013 1228 c 257
 1013 1100 l 257
1211 876 m 257
 1018 876 l 257
 1018 0 l 257
 691 0 l 257
 691 876 l 257
 468 876 l 257
 468 0 l 257
 141 0 l 257
 141 876 l 257
 1 876 l 257
 1 1100 l 257
 141 1100 l 257
 141 1114 l 257
 141 1202 141 1202 162.5 1276 c 128
 184 1350 184 1350 230 1403.5 c 128
 276 1457 276 1457 349 1487 c 128
 422 1517 422 1517 524 1517 c 257
 575 1517 575 1517 639.5 1509.5 c 128
 704 1502 704 1502 773 1476 c 257
 795 1502 795 1502 824.5 1527 c 128
 854 1552 854 1552 892 1572 c 128
 930 1592 930 1592 975.5 1604.5 c 128
 1021 1617 1021 1617 1074 1617 c 257
 1123 1617 1123 1617 1168.5 1608 c 128
 1214 1599 1214 1599 1254.5 1585 c 128
 1295 1571 1295 1571 1329.5 1554.5 c 128
 1364 1538 1364 1538 1391 1522 c 257
 1457 1483 1457 1483 1496.5 1417 c 128
 1536 1351 1536 1351 1536 1266 c 257
 1536 388 l 257
 1536 337 1536 337 1542.5 302.5 c 128
 1549 268 1549 268 1561 247.5 c 128
 1573 227 1573 227 1590 218 c 128
 1607 209 1607 209 1628 209 c 257
 1643 209 1643 209 1660.5 212 c 128
 1678 215 1678 215 1693 220 c 257
 1711 225 1711 225 1728 232 c 257
 1784 35 l 257
 1725 12 1725 12 1669.5 -2 c 128
 1614 -16 1614 -16 1551 -16 c 257
 1443 -16 1443 -16 1376.5 18 c 128
 1310 52 1310 52 1273 110 c 128
 1236 168 1236 168 1223.5 245.5 c 128
 1211 323 1211 323 1211 410 c 257
 1211 876 l 257
585 1293 m 257
 526 1293 526 1293 494.5 1242.5 c 128
 463 1192 463 1192 463 1105 c 257
 463 1100 l 257
 691 1100 l 257
 691 1150 691 1150 691 1180.5 c 128
 691 1211 691 1211 691 1229.5 c 128
 691 1248 691 1248 691.5 1258 c 128
 692 1268 692 1268 692 1277 c 257
 676 1282 676 1282 652.5 1287.5 c 128
 629 1293 629 1293 585 1293 c 257
EndSplineSet
EndChar
StartChar: ft
Encoding: 288 64261 288
GlifName: ft
Width: 1300
VWidth: 0
Flags: W
LayerCount: 2
Fore
SplineSet
455 1100 m 257
 669 1100 l 257
 669 1379 l 257
 614 1398 614 1398 576 1398 c 257
 517 1398 517 1398 486 1352 c 128
 455 1306 455 1306 455 1198 c 257
 455 1100 l 257
1009 -16 m 257
 901 -16 901 -16 834.5 18 c 128
 768 52 768 52 731 110 c 128
 694 168 694 168 681.5 245.5 c 128
 669 323 669 323 669 410 c 257
 669 876 l 257
 460 876 l 257
 460 0 l 257
 134 0 l 257
 134 876 l 257
 -6 876 l 257
 -6 1100 l 257
 134 1100 l 257
 134 1207 l 257
 134 1295 134 1295 158.5 1369.5 c 128
 183 1444 183 1444 233 1499 c 128
 283 1554 283 1554 358.5 1585 c 128
 434 1616 434 1616 536 1616 c 257
 599 1616 599 1616 656.5 1605.5 c 128
 714 1595 714 1595 769.5 1573 c 128
 825 1551 825 1551 879.5 1518.5 c 128
 934 1486 934 1486 990 1441 c 257
 990 1100 l 257
 1256 1100 l 257
 1229 876 l 257
 995 876 l 257
 995 388 l 257
 995 337 995 337 1002 302.5 c 128
 1009 268 1009 268 1021 247 c 128
 1033 226 1033 226 1048.5 217 c 128
 1064 208 1064 208 1080 208 c 257
 1100 208 1100 208 1119.5 211.5 c 128
 1139 215 1139 215 1154 220 c 257
 1172 225 1172 225 1187 232 c 257
 1243 35 l 257
 1225 27 1225 27 1202.5 18 c 128
 1180 9 1180 9 1151.5 1.5 c 128
 1123 -6 1123 -6 1087.5 -11 c 128
 1052 -16 1052 -16 1009 -16 c 257
EndSplineSet
EndChar
